<ttFont>
    <TTGlyph name=".notdef" xMin="65" yMin="0" xMax="437" yMax="700">
      <contour>
        <pt x="65" y="700" on="1"/>
        <pt x="437" y="700" on="1"/>
        <pt x="437" y="0" on="1"/>
        <pt x="65" y="0" on="1"/>
      </contour>
      <contour>
        <pt x="362" y="72" on="1"/>
        <pt x="362" y="628" on="1"/>
        <pt x="140" y="628" on="1"/>
        <pt x="140" y="72" on="1"/>
      </contour>
    </TTGlyph>
    <TTGlyph name="A" xMin="25" yMin="0" xMax="475" yMax="700">
      <contour>
        <pt x="250" y="634" on="1"/>
        <pt x="169" y="252" on="1"/>
        <pt x="332" y="252" on="1"/>
      </contour>
      <contour>
        <pt x="386" y="0" on="1"/>
        <pt x="348" y="177" on="1"/>
        <pt x="153" y="177" on="1"/>
        <pt x="114" y="0" on="1"/>
        <pt x="25" y="0" on="1"/>
        <pt x="194" y="700" on="1"/>
        <pt x="309" y="700" on="1"/>
        <pt x="475" y="0" on="1"/>
      </contour>
    </TTGlyph>
    <TTGlyph name="AE" xMin="25" yMin="0" xMax="688" yMax="700">
      <contour>
        <pt x="390" y="0" on="1"/>
        <pt x="370" y="177" on="1"/>
        <pt x="171" y="177" on="1"/>
        <pt x="114" y="0" on="1"/>
        <pt x="25" y="0" on="1"/>
        <pt x="264" y="700" on="1"/>
        <pt x="668" y="700" on="1"/>
        <pt x="668" y="627" on="1"/>
        <pt x="401" y="627" on="1"/>
        <pt x="428" y="398" on="1"/>
        <pt x="663" y="398" on="1"/>
        <pt x="663" y="325" on="1"/>
        <pt x="437" y="325" on="1"/>
        <pt x="467" y="73" on="1"/>
        <pt x="688" y="73" on="1"/>
        <pt x="688" y="0" on="1"/>
      </contour>
      <contour>
        <pt x="195" y="252" on="1"/>
        <pt x="361" y="252" on="1"/>
        <pt x="320" y="627" on="1"/>
      </contour>
    </TTGlyph>
    <TTGlyph name="Aacute" xMin="25" yMin="0" xMax="475" yMax="841">
      <contour>
        <pt x="161" y="726" on="1"/>
        <pt x="265" y="841" on="1"/>
        <pt x="376" y="841" on="1"/>
        <pt x="244" y="726" on="1"/>
      </contour>
      <contour>
        <pt x="250" y="634" on="1"/>
        <pt x="161" y="252" on="1"/>
        <pt x="332" y="252" on="1"/>
      </contour>
      <contour>
        <pt x="386" y="0" on="1"/>
        <pt x="348" y="177" on="1"/>
        <pt x="153" y="177" on="1"/>
        <pt x="114" y="0" on="1"/>
        <pt x="25" y="0" on="1"/>
        <pt x="194" y="700" on="1"/>
        <pt x="309" y="700" on="1"/>
        <pt x="475" y="0" on="1"/>
      </contour>
    </TTGlyph>
    <TTGlyph name="Acircumflex" xMin="25" yMin="0" xMax="475" yMax="845">
      <contour>
        <pt x="309" y="730" on="1"/>
        <pt x="249" y="794" on="1"/>
        <pt x="189" y="730" on="1"/>
        <pt x="93" y="730" on="1"/>
        <pt x="203" y="845" on="1"/>
        <pt x="295" y="845" on="1"/>
        <pt x="406" y="730" on="1"/>
      </contour>
      <contour>
        <pt x="250" y="634" on="1"/>
        <pt x="169" y="252" on="1"/>
        <pt x="332" y="252" on="1"/>
      </contour>
      <contour>
        <pt x="386" y="0" on="1"/>
        <pt x="348" y="177" on="1"/>
        <pt x="153" y="177" on="1"/>
        <pt x="114" y="0" on="1"/>
        <pt x="25" y="0" on="1"/>
        <pt x="194" y="700" on="1"/>
        <pt x="309" y="700" on="1"/>
        <pt x="475" y="0" on="1"/>
      </contour>
    </TTGlyph>
    <TTGlyph name="Adieresis" xMin="25" yMin="0" xMax="475" yMax="815">
      <contour>
        <pt x="250" y="634" on="1"/>
        <pt x="169" y="252" on="1"/>
        <pt x="332" y="252" on="1"/>
      </contour>
      <contour>
        <pt x="386" y="0" on="1"/>
        <pt x="348" y="177" on="1"/>
        <pt x="153" y="177" on="1"/>
        <pt x="114" y="0" on="1"/>
        <pt x="25" y="0" on="1"/>
        <pt x="194" y="700" on="1"/>
        <pt x="309" y="700" on="1"/>
        <pt x="475" y="0" on="1"/>
      </contour>
      <contour>
        <pt x="307" y="735" on="1"/>
        <pt x="307" y="815" on="1"/>
        <pt x="386" y="815" on="1"/>
        <pt x="392" y="735" on="1"/>
      </contour>
      <contour>
        <pt x="107" y="735" on="1"/>
        <pt x="107" y="815" on="1"/>
        <pt x="192" y="815" on="1"/>
        <pt x="192" y="735" on="1"/>
      </contour>
    </TTGlyph>
    <TTGlyph name="Agrave" xMin="25" yMin="0" xMax="475" yMax="841">
      <contour>
        <pt x="254" y="726" on="1"/>
        <pt x="122" y="841" on="1"/>
        <pt x="233" y="841" on="1"/>
        <pt x="337" y="726" on="1"/>
      </contour>
      <contour>
        <pt x="250" y="634" on="1"/>
        <pt x="169" y="252" on="1"/>
        <pt x="332" y="252" on="1"/>
      </contour>
      <contour>
        <pt x="386" y="0" on="1"/>
        <pt x="348" y="177" on="1"/>
        <pt x="153" y="177" on="1"/>
        <pt x="114" y="0" on="1"/>
        <pt x="25" y="0" on="1"/>
        <pt x="194" y="700" on="1"/>
        <pt x="309" y="700" on="1"/>
        <pt x="475" y="0" on="1"/>
      </contour>
    </TTGlyph>
    <TTGlyph name="Aring" xMin="25" yMin="0" xMax="475" yMax="855">
      <contour>
        <pt x="346" y="753" on="1"/>
        <pt x="346" y="729" on="0"/>
        <pt x="329" y="689" on="0"/>
        <pt x="315" y="675" on="1"/>
        <pt x="475" y="0" on="1"/>
        <pt x="386" y="0" on="1"/>
        <pt x="348" y="177" on="1"/>
        <pt x="153" y="177" on="1"/>
        <pt x="114" y="0" on="1"/>
        <pt x="25" y="0" on="1"/>
        <pt x="188" y="674" on="1"/>
        <pt x="172" y="688" on="0"/>
        <pt x="156" y="729" on="0"/>
        <pt x="156" y="753" on="1"/>
        <pt x="156" y="797" on="0"/>
        <pt x="206" y="855" on="0"/>
        <pt x="250" y="855" on="1"/>
        <pt x="295" y="855" on="0"/>
        <pt x="346" y="798" on="0"/>
      </contour>
      <contour>
        <pt x="250" y="634" on="1"/>
        <pt x="169" y="252" on="1"/>
        <pt x="332" y="252" on="1"/>
      </contour>
      <contour>
        <pt x="288" y="754" on="1"/>
        <pt x="288" y="774" on="0"/>
        <pt x="273" y="803" on="0"/>
        <pt x="250" y="803" on="1"/>
        <pt x="228" y="803" on="0"/>
        <pt x="213" y="772" on="0"/>
        <pt x="213" y="754" on="1"/>
        <pt x="213" y="737" on="0"/>
        <pt x="228" y="705" on="0"/>
        <pt x="250" y="705" on="1"/>
        <pt x="275" y="705" on="0"/>
        <pt x="288" y="735" on="0"/>
      </contour>
    </TTGlyph>
    <TTGlyph name="Atilde" xMin="25" yMin="0" xMax="475" yMax="840">
      <contour>
        <pt x="250" y="634" on="1"/>
        <pt x="169" y="252" on="1"/>
        <pt x="332" y="252" on="1"/>
      </contour>
      <contour>
        <pt x="386" y="0" on="1"/>
        <pt x="348" y="177" on="1"/>
        <pt x="153" y="177" on="1"/>
        <pt x="114" y="0" on="1"/>
        <pt x="25" y="0" on="1"/>
        <pt x="194" y="700" on="1"/>
        <pt x="309" y="700" on="1"/>
        <pt x="475" y="0" on="1"/>
      </contour>
      <contour>
        <pt x="122" y="807" on="1"/>
        <pt x="145" y="826" on="0"/>
        <pt x="188" y="840" on="0"/>
        <pt x="208" y="840" on="1"/>
        <pt x="226" y="840" on="0"/>
        <pt x="255" y="828" on="0"/>
        <pt x="281" y="813" on="0"/>
        <pt x="307" y="801" on="0"/>
        <pt x="322" y="801" on="1"/>
        <pt x="348" y="801" on="0"/>
        <pt x="382" y="820" on="0"/>
        <pt x="402" y="837" on="1"/>
        <pt x="402" y="764" on="1"/>
        <pt x="382" y="745" on="0"/>
        <pt x="342" y="731" on="0"/>
        <pt x="316" y="731" on="1"/>
        <pt x="297" y="731" on="0"/>
        <pt x="269" y="743" on="0"/>
        <pt x="244" y="758" on="0"/>
        <pt x="218" y="770" on="0"/>
        <pt x="202" y="770" on="1"/>
        <pt x="176" y="770" on="0"/>
        <pt x="138" y="748" on="0"/>
        <pt x="122" y="734" on="1"/>
      </contour>
    </TTGlyph>
    <TTGlyph name="B" xMin="85" yMin="-7" xMax="452" yMax="707">
      <contour>
        <pt x="363" y="204" on="1"/>
        <pt x="363" y="270" on="0"/>
        <pt x="320" y="332" on="0"/>
        <pt x="265" y="332" on="1"/>
        <pt x="172" y="332" on="1"/>
        <pt x="172" y="71" on="1"/>
        <pt x="186" y="70" on="0"/>
        <pt x="202" y="69" on="1"/>
        <pt x="216" y="68" on="0"/>
        <pt x="248" y="66" on="0"/>
        <pt x="264" y="66" on="1"/>
        <pt x="284" y="66" on="0"/>
        <pt x="320" y="76" on="0"/>
        <pt x="347" y="106" on="0"/>
        <pt x="363" y="160" on="0"/>
      </contour>
      <contour>
        <pt x="348" y="517" on="1"/>
        <pt x="348" y="579" on="0"/>
        <pt x="311" y="635" on="0"/>
        <pt x="255" y="635" on="1"/>
        <pt x="219" y="635" on="0"/>
        <pt x="196" y="632" on="1"/>
        <pt x="183" y="630" on="0"/>
        <pt x="172" y="629" on="1"/>
        <pt x="172" y="404" on="1"/>
        <pt x="255" y="404" on="1"/>
        <pt x="270" y="404" on="0"/>
        <pt x="303" y="410" on="0"/>
        <pt x="330" y="432" on="0"/>
        <pt x="348" y="477" on="0"/>
      </contour>
      <contour>
        <pt x="452" y="211" on="1"/>
        <pt x="452" y="148" on="0"/>
        <pt x="424" y="65" on="0"/>
        <pt x="373" y="14" on="0"/>
        <pt x="300" y="-7" on="0"/>
        <pt x="255" y="-7" on="1"/>
        <pt x="223" y="-7" on="0"/>
        <pt x="163" y="-6" on="0"/>
        <pt x="139" y="-4" on="1"/>
        <pt x="111" y="-2" on="0"/>
        <pt x="85" y="0" on="1"/>
        <pt x="85" y="700" on="1"/>
        <pt x="113" y="702" on="0"/>
        <pt x="140" y="704" on="1"/>
        <pt x="163" y="706" on="0"/>
        <pt x="219" y="707" on="0"/>
        <pt x="243" y="707" on="1"/>
        <pt x="288" y="707" on="0"/>
        <pt x="359" y="688" on="0"/>
        <pt x="409" y="644" on="0"/>
        <pt x="435" y="574" on="0"/>
        <pt x="435" y="524" on="1"/>
        <pt x="435" y="461" on="0"/>
        <pt x="385" y="386" on="0"/>
        <pt x="355" y="373" on="1"/>
        <pt x="370" y="368" on="0"/>
        <pt x="404" y="347" on="0"/>
        <pt x="433" y="310" on="0"/>
        <pt x="452" y="253" on="0"/>
      </contour>
    </TTGlyph>
    <TTGlyph name="C" xMin="65" yMin="-7" xMax="378" yMax="707">
      <contour>
        <pt x="378" y="10" on="1"/>
        <pt x="370" y="8" on="0"/>
        <pt x="342" y="2" on="0"/>
        <pt x="311" y="-3" on="0"/>
        <pt x="279" y="-7" on="0"/>
        <pt x="267" y="-7" on="1"/>
        <pt x="213" y="-7" on="0"/>
        <pt x="137" y="24" on="0"/>
        <pt x="88" y="106" on="0"/>
        <pt x="65" y="249" on="0"/>
        <pt x="65" y="361" on="1"/>
        <pt x="65" y="472" on="0"/>
        <pt x="91" y="607" on="0"/>
        <pt x="144" y="682" on="0"/>
        <pt x="224" y="707" on="0"/>
        <pt x="279" y="707" on="1"/>
        <pt x="303" y="707" on="0"/>
        <pt x="358" y="698" on="0"/>
        <pt x="378" y="693" on="1"/>
        <pt x="378" y="619" on="1"/>
        <pt x="353" y="625" on="0"/>
        <pt x="290" y="632" on="0"/>
        <pt x="261" y="632" on="1"/>
        <pt x="234" y="632" on="0"/>
        <pt x="193" y="613" on="0"/>
        <pt x="167" y="554" on="0"/>
        <pt x="154" y="445" on="0"/>
        <pt x="154" y="354" on="1"/>
        <pt x="154" y="260" on="0"/>
        <pt x="168" y="147" on="0"/>
        <pt x="195" y="87" on="0"/>
        <pt x="235" y="68" on="0"/>
        <pt x="262" y="68" on="1"/>
        <pt x="293" y="68" on="0"/>
        <pt x="359" y="78" on="0"/>
        <pt x="378" y="83" on="1"/>
      </contour>
    </TTGlyph>
    <TTGlyph name="Ccedilla" xMin="65" yMin="-200" xMax="378" yMax="707">
      <contour>
        <pt x="180" y="-131" on="1"/>
        <pt x="194" y="-134" on="0"/>
        <pt x="223" y="-137" on="0"/>
        <pt x="234" y="-137" on="1"/>
        <pt x="254" y="-137" on="0"/>
        <pt x="275" y="-125" on="0"/>
        <pt x="275" y="-106" on="1"/>
        <pt x="275" y="-99" on="0"/>
        <pt x="268" y="-87" on="0"/>
        <pt x="250" y="-80" on="0"/>
        <pt x="219" y="-76" on="0"/>
        <pt x="194" y="-76" on="1"/>
        <pt x="206" y="-1" on="1"/>
        <pt x="169" y="7" on="0"/>
        <pt x="116" y="51" on="0"/>
        <pt x="81" y="136" on="0"/>
        <pt x="65" y="267" on="0"/>
        <pt x="65" y="361" on="1"/>
        <pt x="65" y="472" on="0"/>
        <pt x="91" y="607" on="0"/>
        <pt x="144" y="682" on="0"/>
        <pt x="224" y="707" on="0"/>
        <pt x="279" y="707" on="1"/>
        <pt x="303" y="707" on="0"/>
        <pt x="358" y="698" on="0"/>
        <pt x="378" y="693" on="1"/>
        <pt x="378" y="619" on="1"/>
        <pt x="353" y="625" on="0"/>
        <pt x="290" y="632" on="0"/>
        <pt x="261" y="632" on="1"/>
        <pt x="234" y="632" on="0"/>
        <pt x="193" y="613" on="0"/>
        <pt x="167" y="554" on="0"/>
        <pt x="154" y="445" on="0"/>
        <pt x="154" y="354" on="1"/>
        <pt x="154" y="260" on="0"/>
        <pt x="168" y="147" on="0"/>
        <pt x="195" y="87" on="0"/>
        <pt x="235" y="68" on="0"/>
        <pt x="262" y="68" on="1"/>
        <pt x="293" y="68" on="0"/>
        <pt x="359" y="78" on="0"/>
        <pt x="378" y="83" on="1"/>
        <pt x="378" y="10" on="1"/>
        <pt x="370" y="8" on="0"/>
        <pt x="344" y="2" on="0"/>
        <pt x="314" y="-3" on="0"/>
        <pt x="283" y="-7" on="0"/>
        <pt x="271" y="-7" on="1"/>
        <pt x="268" y="-27" on="1"/>
        <pt x="313" y="-32" on="0"/>
        <pt x="351" y="-71" on="0"/>
        <pt x="351" y="-109" on="1"/>
        <pt x="351" y="-157" on="0"/>
        <pt x="292" y="-200" on="0"/>
        <pt x="243" y="-200" on="1"/>
        <pt x="225" y="-200" on="0"/>
        <pt x="196" y="-196" on="0"/>
        <pt x="180" y="-193" on="1"/>
      </contour>
    </TTGlyph>
    <TTGlyph name="D" xMin="85" yMin="-7" xMax="461" yMax="707">
      <contour>
        <pt x="372" y="354" on="1"/>
        <pt x="372" y="444" on="0"/>
        <pt x="357" y="554" on="0"/>
        <pt x="329" y="614" on="0"/>
        <pt x="292" y="634" on="0"/>
        <pt x="269" y="634" on="1"/>
        <pt x="255" y="634" on="0"/>
        <pt x="222" y="633" on="0"/>
        <pt x="207" y="632" on="1"/>
        <pt x="189" y="631" on="0"/>
        <pt x="172" y="630" on="1"/>
        <pt x="172" y="70" on="1"/>
        <pt x="187" y="69" on="0"/>
        <pt x="204" y="68" on="1"/>
        <pt x="218" y="67" on="0"/>
        <pt x="252" y="66" on="0"/>
        <pt x="268" y="66" on="1"/>
        <pt x="291" y="66" on="0"/>
        <pt x="330" y="94" on="0"/>
        <pt x="357" y="161" on="0"/>
        <pt x="372" y="272" on="0"/>
      </contour>
      <contour>
        <pt x="461" y="361" on="1"/>
        <pt x="461" y="249" on="0"/>
        <pt x="436" y="106" on="0"/>
        <pt x="385" y="24" on="0"/>
        <pt x="309" y="-7" on="0"/>
        <pt x="259" y="-7" on="1"/>
        <pt x="230" y="-7" on="0"/>
        <pt x="169" y="-6" on="0"/>
        <pt x="143" y="-4" on="1"/>
        <pt x="113" y="-2" on="0"/>
        <pt x="85" y="0" on="1"/>
        <pt x="85" y="700" on="1"/>
        <pt x="112" y="702" on="0"/>
        <pt x="140" y="704" on="1"/>
        <pt x="164" y="706" on="0"/>
        <pt x="221" y="707" on="0"/>
        <pt x="247" y="707" on="1"/>
        <pt x="300" y="707" on="0"/>
        <pt x="380" y="682" on="0"/>
        <pt x="434" y="607" on="0"/>
        <pt x="461" y="472" on="0"/>
      </contour>
    </TTGlyph>
    <TTGlyph name="Delta" xMin="25" yMin="0" xMax="485" yMax="700">
      <contour>
        <pt x="25" y="0" on="1"/>
        <pt x="203" y="700" on="1"/>
        <pt x="314" y="700" on="1"/>
        <pt x="485" y="0" on="1"/>
      </contour>
      <contour>
        <pt x="258" y="625" on="1"/>
        <pt x="133" y="75" on="1"/>
        <pt x="377" y="75" on="1"/>
      </contour>
    </TTGlyph>
    <TTGlyph name="E" xMin="85" yMin="0" xMax="413" yMax="700">
      <contour>
        <pt x="85" y="0" on="1"/>
        <pt x="85" y="700" on="1"/>
        <pt x="413" y="700" on="1"/>
        <pt x="413" y="627" on="1"/>
        <pt x="172" y="627" on="1"/>
        <pt x="172" y="398" on="1"/>
        <pt x="388" y="398" on="1"/>
        <pt x="388" y="325" on="1"/>
        <pt x="172" y="325" on="1"/>
        <pt x="172" y="73" on="1"/>
        <pt x="413" y="73" on="1"/>
        <pt x="413" y="0" on="1"/>
      </contour>
    </TTGlyph>
    <TTGlyph name="Eacute" xMin="85" yMin="0" xMax="413" yMax="841">
      <contour>
        <pt x="182" y="726" on="1"/>
        <pt x="286" y="841" on="1"/>
        <pt x="397" y="841" on="1"/>
        <pt x="265" y="726" on="1"/>
      </contour>
      <contour>
        <pt x="85" y="0" on="1"/>
        <pt x="85" y="700" on="1"/>
        <pt x="413" y="700" on="1"/>
        <pt x="413" y="627" on="1"/>
        <pt x="172" y="627" on="1"/>
        <pt x="172" y="398" on="1"/>
        <pt x="388" y="398" on="1"/>
        <pt x="388" y="325" on="1"/>
        <pt x="172" y="325" on="1"/>
        <pt x="172" y="73" on="1"/>
        <pt x="413" y="73" on="1"/>
        <pt x="413" y="0" on="1"/>
      </contour>
    </TTGlyph>
    <TTGlyph name="Ecircumflex" xMin="85" yMin="0" xMax="413" yMax="845">
      <contour>
        <pt x="309" y="730" on="1"/>
        <pt x="249" y="794" on="1"/>
        <pt x="189" y="730" on="1"/>
        <pt x="93" y="730" on="1"/>
        <pt x="203" y="845" on="1"/>
        <pt x="295" y="845" on="1"/>
        <pt x="406" y="730" on="1"/>
      </contour>
      <contour>
        <pt x="85" y="0" on="1"/>
        <pt x="85" y="700" on="1"/>
        <pt x="413" y="700" on="1"/>
        <pt x="413" y="627" on="1"/>
        <pt x="172" y="627" on="1"/>
        <pt x="172" y="398" on="1"/>
        <pt x="388" y="398" on="1"/>
        <pt x="388" y="325" on="1"/>
        <pt x="172" y="325" on="1"/>
        <pt x="172" y="73" on="1"/>
        <pt x="413" y="73" on="1"/>
        <pt x="413" y="0" on="1"/>
      </contour>
    </TTGlyph>
    <TTGlyph name="Edieresis" xMin="85" yMin="0" xMax="413" yMax="815">
      <contour>
        <pt x="85" y="0" on="1"/>
        <pt x="85" y="700" on="1"/>
        <pt x="413" y="700" on="1"/>
        <pt x="413" y="627" on="1"/>
        <pt x="172" y="627" on="1"/>
        <pt x="172" y="398" on="1"/>
        <pt x="388" y="398" on="1"/>
        <pt x="388" y="325" on="1"/>
        <pt x="172" y="325" on="1"/>
        <pt x="172" y="73" on="1"/>
        <pt x="413" y="73" on="1"/>
        <pt x="413" y="0" on="1"/>
      </contour>
      <contour>
        <pt x="308" y="735" on="1"/>
        <pt x="308" y="815" on="1"/>
        <pt x="393" y="815" on="1"/>
        <pt x="393" y="735" on="1"/>
      </contour>
      <contour>
        <pt x="108" y="735" on="1"/>
        <pt x="108" y="815" on="1"/>
        <pt x="193" y="815" on="1"/>
        <pt x="193" y="735" on="1"/>
      </contour>
    </TTGlyph>
    <TTGlyph name="Egrave" xMin="85" yMin="0" xMax="413" yMax="841">
      <contour>
        <pt x="244" y="726" on="1"/>
        <pt x="112" y="841" on="1"/>
        <pt x="223" y="841" on="1"/>
        <pt x="327" y="726" on="1"/>
      </contour>
      <contour>
        <pt x="85" y="0" on="1"/>
        <pt x="85" y="700" on="1"/>
        <pt x="413" y="700" on="1"/>
        <pt x="413" y="627" on="1"/>
        <pt x="172" y="627" on="1"/>
        <pt x="172" y="398" on="1"/>
        <pt x="388" y="398" on="1"/>
        <pt x="388" y="325" on="1"/>
        <pt x="172" y="325" on="1"/>
        <pt x="172" y="73" on="1"/>
        <pt x="413" y="73" on="1"/>
        <pt x="413" y="0" on="1"/>
      </contour>
    </TTGlyph>
    <TTGlyph name="Eth" xMin="25" yMin="-7" xMax="471" yMax="707">
      <contour>
        <pt x="471" y="361" on="1"/>
        <pt x="471" y="249" on="0"/>
        <pt x="446" y="106" on="0"/>
        <pt x="395" y="24" on="0"/>
        <pt x="319" y="-7" on="0"/>
        <pt x="269" y="-7" on="1"/>
        <pt x="240" y="-7" on="0"/>
        <pt x="179" y="-6" on="0"/>
        <pt x="153" y="-4" on="1"/>
        <pt x="123" y="-2" on="0"/>
        <pt x="95" y="0" on="1"/>
        <pt x="95" y="325" on="1"/>
        <pt x="25" y="325" on="1"/>
        <pt x="25" y="400" on="1"/>
        <pt x="95" y="400" on="1"/>
        <pt x="95" y="700" on="1"/>
        <pt x="122" y="702" on="0"/>
        <pt x="150" y="704" on="1"/>
        <pt x="174" y="706" on="0"/>
        <pt x="231" y="707" on="0"/>
        <pt x="257" y="707" on="1"/>
        <pt x="310" y="707" on="0"/>
        <pt x="390" y="682" on="0"/>
        <pt x="444" y="607" on="0"/>
        <pt x="471" y="472" on="0"/>
      </contour>
      <contour>
        <pt x="382" y="354" on="1"/>
        <pt x="382" y="444" on="0"/>
        <pt x="367" y="554" on="0"/>
        <pt x="339" y="614" on="0"/>
        <pt x="302" y="634" on="0"/>
        <pt x="279" y="634" on="1"/>
        <pt x="265" y="634" on="0"/>
        <pt x="232" y="633" on="0"/>
        <pt x="217" y="632" on="1"/>
        <pt x="199" y="631" on="0"/>
        <pt x="182" y="630" on="1"/>
        <pt x="182" y="400" on="1"/>
        <pt x="295" y="400" on="1"/>
        <pt x="295" y="325" on="1"/>
        <pt x="182" y="325" on="1"/>
        <pt x="182" y="70" on="1"/>
        <pt x="197" y="69" on="0"/>
        <pt x="214" y="68" on="1"/>
        <pt x="228" y="67" on="0"/>
        <pt x="262" y="66" on="0"/>
        <pt x="278" y="66" on="1"/>
        <pt x="301" y="66" on="0"/>
        <pt x="340" y="94" on="0"/>
        <pt x="367" y="161" on="0"/>
        <pt x="382" y="272" on="0"/>
      </contour>
    </TTGlyph>
    <TTGlyph name="Euro" xMin="55" yMin="-7" xMax="426" yMax="707">
      <contour>
        <pt x="406" y="621" on="1"/>
        <pt x="378" y="627" on="0"/>
        <pt x="334" y="634" on="0"/>
        <pt x="309" y="634" on="1"/>
        <pt x="287" y="634" on="0"/>
        <pt x="253" y="622" on="0"/>
        <pt x="228" y="589" on="0"/>
        <pt x="212" y="529" on="0"/>
        <pt x="208" y="480" on="1"/>
        <pt x="371" y="480" on="1"/>
        <pt x="351" y="407" on="1"/>
        <pt x="204" y="407" on="1"/>
        <pt x="204" y="310" on="1"/>
        <pt x="341" y="310" on="1"/>
        <pt x="321" y="237" on="1"/>
        <pt x="207" y="237" on="1"/>
        <pt x="211" y="182" on="0"/>
        <pt x="227" y="115" on="0"/>
        <pt x="253" y="78" on="0"/>
        <pt x="288" y="66" on="0"/>
        <pt x="310" y="66" on="1"/>
        <pt x="341" y="66" on="0"/>
        <pt x="387" y="75" on="0"/>
        <pt x="406" y="80" on="1"/>
        <pt x="406" y="9" on="1"/>
        <pt x="389" y="4" on="0"/>
        <pt x="340" y="-7" on="0"/>
        <pt x="315" y="-7" on="1"/>
        <pt x="270" y="-7" on="0"/>
        <pt x="202" y="15" on="0"/>
        <pt x="154" y="70" on="0"/>
        <pt x="125" y="164" on="0"/>
        <pt x="119" y="237" on="1"/>
        <pt x="55" y="237" on="1"/>
        <pt x="75" y="310" on="1"/>
        <pt x="115" y="310" on="1"/>
        <pt x="115" y="407" on="1"/>
        <pt x="55" y="407" on="1"/>
        <pt x="75" y="480" on="1"/>
        <pt x="119" y="480" on="1"/>
        <pt x="126" y="551" on="0"/>
        <pt x="158" y="640" on="0"/>
        <pt x="209" y="690" on="0"/>
        <pt x="281" y="707" on="0"/>
        <pt x="327" y="707" on="1"/>
        <pt x="337" y="707" on="0"/>
        <pt x="366" y="703" on="0"/>
        <pt x="396" y="698" on="0"/>
        <pt x="420" y="692" on="0"/>
        <pt x="426" y="690" on="1"/>
      </contour>
    </TTGlyph>
    <TTGlyph name="F" xMin="85" yMin="0" xMax="413" yMax="700">
      <contour>
        <pt x="172" y="627" on="1"/>
        <pt x="172" y="388" on="1"/>
        <pt x="388" y="388" on="1"/>
        <pt x="388" y="315" on="1"/>
        <pt x="172" y="315" on="1"/>
        <pt x="172" y="0" on="1"/>
        <pt x="85" y="0" on="1"/>
        <pt x="85" y="700" on="1"/>
        <pt x="413" y="700" on="1"/>
        <pt x="413" y="627" on="1"/>
      </contour>
    </TTGlyph>
    <TTGlyph name="G" xMin="65" yMin="-7" xMax="430" yMax="707">
      <contour>
        <pt x="430" y="10" on="1"/>
        <pt x="390" y="2" on="0"/>
        <pt x="314" y="-7" on="0"/>
        <pt x="273" y="-7" on="1"/>
        <pt x="216" y="-7" on="0"/>
        <pt x="136" y="24" on="0"/>
        <pt x="87" y="106" on="0"/>
        <pt x="65" y="249" on="0"/>
        <pt x="65" y="361" on="1"/>
        <pt x="65" y="472" on="0"/>
        <pt x="93" y="607" on="0"/>
        <pt x="150" y="682" on="0"/>
        <pt x="238" y="707" on="0"/>
        <pt x="297" y="707" on="1"/>
        <pt x="323" y="707" on="0"/>
        <pt x="390" y="698" on="0"/>
        <pt x="409" y="693" on="1"/>
        <pt x="409" y="621" on="1"/>
        <pt x="377" y="627" on="0"/>
        <pt x="311" y="634" on="0"/>
        <pt x="279" y="634" on="1"/>
        <pt x="247" y="634" on="0"/>
        <pt x="200" y="615" on="0"/>
        <pt x="169" y="555" on="0"/>
        <pt x="154" y="445" on="0"/>
        <pt x="154" y="354" on="1"/>
        <pt x="154" y="260" on="0"/>
        <pt x="167" y="146" on="0"/>
        <pt x="195" y="85" on="0"/>
        <pt x="238" y="66" on="0"/>
        <pt x="268" y="66" on="1"/>
        <pt x="285" y="66" on="0"/>
        <pt x="327" y="70" on="0"/>
        <pt x="347" y="73" on="1"/>
        <pt x="347" y="295" on="1"/>
        <pt x="258" y="295" on="1"/>
        <pt x="258" y="368" on="1"/>
        <pt x="430" y="368" on="1"/>
      </contour>
    </TTGlyph>
    <TTGlyph name="H" xMin="85" yMin="0" xMax="465" yMax="700">
      <contour>
        <pt x="378" y="0" on="1"/>
        <pt x="378" y="322" on="1"/>
        <pt x="172" y="322" on="1"/>
        <pt x="172" y="0" on="1"/>
        <pt x="85" y="0" on="1"/>
        <pt x="85" y="700" on="1"/>
        <pt x="172" y="700" on="1"/>
        <pt x="172" y="396" on="1"/>
        <pt x="378" y="396" on="1"/>
        <pt x="378" y="700" on="1"/>
        <pt x="465" y="700" on="1"/>
        <pt x="465" y="0" on="1"/>
      </contour>
    </TTGlyph>
    <TTGlyph name="I" xMin="45" yMin="0" xMax="272" yMax="700">
      <contour>
        <pt x="45" y="0" on="1"/>
        <pt x="45" y="73" on="1"/>
        <pt x="115" y="73" on="1"/>
        <pt x="115" y="627" on="1"/>
        <pt x="45" y="627" on="1"/>
        <pt x="45" y="700" on="1"/>
        <pt x="272" y="700" on="1"/>
        <pt x="272" y="627" on="1"/>
        <pt x="202" y="627" on="1"/>
        <pt x="202" y="73" on="1"/>
        <pt x="272" y="73" on="1"/>
        <pt x="272" y="0" on="1"/>
      </contour>
    </TTGlyph>
    <TTGlyph name="Iacute" xMin="45" yMin="0" xMax="276" yMax="841">
      <contour>
        <pt x="61" y="726" on="1"/>
        <pt x="165" y="841" on="1"/>
        <pt x="276" y="841" on="1"/>
        <pt x="144" y="726" on="1"/>
      </contour>
      <contour>
        <pt x="45" y="0" on="1"/>
        <pt x="45" y="73" on="1"/>
        <pt x="115" y="73" on="1"/>
        <pt x="115" y="627" on="1"/>
        <pt x="45" y="627" on="1"/>
        <pt x="45" y="700" on="1"/>
        <pt x="272" y="700" on="1"/>
        <pt x="272" y="627" on="1"/>
        <pt x="202" y="627" on="1"/>
        <pt x="202" y="73" on="1"/>
        <pt x="272" y="73" on="1"/>
        <pt x="272" y="0" on="1"/>
      </contour>
    </TTGlyph>
    <TTGlyph name="Icircumflex" xMin="2" yMin="0" xMax="315" yMax="845">
      <contour>
        <pt x="218" y="730" on="1"/>
        <pt x="158" y="794" on="1"/>
        <pt x="98" y="730" on="1"/>
        <pt x="2" y="730" on="1"/>
        <pt x="112" y="845" on="1"/>
        <pt x="204" y="845" on="1"/>
        <pt x="315" y="730" on="1"/>
      </contour>
      <contour>
        <pt x="45" y="0" on="1"/>
        <pt x="45" y="73" on="1"/>
        <pt x="115" y="73" on="1"/>
        <pt x="115" y="627" on="1"/>
        <pt x="45" y="627" on="1"/>
        <pt x="45" y="700" on="1"/>
        <pt x="272" y="700" on="1"/>
        <pt x="272" y="627" on="1"/>
        <pt x="202" y="627" on="1"/>
        <pt x="202" y="73" on="1"/>
        <pt x="272" y="73" on="1"/>
        <pt x="272" y="0" on="1"/>
      </contour>
    </TTGlyph>
    <TTGlyph name="Idieresis" xMin="16" yMin="0" xMax="301" yMax="815">
      <contour>
        <pt x="45" y="0" on="1"/>
        <pt x="45" y="73" on="1"/>
        <pt x="115" y="73" on="1"/>
        <pt x="115" y="627" on="1"/>
        <pt x="45" y="627" on="1"/>
        <pt x="45" y="700" on="1"/>
        <pt x="272" y="700" on="1"/>
        <pt x="272" y="627" on="1"/>
        <pt x="202" y="627" on="1"/>
        <pt x="202" y="73" on="1"/>
        <pt x="272" y="73" on="1"/>
        <pt x="272" y="0" on="1"/>
      </contour>
      <contour>
        <pt x="216" y="735" on="1"/>
        <pt x="216" y="815" on="1"/>
        <pt x="301" y="815" on="1"/>
        <pt x="301" y="735" on="1"/>
      </contour>
      <contour>
        <pt x="16" y="735" on="1"/>
        <pt x="16" y="815" on="1"/>
        <pt x="101" y="815" on="1"/>
        <pt x="101" y="735" on="1"/>
      </contour>
    </TTGlyph>
    <TTGlyph name="Igrave" xMin="38" yMin="0" xMax="272" yMax="841">
      <contour>
        <pt x="170" y="726" on="1"/>
        <pt x="38" y="841" on="1"/>
        <pt x="149" y="841" on="1"/>
        <pt x="253" y="726" on="1"/>
      </contour>
      <contour>
        <pt x="45" y="0" on="1"/>
        <pt x="45" y="73" on="1"/>
        <pt x="115" y="73" on="1"/>
        <pt x="115" y="627" on="1"/>
        <pt x="45" y="627" on="1"/>
        <pt x="45" y="700" on="1"/>
        <pt x="272" y="700" on="1"/>
        <pt x="272" y="627" on="1"/>
        <pt x="202" y="627" on="1"/>
        <pt x="202" y="73" on="1"/>
        <pt x="272" y="73" on="1"/>
        <pt x="272" y="0" on="1"/>
      </contour>
    </TTGlyph>
    <TTGlyph name="J" xMin="35" yMin="-7" xMax="320" yMax="700">
      <contour>
        <pt x="320" y="251" on="1"/>
        <pt x="320" y="170" on="0"/>
        <pt x="300" y="69" on="0"/>
        <pt x="257" y="13" on="0"/>
        <pt x="190" y="-7" on="0"/>
        <pt x="142" y="-7" on="1"/>
        <pt x="133" y="-7" on="0"/>
        <pt x="107" y="-5" on="0"/>
        <pt x="77" y="-2" on="0"/>
        <pt x="47" y="1" on="0"/>
        <pt x="35" y="3" on="1"/>
        <pt x="35" y="77" on="1"/>
        <pt x="46" y="75" on="0"/>
        <pt x="76" y="72" on="0"/>
        <pt x="105" y="69" on="0"/>
        <pt x="130" y="68" on="0"/>
        <pt x="136" y="68" on="1"/>
        <pt x="163" y="68" on="0"/>
        <pt x="200" y="80" on="0"/>
        <pt x="223" y="117" on="0"/>
        <pt x="233" y="187" on="0"/>
        <pt x="233" y="244" on="1"/>
        <pt x="233" y="627" on="1"/>
        <pt x="72" y="627" on="1"/>
        <pt x="72" y="700" on="1"/>
        <pt x="320" y="700" on="1"/>
        <pt x="320" y="251" on="1"/>
      </contour>
    </TTGlyph>
    <TTGlyph name="K" xMin="85" yMin="0" xMax="462" yMax="700">
      <contour>
        <pt x="364" y="0" on="1"/>
        <pt x="208" y="321" on="1"/>
        <pt x="172" y="261" on="1"/>
        <pt x="172" y="0" on="1"/>
        <pt x="85" y="0" on="1"/>
        <pt x="85" y="700" on="1"/>
        <pt x="172" y="700" on="1"/>
        <pt x="172" y="393" on="1"/>
        <pt x="359" y="700" on="1"/>
        <pt x="452" y="700" on="1"/>
        <pt x="262" y="394" on="1"/>
        <pt x="462" y="0" on="1"/>
      </contour>
    </TTGlyph>
    <TTGlyph name="L" xMin="85" yMin="0" xMax="395" yMax="700">
      <contour>
        <pt x="85" y="0" on="1"/>
        <pt x="85" y="700" on="1"/>
        <pt x="172" y="700" on="1"/>
        <pt x="172" y="76" on="1"/>
        <pt x="395" y="76" on="1"/>
        <pt x="395" y="0" on="1"/>
      </contour>
    </TTGlyph>
    <TTGlyph name="Lslash" xMin="25" yMin="0" xMax="395" yMax="700">
      <contour>
        <pt x="85" y="0" on="1"/>
        <pt x="85" y="329" on="1"/>
        <pt x="25" y="300" on="1"/>
        <pt x="25" y="380" on="1"/>
        <pt x="85" y="409" on="1"/>
        <pt x="85" y="700" on="1"/>
        <pt x="172" y="700" on="1"/>
        <pt x="172" y="451" on="1"/>
        <pt x="295" y="510" on="1"/>
        <pt x="295" y="430" on="1"/>
        <pt x="172" y="371" on="1"/>
        <pt x="172" y="76" on="1"/>
        <pt x="395" y="76" on="1"/>
        <pt x="395" y="0" on="1"/>
      </contour>
    </TTGlyph>
    <TTGlyph name="M" xMin="85" yMin="0" xMax="545" yMax="700">
      <contour>
        <pt x="462" y="0" on="1"/>
        <pt x="462" y="628" on="1"/>
        <pt x="355" y="235" on="1"/>
        <pt x="272" y="235" on="1"/>
        <pt x="165" y="628" on="1"/>
        <pt x="165" y="0" on="1"/>
        <pt x="85" y="0" on="1"/>
        <pt x="85" y="700" on="1"/>
        <pt x="226" y="700" on="1"/>
        <pt x="317" y="342" on="1"/>
        <pt x="407" y="700" on="1"/>
        <pt x="545" y="700" on="1"/>
        <pt x="545" y="0" on="1"/>
      </contour>
    </TTGlyph>
    <TTGlyph name="N" xMin="85" yMin="0" xMax="462" yMax="700">
      <contour>
        <pt x="319" y="0" on="1"/>
        <pt x="166" y="626" on="1"/>
        <pt x="166" y="0" on="1"/>
        <pt x="85" y="0" on="1"/>
        <pt x="85" y="700" on="1"/>
        <pt x="227" y="700" on="1"/>
        <pt x="381" y="74" on="1"/>
        <pt x="381" y="700" on="1"/>
        <pt x="462" y="700" on="1"/>
        <pt x="462" y="0" on="1"/>
      </contour>
    </TTGlyph>
    <TTGlyph name="Ntilde" xMin="85" yMin="0" xMax="462" yMax="840">
      <contour>
        <pt x="319" y="0" on="1"/>
        <pt x="166" y="626" on="1"/>
        <pt x="166" y="0" on="1"/>
        <pt x="85" y="0" on="1"/>
        <pt x="85" y="700" on="1"/>
        <pt x="227" y="700" on="1"/>
        <pt x="381" y="74" on="1"/>
        <pt x="381" y="700" on="1"/>
        <pt x="462" y="700" on="1"/>
        <pt x="462" y="0" on="1"/>
      </contour>
      <contour>
        <pt x="132" y="807" on="1"/>
        <pt x="155" y="826" on="0"/>
        <pt x="198" y="840" on="0"/>
        <pt x="218" y="840" on="1"/>
        <pt x="236" y="840" on="0"/>
        <pt x="265" y="828" on="0"/>
        <pt x="291" y="813" on="0"/>
        <pt x="317" y="801" on="0"/>
        <pt x="332" y="801" on="1"/>
        <pt x="358" y="801" on="0"/>
        <pt x="392" y="820" on="0"/>
        <pt x="412" y="837" on="1"/>
        <pt x="412" y="764" on="1"/>
        <pt x="392" y="745" on="0"/>
        <pt x="352" y="731" on="0"/>
        <pt x="326" y="731" on="1"/>
        <pt x="307" y="731" on="0"/>
        <pt x="279" y="743" on="0"/>
        <pt x="254" y="758" on="0"/>
        <pt x="228" y="770" on="0"/>
        <pt x="212" y="770" on="1"/>
        <pt x="186" y="770" on="0"/>
        <pt x="148" y="748" on="0"/>
        <pt x="132" y="734" on="1"/>
      </contour>
    </TTGlyph>
    <TTGlyph name="O" xMin="65" yMin="-7" xMax="483" yMax="707">
      <contour>
        <pt x="394" y="353" on="1"/>
        <pt x="394" y="436" on="0"/>
        <pt x="382" y="544" on="0"/>
        <pt x="354" y="608" on="0"/>
        <pt x="308" y="634" on="0"/>
        <pt x="274" y="634" on="1"/>
        <pt x="240" y="634" on="0"/>
        <pt x="194" y="608" on="0"/>
        <pt x="166" y="544" on="0"/>
        <pt x="154" y="436" on="0"/>
        <pt x="154" y="353" on="1"/>
        <pt x="154" y="272" on="0"/>
        <pt x="166" y="163" on="0"/>
        <pt x="194" y="95" on="0"/>
        <pt x="240" y="66" on="0"/>
        <pt x="274" y="66" on="1"/>
        <pt x="308" y="66" on="0"/>
        <pt x="354" y="95" on="0"/>
        <pt x="382" y="163" on="0"/>
        <pt x="394" y="272" on="0"/>
      </contour>
      <contour>
        <pt x="483" y="358" on="1"/>
        <pt x="483" y="266" on="0"/>
        <pt x="464" y="129" on="0"/>
        <pt x="417" y="38" on="0"/>
        <pt x="336" y="-7" on="0"/>
        <pt x="274" y="-7" on="1"/>
        <pt x="212" y="-7" on="0"/>
        <pt x="131" y="38" on="0"/>
        <pt x="84" y="129" on="0"/>
        <pt x="65" y="266" on="0"/>
        <pt x="65" y="358" on="1"/>
        <pt x="65" y="446" on="0"/>
        <pt x="84" y="577" on="0"/>
        <pt x="131" y="664" on="0"/>
        <pt x="212" y="707" on="0"/>
        <pt x="274" y="707" on="1"/>
        <pt x="336" y="707" on="0"/>
        <pt x="417" y="664" on="0"/>
        <pt x="464" y="577" on="0"/>
        <pt x="483" y="446" on="0"/>
      </contour>
    </TTGlyph>
    <TTGlyph name="OE" xMin="65" yMin="-7" xMax="706" yMax="707">
      <contour>
        <pt x="327" y="0" on="1"/>
        <pt x="315" y="-2" on="0"/>
        <pt x="288" y="-7" on="0"/>
        <pt x="274" y="-7" on="1"/>
        <pt x="212" y="-7" on="0"/>
        <pt x="131" y="38" on="0"/>
        <pt x="84" y="129" on="0"/>
        <pt x="65" y="266" on="0"/>
        <pt x="65" y="358" on="1"/>
        <pt x="65" y="446" on="0"/>
        <pt x="84" y="577" on="0"/>
        <pt x="131" y="664" on="0"/>
        <pt x="212" y="707" on="0"/>
        <pt x="274" y="707" on="1"/>
        <pt x="288" y="707" on="0"/>
        <pt x="315" y="702" on="0"/>
        <pt x="327" y="700" on="1"/>
        <pt x="706" y="700" on="1"/>
        <pt x="706" y="627" on="1"/>
        <pt x="432" y="627" on="1"/>
        <pt x="455" y="589" on="0"/>
        <pt x="473" y="475" on="0"/>
        <pt x="475" y="398" on="1"/>
        <pt x="681" y="398" on="1"/>
        <pt x="681" y="325" on="1"/>
        <pt x="476" y="325" on="1"/>
        <pt x="474" y="239" on="0"/>
        <pt x="454" y="114" on="0"/>
        <pt x="430" y="73" on="1"/>
        <pt x="706" y="73" on="1"/>
        <pt x="706" y="0" on="1"/>
      </contour>
      <contour>
        <pt x="389" y="353" on="1"/>
        <pt x="389" y="436" on="0"/>
        <pt x="378" y="544" on="0"/>
        <pt x="352" y="608" on="0"/>
        <pt x="308" y="634" on="0"/>
        <pt x="274" y="634" on="1"/>
        <pt x="240" y="634" on="0"/>
        <pt x="194" y="608" on="0"/>
        <pt x="166" y="544" on="0"/>
        <pt x="154" y="436" on="0"/>
        <pt x="154" y="353" on="1"/>
        <pt x="154" y="272" on="0"/>
        <pt x="166" y="163" on="0"/>
        <pt x="194" y="95" on="0"/>
        <pt x="240" y="66" on="0"/>
        <pt x="274" y="66" on="1"/>
        <pt x="308" y="66" on="0"/>
        <pt x="352" y="95" on="0"/>
        <pt x="378" y="163" on="0"/>
        <pt x="389" y="272" on="0"/>
      </contour>
    </TTGlyph>
    <TTGlyph name="Oacute" xMin="65" yMin="-7" xMax="483" yMax="841">
      <contour>
        <pt x="206" y="726" on="1"/>
        <pt x="310" y="841" on="1"/>
        <pt x="421" y="841" on="1"/>
        <pt x="289" y="726" on="1"/>
      </contour>
      <contour>
        <pt x="394" y="353" on="1"/>
        <pt x="394" y="436" on="0"/>
        <pt x="382" y="544" on="0"/>
        <pt x="354" y="608" on="0"/>
        <pt x="308" y="634" on="0"/>
        <pt x="274" y="634" on="1"/>
        <pt x="240" y="634" on="0"/>
        <pt x="194" y="608" on="0"/>
        <pt x="166" y="544" on="0"/>
        <pt x="154" y="436" on="0"/>
        <pt x="154" y="353" on="1"/>
        <pt x="154" y="272" on="0"/>
        <pt x="166" y="163" on="0"/>
        <pt x="194" y="95" on="0"/>
        <pt x="240" y="66" on="0"/>
        <pt x="274" y="66" on="1"/>
        <pt x="308" y="66" on="0"/>
        <pt x="354" y="95" on="0"/>
        <pt x="382" y="163" on="0"/>
        <pt x="394" y="272" on="0"/>
      </contour>
      <contour>
        <pt x="483" y="358" on="1"/>
        <pt x="483" y="266" on="0"/>
        <pt x="464" y="129" on="0"/>
        <pt x="417" y="38" on="0"/>
        <pt x="336" y="-7" on="0"/>
        <pt x="274" y="-7" on="1"/>
        <pt x="212" y="-7" on="0"/>
        <pt x="131" y="38" on="0"/>
        <pt x="84" y="129" on="0"/>
        <pt x="65" y="266" on="0"/>
        <pt x="65" y="358" on="1"/>
        <pt x="65" y="446" on="0"/>
        <pt x="84" y="577" on="0"/>
        <pt x="131" y="664" on="0"/>
        <pt x="212" y="707" on="0"/>
        <pt x="274" y="707" on="1"/>
        <pt x="336" y="707" on="0"/>
        <pt x="417" y="664" on="0"/>
        <pt x="464" y="577" on="0"/>
        <pt x="483" y="446" on="0"/>
      </contour>
    </TTGlyph>
    <TTGlyph name="Ocircumflex" xMin="65" yMin="-7" xMax="483" yMax="845">
      <contour>
        <pt x="334" y="730" on="1"/>
        <pt x="274" y="794" on="1"/>
        <pt x="214" y="730" on="1"/>
        <pt x="118" y="730" on="1"/>
        <pt x="228" y="845" on="1"/>
        <pt x="320" y="845" on="1"/>
        <pt x="431" y="730" on="1"/>
      </contour>
      <contour>
        <pt x="394" y="353" on="1"/>
        <pt x="394" y="436" on="0"/>
        <pt x="382" y="544" on="0"/>
        <pt x="354" y="608" on="0"/>
        <pt x="308" y="634" on="0"/>
        <pt x="274" y="634" on="1"/>
        <pt x="240" y="634" on="0"/>
        <pt x="194" y="608" on="0"/>
        <pt x="166" y="544" on="0"/>
        <pt x="154" y="436" on="0"/>
        <pt x="154" y="353" on="1"/>
        <pt x="154" y="272" on="0"/>
        <pt x="166" y="163" on="0"/>
        <pt x="194" y="95" on="0"/>
        <pt x="240" y="66" on="0"/>
        <pt x="274" y="66" on="1"/>
        <pt x="308" y="66" on="0"/>
        <pt x="354" y="95" on="0"/>
        <pt x="382" y="163" on="0"/>
        <pt x="394" y="272" on="0"/>
      </contour>
      <contour>
        <pt x="483" y="358" on="1"/>
        <pt x="483" y="266" on="0"/>
        <pt x="464" y="129" on="0"/>
        <pt x="417" y="38" on="0"/>
        <pt x="336" y="-7" on="0"/>
        <pt x="274" y="-7" on="1"/>
        <pt x="212" y="-7" on="0"/>
        <pt x="131" y="38" on="0"/>
        <pt x="84" y="129" on="0"/>
        <pt x="65" y="266" on="0"/>
        <pt x="65" y="358" on="1"/>
        <pt x="65" y="446" on="0"/>
        <pt x="84" y="577" on="0"/>
        <pt x="131" y="664" on="0"/>
        <pt x="212" y="707" on="0"/>
        <pt x="274" y="707" on="1"/>
        <pt x="336" y="707" on="0"/>
        <pt x="417" y="664" on="0"/>
        <pt x="464" y="577" on="0"/>
        <pt x="483" y="446" on="0"/>
      </contour>
    </TTGlyph>
    <TTGlyph name="Odieresis" xMin="65" yMin="-7" xMax="483" yMax="815">
      <contour>
        <pt x="332" y="735" on="1"/>
        <pt x="332" y="815" on="1"/>
        <pt x="417" y="815" on="1"/>
        <pt x="417" y="735" on="1"/>
      </contour>
      <contour>
        <pt x="132" y="735" on="1"/>
        <pt x="132" y="815" on="1"/>
        <pt x="217" y="815" on="1"/>
        <pt x="217" y="735" on="1"/>
      </contour>
      <contour>
        <pt x="394" y="353" on="1"/>
        <pt x="394" y="436" on="0"/>
        <pt x="382" y="544" on="0"/>
        <pt x="354" y="608" on="0"/>
        <pt x="308" y="634" on="0"/>
        <pt x="274" y="634" on="1"/>
        <pt x="240" y="634" on="0"/>
        <pt x="194" y="608" on="0"/>
        <pt x="166" y="544" on="0"/>
        <pt x="154" y="436" on="0"/>
        <pt x="154" y="353" on="1"/>
        <pt x="154" y="272" on="0"/>
        <pt x="166" y="163" on="0"/>
        <pt x="194" y="95" on="0"/>
        <pt x="240" y="66" on="0"/>
        <pt x="274" y="66" on="1"/>
        <pt x="308" y="66" on="0"/>
        <pt x="354" y="95" on="0"/>
        <pt x="382" y="163" on="0"/>
        <pt x="394" y="272" on="0"/>
      </contour>
      <contour>
        <pt x="483" y="358" on="1"/>
        <pt x="483" y="266" on="0"/>
        <pt x="464" y="129" on="0"/>
        <pt x="417" y="38" on="0"/>
        <pt x="336" y="-7" on="0"/>
        <pt x="274" y="-7" on="1"/>
        <pt x="212" y="-7" on="0"/>
        <pt x="131" y="38" on="0"/>
        <pt x="84" y="129" on="0"/>
        <pt x="65" y="266" on="0"/>
        <pt x="65" y="358" on="1"/>
        <pt x="65" y="446" on="0"/>
        <pt x="84" y="577" on="0"/>
        <pt x="131" y="664" on="0"/>
        <pt x="212" y="707" on="0"/>
        <pt x="274" y="707" on="1"/>
        <pt x="336" y="707" on="0"/>
        <pt x="417" y="664" on="0"/>
        <pt x="464" y="577" on="0"/>
        <pt x="483" y="446" on="0"/>
      </contour>
    </TTGlyph>
    <TTGlyph name="Ograve" xMin="65" yMin="-7" xMax="483" yMax="841">
      <contour>
        <pt x="263" y="726" on="1"/>
        <pt x="131" y="841" on="1"/>
        <pt x="242" y="841" on="1"/>
        <pt x="346" y="726" on="1"/>
      </contour>
      <contour>
        <pt x="394" y="353" on="1"/>
        <pt x="394" y="436" on="0"/>
        <pt x="382" y="544" on="0"/>
        <pt x="354" y="608" on="0"/>
        <pt x="308" y="634" on="0"/>
        <pt x="274" y="634" on="1"/>
        <pt x="240" y="634" on="0"/>
        <pt x="194" y="608" on="0"/>
        <pt x="166" y="544" on="0"/>
        <pt x="154" y="436" on="0"/>
        <pt x="154" y="353" on="1"/>
        <pt x="154" y="272" on="0"/>
        <pt x="166" y="163" on="0"/>
        <pt x="194" y="95" on="0"/>
        <pt x="240" y="66" on="0"/>
        <pt x="274" y="66" on="1"/>
        <pt x="308" y="66" on="0"/>
        <pt x="354" y="95" on="0"/>
        <pt x="382" y="163" on="0"/>
        <pt x="394" y="272" on="0"/>
      </contour>
      <contour>
        <pt x="483" y="358" on="1"/>
        <pt x="483" y="266" on="0"/>
        <pt x="464" y="129" on="0"/>
        <pt x="417" y="38" on="0"/>
        <pt x="336" y="-7" on="0"/>
        <pt x="274" y="-7" on="1"/>
        <pt x="212" y="-7" on="0"/>
        <pt x="131" y="38" on="0"/>
        <pt x="84" y="129" on="0"/>
        <pt x="65" y="266" on="0"/>
        <pt x="65" y="358" on="1"/>
        <pt x="65" y="446" on="0"/>
        <pt x="84" y="577" on="0"/>
        <pt x="131" y="664" on="0"/>
        <pt x="212" y="707" on="0"/>
        <pt x="274" y="707" on="1"/>
        <pt x="336" y="707" on="0"/>
        <pt x="417" y="664" on="0"/>
        <pt x="464" y="577" on="0"/>
        <pt x="483" y="446" on="0"/>
      </contour>
    </TTGlyph>
    <TTGlyph name="Omega" xMin="65" yMin="0" xMax="483" yMax="707">
      <contour>
        <pt x="70" y="0" on="1"/>
        <pt x="70" y="72" on="1"/>
        <pt x="127" y="72" on="1"/>
        <pt x="92" y="110" on="0"/>
        <pt x="65" y="248" on="0"/>
        <pt x="65" y="358" on="1"/>
        <pt x="65" y="446" on="0"/>
        <pt x="84" y="577" on="0"/>
        <pt x="131" y="664" on="0"/>
        <pt x="212" y="707" on="0"/>
        <pt x="274" y="707" on="1"/>
        <pt x="336" y="707" on="0"/>
        <pt x="417" y="664" on="0"/>
        <pt x="464" y="577" on="0"/>
        <pt x="483" y="446" on="0"/>
        <pt x="483" y="358" on="1"/>
        <pt x="483" y="248" on="0"/>
        <pt x="455" y="110" on="0"/>
        <pt x="420" y="72" on="1"/>
        <pt x="480" y="72" on="1"/>
        <pt x="480" y="0" on="1"/>
        <pt x="317" y="0" on="1"/>
        <pt x="317" y="75" on="1"/>
        <pt x="338" y="84" on="0"/>
        <pt x="368" y="123" on="0"/>
        <pt x="386" y="190" on="0"/>
        <pt x="394" y="287" on="0"/>
        <pt x="394" y="353" on="1"/>
        <pt x="394" y="436" on="0"/>
        <pt x="382" y="544" on="0"/>
        <pt x="354" y="608" on="0"/>
        <pt x="308" y="634" on="0"/>
        <pt x="274" y="634" on="1"/>
        <pt x="240" y="634" on="0"/>
        <pt x="194" y="608" on="0"/>
        <pt x="166" y="544" on="0"/>
        <pt x="154" y="436" on="0"/>
        <pt x="154" y="353" on="1"/>
        <pt x="154" y="286" on="0"/>
        <pt x="162" y="188" on="0"/>
        <pt x="181" y="121" on="0"/>
        <pt x="211" y="82" on="0"/>
        <pt x="233" y="74" on="1"/>
        <pt x="233" y="0" on="1"/>
      </contour>
    </TTGlyph>
    <TTGlyph name="Oslash" xMin="65" yMin="-91" xMax="483" yMax="791">
      <contour>
        <pt x="483" y="358" on="1"/>
        <pt x="483" y="266" on="0"/>
        <pt x="464" y="129" on="0"/>
        <pt x="417" y="38" on="0"/>
        <pt x="336" y="-7" on="0"/>
        <pt x="274" y="-7" on="1"/>
        <pt x="255" y="-7" on="0"/>
        <pt x="223" y="-3" on="0"/>
        <pt x="208" y="0" on="1"/>
        <pt x="181" y="-91" on="1"/>
        <pt x="105" y="-91" on="1"/>
        <pt x="143" y="36" on="1"/>
        <pt x="98" y="78" on="0"/>
        <pt x="65" y="237" on="0"/>
        <pt x="65" y="358" on="1"/>
        <pt x="65" y="446" on="0"/>
        <pt x="84" y="577" on="0"/>
        <pt x="131" y="664" on="0"/>
        <pt x="212" y="707" on="0"/>
        <pt x="274" y="707" on="1"/>
        <pt x="293" y="707" on="0"/>
        <pt x="326" y="704" on="0"/>
        <pt x="341" y="699" on="1"/>
        <pt x="369" y="791" on="1"/>
        <pt x="445" y="791" on="1"/>
        <pt x="407" y="664" on="1"/>
        <pt x="450" y="624" on="0"/>
        <pt x="483" y="473" on="0"/>
      </contour>
      <contour>
        <pt x="154" y="353" on="1"/>
        <pt x="154" y="280" on="0"/>
        <pt x="164" y="177" on="0"/>
        <pt x="175" y="143" on="1"/>
        <pt x="319" y="626" on="1"/>
        <pt x="298" y="634" on="0"/>
        <pt x="274" y="634" on="1"/>
        <pt x="240" y="634" on="0"/>
        <pt x="194" y="608" on="0"/>
        <pt x="166" y="544" on="0"/>
        <pt x="154" y="436" on="0"/>
      </contour>
      <contour>
        <pt x="394" y="353" on="1"/>
        <pt x="394" y="493" on="0"/>
        <pt x="375" y="556" on="1"/>
        <pt x="230" y="73" on="1"/>
        <pt x="248" y="66" on="0"/>
        <pt x="274" y="66" on="1"/>
        <pt x="308" y="66" on="0"/>
        <pt x="354" y="95" on="0"/>
        <pt x="382" y="163" on="0"/>
        <pt x="394" y="272" on="0"/>
      </contour>
    </TTGlyph>
    <TTGlyph name="Otilde" xMin="65" yMin="-7" xMax="483" yMax="840">
      <contour>
        <pt x="394" y="353" on="1"/>
        <pt x="394" y="436" on="0"/>
        <pt x="382" y="544" on="0"/>
        <pt x="354" y="608" on="0"/>
        <pt x="308" y="634" on="0"/>
        <pt x="274" y="634" on="1"/>
        <pt x="240" y="634" on="0"/>
        <pt x="194" y="608" on="0"/>
        <pt x="166" y="544" on="0"/>
        <pt x="154" y="436" on="0"/>
        <pt x="154" y="353" on="1"/>
        <pt x="154" y="272" on="0"/>
        <pt x="166" y="163" on="0"/>
        <pt x="194" y="95" on="0"/>
        <pt x="240" y="66" on="0"/>
        <pt x="274" y="66" on="1"/>
        <pt x="308" y="66" on="0"/>
        <pt x="354" y="95" on="0"/>
        <pt x="382" y="163" on="0"/>
        <pt x="394" y="272" on="0"/>
      </contour>
      <contour>
        <pt x="483" y="358" on="1"/>
        <pt x="483" y="266" on="0"/>
        <pt x="464" y="129" on="0"/>
        <pt x="417" y="38" on="0"/>
        <pt x="336" y="-7" on="0"/>
        <pt x="274" y="-7" on="1"/>
        <pt x="212" y="-7" on="0"/>
        <pt x="131" y="38" on="0"/>
        <pt x="84" y="129" on="0"/>
        <pt x="65" y="266" on="0"/>
        <pt x="65" y="358" on="1"/>
        <pt x="65" y="446" on="0"/>
        <pt x="84" y="577" on="0"/>
        <pt x="131" y="664" on="0"/>
        <pt x="212" y="707" on="0"/>
        <pt x="274" y="707" on="1"/>
        <pt x="336" y="707" on="0"/>
        <pt x="417" y="664" on="0"/>
        <pt x="464" y="577" on="0"/>
        <pt x="483" y="446" on="0"/>
      </contour>
      <contour>
        <pt x="138" y="807" on="1"/>
        <pt x="161" y="826" on="0"/>
        <pt x="204" y="840" on="0"/>
        <pt x="224" y="840" on="1"/>
        <pt x="242" y="840" on="0"/>
        <pt x="271" y="828" on="0"/>
        <pt x="297" y="813" on="0"/>
        <pt x="323" y="801" on="0"/>
        <pt x="338" y="801" on="1"/>
        <pt x="364" y="801" on="0"/>
        <pt x="398" y="820" on="0"/>
        <pt x="418" y="837" on="1"/>
        <pt x="418" y="764" on="1"/>
        <pt x="398" y="745" on="0"/>
        <pt x="358" y="731" on="0"/>
        <pt x="332" y="731" on="1"/>
        <pt x="313" y="731" on="0"/>
        <pt x="285" y="743" on="0"/>
        <pt x="260" y="758" on="0"/>
        <pt x="234" y="770" on="0"/>
        <pt x="218" y="770" on="1"/>
        <pt x="192" y="770" on="0"/>
        <pt x="154" y="748" on="0"/>
        <pt x="138" y="734" on="1"/>
      </contour>
    </TTGlyph>
    <TTGlyph name="P" xMin="85" yMin="0" xMax="450" yMax="707">
      <contour>
        <pt x="361" y="483" on="1"/>
        <pt x="361" y="558" on="0"/>
        <pt x="320" y="635" on="0"/>
        <pt x="266" y="635" on="1"/>
        <pt x="224" y="635" on="0"/>
        <pt x="198" y="632" on="1"/>
        <pt x="183" y="630" on="0"/>
        <pt x="172" y="629" on="1"/>
        <pt x="172" y="337" on="1"/>
        <pt x="266" y="337" on="1"/>
        <pt x="287" y="337" on="0"/>
        <pt x="322" y="352" on="0"/>
        <pt x="347" y="386" on="0"/>
        <pt x="361" y="442" on="0"/>
      </contour>
      <contour>
        <pt x="450" y="490" on="1"/>
        <pt x="450" y="433" on="0"/>
        <pt x="429" y="348" on="0"/>
        <pt x="383" y="292" on="0"/>
        <pt x="309" y="264" on="0"/>
        <pt x="256" y="264" on="1"/>
        <pt x="172" y="264" on="1"/>
        <pt x="172" y="0" on="1"/>
        <pt x="85" y="0" on="1"/>
        <pt x="85" y="700" on="1"/>
        <pt x="110" y="702" on="0"/>
        <pt x="138" y="704" on="1"/>
        <pt x="162" y="706" on="0"/>
        <pt x="223" y="707" on="0"/>
        <pt x="254" y="707" on="1"/>
        <pt x="311" y="707" on="0"/>
        <pt x="387" y="674" on="0"/>
        <pt x="432" y="615" on="0"/>
        <pt x="450" y="536" on="0"/>
      </contour>
    </TTGlyph>
    <TTGlyph name="Q" xMin="65" yMin="-84" xMax="503" yMax="707">
      <contour>
        <pt x="274" y="-7" on="1"/>
        <pt x="212" y="-7" on="0"/>
        <pt x="131" y="38" on="0"/>
        <pt x="84" y="129" on="0"/>
        <pt x="65" y="266" on="0"/>
        <pt x="65" y="358" on="1"/>
        <pt x="65" y="446" on="0"/>
        <pt x="84" y="577" on="0"/>
        <pt x="131" y="664" on="0"/>
        <pt x="212" y="707" on="0"/>
        <pt x="274" y="707" on="1"/>
        <pt x="336" y="707" on="0"/>
        <pt x="417" y="664" on="0"/>
        <pt x="464" y="577" on="0"/>
        <pt x="483" y="446" on="0"/>
        <pt x="483" y="358" on="1"/>
        <pt x="483" y="232" on="0"/>
        <pt x="441" y="61" on="0"/>
        <pt x="384" y="23" on="1"/>
        <pt x="503" y="0" on="1"/>
        <pt x="503" y="-84" on="1"/>
      </contour>
      <contour>
        <pt x="394" y="353" on="1"/>
        <pt x="394" y="436" on="0"/>
        <pt x="382" y="544" on="0"/>
        <pt x="354" y="608" on="0"/>
        <pt x="308" y="634" on="0"/>
        <pt x="274" y="634" on="1"/>
        <pt x="240" y="634" on="0"/>
        <pt x="194" y="608" on="0"/>
        <pt x="166" y="544" on="0"/>
        <pt x="154" y="436" on="0"/>
        <pt x="154" y="353" on="1"/>
        <pt x="154" y="272" on="0"/>
        <pt x="166" y="163" on="0"/>
        <pt x="194" y="95" on="0"/>
        <pt x="240" y="66" on="0"/>
        <pt x="274" y="66" on="1"/>
        <pt x="308" y="66" on="0"/>
        <pt x="354" y="95" on="0"/>
        <pt x="382" y="163" on="0"/>
        <pt x="394" y="272" on="0"/>
      </contour>
    </TTGlyph>
    <TTGlyph name="R" xMin="85" yMin="0" xMax="485" yMax="707">
      <contour>
        <pt x="448" y="503" on="1"/>
        <pt x="448" y="425" on="0"/>
        <pt x="402" y="325" on="0"/>
        <pt x="348" y="304" on="1"/>
        <pt x="485" y="0" on="1"/>
        <pt x="389" y="0" on="1"/>
        <pt x="261" y="290" on="1"/>
        <pt x="172" y="290" on="1"/>
        <pt x="172" y="0" on="1"/>
        <pt x="85" y="0" on="1"/>
        <pt x="85" y="700" on="1"/>
        <pt x="110" y="702" on="0"/>
        <pt x="138" y="704" on="1"/>
        <pt x="162" y="706" on="0"/>
        <pt x="223" y="707" on="0"/>
        <pt x="254" y="707" on="1"/>
        <pt x="311" y="707" on="0"/>
        <pt x="386" y="678" on="0"/>
        <pt x="430" y="624" on="0"/>
        <pt x="448" y="549" on="0"/>
      </contour>
      <contour>
        <pt x="359" y="496" on="1"/>
        <pt x="359" y="569" on="0"/>
        <pt x="319" y="635" on="0"/>
        <pt x="266" y="635" on="1"/>
        <pt x="224" y="635" on="0"/>
        <pt x="198" y="632" on="1"/>
        <pt x="183" y="630" on="0"/>
        <pt x="172" y="629" on="1"/>
        <pt x="172" y="363" on="1"/>
        <pt x="266" y="363" on="1"/>
        <pt x="287" y="363" on="0"/>
        <pt x="321" y="374" on="0"/>
        <pt x="346" y="403" on="0"/>
        <pt x="359" y="455" on="0"/>
      </contour>
    </TTGlyph>
    <TTGlyph name="S" xMin="58" yMin="-7" xMax="381" yMax="707">
      <contour>
        <pt x="381" y="199" on="1"/>
        <pt x="381" y="137" on="0"/>
        <pt x="353" y="57" on="0"/>
        <pt x="301" y="11" on="0"/>
        <pt x="228" y="-7" on="0"/>
        <pt x="183" y="-7" on="1"/>
        <pt x="159" y="-7" on="0"/>
        <pt x="93" y="1" on="0"/>
        <pt x="67" y="8" on="1"/>
        <pt x="67" y="81" on="1"/>
        <pt x="90" y="75" on="0"/>
        <pt x="152" y="66" on="0"/>
        <pt x="193" y="66" on="1"/>
        <pt x="245" y="66" on="0"/>
        <pt x="292" y="126" on="0"/>
        <pt x="292" y="189" on="1"/>
        <pt x="292" y="225" on="0"/>
        <pt x="282" y="274" on="0"/>
        <pt x="262" y="305" on="0"/>
        <pt x="231" y="321" on="0"/>
        <pt x="211" y="325" on="1"/>
        <pt x="169" y="334" on="0"/>
        <pt x="111" y="362" on="0"/>
        <pt x="75" y="406" on="0"/>
        <pt x="58" y="470" on="0"/>
        <pt x="58" y="514" on="1"/>
        <pt x="58" y="568" on="0"/>
        <pt x="87" y="641" on="0"/>
        <pt x="140" y="687" on="0"/>
        <pt x="212" y="707" on="0"/>
        <pt x="255" y="707" on="1"/>
        <pt x="280" y="707" on="0"/>
        <pt x="339" y="698" on="0"/>
        <pt x="361" y="692" on="1"/>
        <pt x="361" y="619" on="1"/>
        <pt x="335" y="625" on="0"/>
        <pt x="271" y="634" on="0"/>
        <pt x="245" y="634" on="1"/>
        <pt x="226" y="634" on="0"/>
        <pt x="191" y="622" on="0"/>
        <pt x="164" y="596" on="0"/>
        <pt x="147" y="555" on="0"/>
        <pt x="147" y="525" on="1"/>
        <pt x="147" y="495" on="0"/>
        <pt x="153" y="454" on="0"/>
        <pt x="170" y="428" on="0"/>
        <pt x="200" y="413" on="0"/>
        <pt x="224" y="408" on="1"/>
        <pt x="260" y="401" on="0"/>
        <pt x="318" y="375" on="0"/>
        <pt x="359" y="328" on="0"/>
        <pt x="381" y="254" on="0"/>
      </contour>
    </TTGlyph>
    <TTGlyph name="Scaron" xMin="58" yMin="-7" xMax="392" yMax="845">
      <contour>
        <pt x="176" y="845" on="1"/>
        <pt x="236" y="778" on="1"/>
        <pt x="296" y="845" on="1"/>
        <pt x="392" y="845" on="1"/>
        <pt x="280" y="730" on="1"/>
        <pt x="192" y="730" on="1"/>
        <pt x="79" y="845" on="1"/>
      </contour>
      <contour>
        <pt x="381" y="199" on="1"/>
        <pt x="381" y="137" on="0"/>
        <pt x="353" y="57" on="0"/>
        <pt x="301" y="11" on="0"/>
        <pt x="228" y="-7" on="0"/>
        <pt x="183" y="-7" on="1"/>
        <pt x="159" y="-7" on="0"/>
        <pt x="93" y="1" on="0"/>
        <pt x="67" y="8" on="1"/>
        <pt x="67" y="81" on="1"/>
        <pt x="90" y="75" on="0"/>
        <pt x="152" y="66" on="0"/>
        <pt x="193" y="66" on="1"/>
        <pt x="245" y="66" on="0"/>
        <pt x="292" y="126" on="0"/>
        <pt x="292" y="189" on="1"/>
        <pt x="292" y="225" on="0"/>
        <pt x="282" y="274" on="0"/>
        <pt x="262" y="305" on="0"/>
        <pt x="231" y="321" on="0"/>
        <pt x="211" y="325" on="1"/>
        <pt x="169" y="334" on="0"/>
        <pt x="111" y="362" on="0"/>
        <pt x="75" y="406" on="0"/>
        <pt x="58" y="470" on="0"/>
        <pt x="58" y="514" on="1"/>
        <pt x="58" y="568" on="0"/>
        <pt x="87" y="641" on="0"/>
        <pt x="140" y="687" on="0"/>
        <pt x="212" y="707" on="0"/>
        <pt x="255" y="707" on="1"/>
        <pt x="280" y="707" on="0"/>
        <pt x="339" y="698" on="0"/>
        <pt x="361" y="692" on="1"/>
        <pt x="361" y="619" on="1"/>
        <pt x="335" y="625" on="0"/>
        <pt x="271" y="634" on="0"/>
        <pt x="245" y="634" on="1"/>
        <pt x="226" y="634" on="0"/>
        <pt x="191" y="622" on="0"/>
        <pt x="164" y="596" on="0"/>
        <pt x="147" y="555" on="0"/>
        <pt x="147" y="525" on="1"/>
        <pt x="147" y="495" on="0"/>
        <pt x="153" y="454" on="0"/>
        <pt x="170" y="428" on="0"/>
        <pt x="200" y="413" on="0"/>
        <pt x="224" y="408" on="1"/>
        <pt x="260" y="401" on="0"/>
        <pt x="318" y="375" on="0"/>
        <pt x="359" y="328" on="0"/>
        <pt x="381" y="254" on="0"/>
      </contour>
    </TTGlyph>
    <TTGlyph name="T" xMin="15" yMin="0" xMax="410" yMax="700">
      <contour>
        <pt x="256" y="624" on="1"/>
        <pt x="256" y="0" on="1"/>
        <pt x="169" y="0" on="1"/>
        <pt x="169" y="624" on="1"/>
        <pt x="15" y="624" on="1"/>
        <pt x="15" y="700" on="1"/>
        <pt x="410" y="700" on="1"/>
        <pt x="410" y="624" on="1"/>
      </contour>
    </TTGlyph>
    <TTGlyph name="Thorn" xMin="85" yMin="0" xMax="450" yMax="700">
      <contour>
        <pt x="450" y="362" on="1"/>
        <pt x="450" y="305" on="0"/>
        <pt x="429" y="222" on="0"/>
        <pt x="383" y="167" on="0"/>
        <pt x="309" y="141" on="0"/>
        <pt x="256" y="141" on="1"/>
        <pt x="172" y="141" on="1"/>
        <pt x="172" y="0" on="1"/>
        <pt x="85" y="0" on="1"/>
        <pt x="85" y="700" on="1"/>
        <pt x="172" y="700" on="1"/>
        <pt x="172" y="570" on="1"/>
        <pt x="191" y="571" on="0"/>
        <pt x="231" y="574" on="0"/>
        <pt x="254" y="574" on="1"/>
        <pt x="311" y="574" on="0"/>
        <pt x="387" y="542" on="0"/>
        <pt x="432" y="486" on="0"/>
        <pt x="450" y="408" on="0"/>
      </contour>
      <contour>
        <pt x="361" y="355" on="1"/>
        <pt x="361" y="430" on="0"/>
        <pt x="320" y="502" on="0"/>
        <pt x="266" y="502" on="1"/>
        <pt x="224" y="502" on="0"/>
        <pt x="198" y="499" on="1"/>
        <pt x="183" y="497" on="0"/>
        <pt x="172" y="496" on="1"/>
        <pt x="172" y="214" on="1"/>
        <pt x="266" y="214" on="1"/>
        <pt x="287" y="214" on="0"/>
        <pt x="322" y="227" on="0"/>
        <pt x="347" y="260" on="0"/>
        <pt x="361" y="314" on="0"/>
      </contour>
    </TTGlyph>
    <TTGlyph name="U" xMin="80" yMin="-7" xMax="455" yMax="700">
      <contour>
        <pt x="455" y="185" on="1"/>
        <pt x="455" y="84" on="0"/>
        <pt x="354" y="-7" on="0"/>
        <pt x="268" y="-7" on="1"/>
        <pt x="182" y="-7" on="0"/>
        <pt x="80" y="84" on="0"/>
        <pt x="80" y="185" on="1"/>
        <pt x="80" y="700" on="1"/>
        <pt x="167" y="700" on="1"/>
        <pt x="167" y="166" on="1"/>
        <pt x="167" y="113" on="0"/>
        <pt x="223" y="66" on="0"/>
        <pt x="268" y="66" on="1"/>
        <pt x="313" y="66" on="0"/>
        <pt x="368" y="113" on="0"/>
        <pt x="368" y="166" on="1"/>
        <pt x="368" y="700" on="1"/>
        <pt x="455" y="700" on="1"/>
      </contour>
    </TTGlyph>
    <TTGlyph name="Uacute" xMin="80" yMin="-7" xMax="455" yMax="841">
      <contour>
        <pt x="206" y="726" on="1"/>
        <pt x="310" y="841" on="1"/>
        <pt x="421" y="841" on="1"/>
        <pt x="289" y="726" on="1"/>
      </contour>
      <contour>
        <pt x="455" y="185" on="1"/>
        <pt x="455" y="84" on="0"/>
        <pt x="354" y="-7" on="0"/>
        <pt x="268" y="-7" on="1"/>
        <pt x="182" y="-7" on="0"/>
        <pt x="80" y="84" on="0"/>
        <pt x="80" y="185" on="1"/>
        <pt x="80" y="700" on="1"/>
        <pt x="167" y="700" on="1"/>
        <pt x="167" y="166" on="1"/>
        <pt x="167" y="113" on="0"/>
        <pt x="223" y="66" on="0"/>
        <pt x="268" y="66" on="1"/>
        <pt x="313" y="66" on="0"/>
        <pt x="368" y="113" on="0"/>
        <pt x="368" y="166" on="1"/>
        <pt x="368" y="700" on="1"/>
        <pt x="455" y="700" on="1"/>
      </contour>
    </TTGlyph>
    <TTGlyph name="Ucircumflex" xMin="80" yMin="-7" xMax="455" yMax="845">
      <contour>
        <pt x="329" y="730" on="1"/>
        <pt x="269" y="794" on="1"/>
        <pt x="209" y="730" on="1"/>
        <pt x="113" y="730" on="1"/>
        <pt x="223" y="845" on="1"/>
        <pt x="315" y="845" on="1"/>
        <pt x="426" y="730" on="1"/>
      </contour>
      <contour>
        <pt x="455" y="185" on="1"/>
        <pt x="455" y="84" on="0"/>
        <pt x="354" y="-7" on="0"/>
        <pt x="268" y="-7" on="1"/>
        <pt x="182" y="-7" on="0"/>
        <pt x="80" y="84" on="0"/>
        <pt x="80" y="185" on="1"/>
        <pt x="80" y="700" on="1"/>
        <pt x="167" y="700" on="1"/>
        <pt x="167" y="166" on="1"/>
        <pt x="167" y="113" on="0"/>
        <pt x="223" y="66" on="0"/>
        <pt x="268" y="66" on="1"/>
        <pt x="313" y="66" on="0"/>
        <pt x="368" y="113" on="0"/>
        <pt x="368" y="166" on="1"/>
        <pt x="368" y="700" on="1"/>
        <pt x="455" y="700" on="1"/>
      </contour>
    </TTGlyph>
    <TTGlyph name="Udieresis" xMin="80" yMin="-7" xMax="455" yMax="815">
      <contour>
        <pt x="327" y="735" on="1"/>
        <pt x="327" y="815" on="1"/>
        <pt x="412" y="815" on="1"/>
        <pt x="412" y="735" on="1"/>
      </contour>
      <contour>
        <pt x="127" y="735" on="1"/>
        <pt x="127" y="815" on="1"/>
        <pt x="212" y="815" on="1"/>
        <pt x="212" y="735" on="1"/>
      </contour>
      <contour>
        <pt x="455" y="185" on="1"/>
        <pt x="455" y="84" on="0"/>
        <pt x="354" y="-7" on="0"/>
        <pt x="268" y="-7" on="1"/>
        <pt x="182" y="-7" on="0"/>
        <pt x="80" y="84" on="0"/>
        <pt x="80" y="185" on="1"/>
        <pt x="80" y="700" on="1"/>
        <pt x="167" y="700" on="1"/>
        <pt x="167" y="166" on="1"/>
        <pt x="167" y="113" on="0"/>
        <pt x="223" y="66" on="0"/>
        <pt x="268" y="66" on="1"/>
        <pt x="313" y="66" on="0"/>
        <pt x="368" y="113" on="0"/>
        <pt x="368" y="166" on="1"/>
        <pt x="368" y="700" on="1"/>
        <pt x="455" y="700" on="1"/>
      </contour>
    </TTGlyph>
    <TTGlyph name="Ugrave" xMin="80" yMin="-7" xMax="455" yMax="841">
      <contour>
        <pt x="253" y="726" on="1"/>
        <pt x="121" y="841" on="1"/>
        <pt x="232" y="841" on="1"/>
        <pt x="336" y="726" on="1"/>
      </contour>
      <contour>
        <pt x="455" y="185" on="1"/>
        <pt x="455" y="84" on="0"/>
        <pt x="354" y="-7" on="0"/>
        <pt x="268" y="-7" on="1"/>
        <pt x="182" y="-7" on="0"/>
        <pt x="80" y="84" on="0"/>
        <pt x="80" y="185" on="1"/>
        <pt x="80" y="700" on="1"/>
        <pt x="167" y="700" on="1"/>
        <pt x="167" y="166" on="1"/>
        <pt x="167" y="113" on="0"/>
        <pt x="223" y="66" on="0"/>
        <pt x="268" y="66" on="1"/>
        <pt x="313" y="66" on="0"/>
        <pt x="368" y="113" on="0"/>
        <pt x="368" y="166" on="1"/>
        <pt x="368" y="700" on="1"/>
        <pt x="455" y="700" on="1"/>
      </contour>
    </TTGlyph>
    <TTGlyph name="V" xMin="35" yMin="0" xMax="438" yMax="700">
      <contour>
        <pt x="291" y="0" on="1"/>
        <pt x="172" y="0" on="1"/>
        <pt x="35" y="700" on="1"/>
        <pt x="123" y="700" on="1"/>
        <pt x="233" y="88" on="1"/>
        <pt x="352" y="700" on="1"/>
        <pt x="438" y="700" on="1"/>
      </contour>
    </TTGlyph>
    <TTGlyph name="W" xMin="65" yMin="0" xMax="539" yMax="700">
      <contour>
        <pt x="505" y="0" on="1"/>
        <pt x="369" y="0" on="1"/>
        <pt x="302" y="304" on="1"/>
        <pt x="229" y="0" on="1"/>
        <pt x="99" y="0" on="1"/>
        <pt x="65" y="700" on="1"/>
        <pt x="142" y="700" on="1"/>
        <pt x="172" y="55" on="1"/>
        <pt x="262" y="405" on="1"/>
        <pt x="344" y="405" on="1"/>
        <pt x="435" y="55" on="1"/>
        <pt x="466" y="700" on="1"/>
        <pt x="539" y="700" on="1"/>
      </contour>
    </TTGlyph>
    <TTGlyph name="X" xMin="35" yMin="0" xMax="461" yMax="700">
      <contour>
        <pt x="363" y="0" on="1"/>
        <pt x="249" y="268" on="1"/>
        <pt x="129" y="0" on="1"/>
        <pt x="35" y="0" on="1"/>
        <pt x="205" y="362" on="1"/>
        <pt x="50" y="700" on="1"/>
        <pt x="145" y="700" on="1"/>
        <pt x="250" y="459" on="1"/>
        <pt x="358" y="700" on="1"/>
        <pt x="451" y="700" on="1"/>
        <pt x="293" y="363" on="1"/>
        <pt x="461" y="0" on="1"/>
      </contour>
    </TTGlyph>
    <TTGlyph name="Y" xMin="20" yMin="0" xMax="471" yMax="700">
      <contour>
        <pt x="289" y="325" on="1"/>
        <pt x="289" y="0" on="1"/>
        <pt x="199" y="0" on="1"/>
        <pt x="199" y="325" on="1"/>
        <pt x="20" y="700" on="1"/>
        <pt x="116" y="700" on="1"/>
        <pt x="248" y="409" on="1"/>
        <pt x="380" y="700" on="1"/>
        <pt x="471" y="700" on="1"/>
      </contour>
    </TTGlyph>
    <TTGlyph name="Yacute" xMin="20" yMin="0" xMax="471" yMax="841">
      <contour>
        <pt x="186" y="726" on="1"/>
        <pt x="290" y="841" on="1"/>
        <pt x="401" y="841" on="1"/>
        <pt x="269" y="726" on="1"/>
      </contour>
      <contour>
        <pt x="289" y="325" on="1"/>
        <pt x="289" y="0" on="1"/>
        <pt x="199" y="0" on="1"/>
        <pt x="199" y="325" on="1"/>
        <pt x="20" y="700" on="1"/>
        <pt x="116" y="700" on="1"/>
        <pt x="248" y="409" on="1"/>
        <pt x="380" y="700" on="1"/>
        <pt x="471" y="700" on="1"/>
      </contour>
    </TTGlyph>
    <TTGlyph name="Ydieresis" xMin="20" yMin="0" xMax="471" yMax="815">
      <contour>
        <pt x="289" y="325" on="1"/>
        <pt x="289" y="0" on="1"/>
        <pt x="199" y="0" on="1"/>
        <pt x="199" y="325" on="1"/>
        <pt x="20" y="700" on="1"/>
        <pt x="116" y="700" on="1"/>
        <pt x="248" y="409" on="1"/>
        <pt x="380" y="700" on="1"/>
        <pt x="471" y="700" on="1"/>
      </contour>
      <contour>
        <pt x="307" y="735" on="1"/>
        <pt x="307" y="815" on="1"/>
        <pt x="392" y="815" on="1"/>
        <pt x="392" y="735" on="1"/>
      </contour>
      <contour>
        <pt x="107" y="735" on="1"/>
        <pt x="107" y="815" on="1"/>
        <pt x="192" y="815" on="1"/>
        <pt x="192" y="735" on="1"/>
      </contour>
    </TTGlyph>
    <TTGlyph name="Z" xMin="45" yMin="0" xMax="391" yMax="700">
      <contour>
        <pt x="134" y="74" on="1"/>
        <pt x="381" y="74" on="1"/>
        <pt x="381" y="0" on="1"/>
        <pt x="45" y="0" on="1"/>
        <pt x="45" y="88" on="1"/>
        <pt x="303" y="626" on="1"/>
        <pt x="68" y="626" on="1"/>
        <pt x="68" y="700" on="1"/>
        <pt x="391" y="700" on="1"/>
        <pt x="391" y="612" on="1"/>
      </contour>
    </TTGlyph>
    <TTGlyph name="Zcaron" xMin="45" yMin="0" xMax="391" yMax="845">
      <contour>
        <pt x="169" y="845" on="1"/>
        <pt x="229" y="778" on="1"/>
        <pt x="289" y="845" on="1"/>
        <pt x="385" y="845" on="1"/>
        <pt x="273" y="730" on="1"/>
        <pt x="185" y="730" on="1"/>
        <pt x="72" y="845" on="1"/>
      </contour>
      <contour>
        <pt x="134" y="74" on="1"/>
        <pt x="381" y="74" on="1"/>
        <pt x="381" y="0" on="1"/>
        <pt x="45" y="0" on="1"/>
        <pt x="45" y="88" on="1"/>
        <pt x="303" y="626" on="1"/>
        <pt x="68" y="626" on="1"/>
        <pt x="68" y="700" on="1"/>
        <pt x="391" y="700" on="1"/>
        <pt x="391" y="612" on="1"/>
      </contour>
    </TTGlyph>
    <TTGlyph name="a" xMin="50" yMin="-7" xMax="436" yMax="507">
      <contour>
        <pt x="406" y="0" on="1"/>
        <pt x="399" y="0" on="0"/>
        <pt x="378" y="4" on="0"/>
        <pt x="356" y="14" on="0"/>
        <pt x="337" y="34" on="0"/>
        <pt x="331" y="49" on="1"/>
        <pt x="312" y="22" on="0"/>
        <pt x="250" y="-7" on="0"/>
        <pt x="199" y="-7" on="1"/>
        <pt x="172" y="-7" on="0"/>
        <pt x="118" y="4" on="0"/>
        <pt x="76" y="37" on="0"/>
        <pt x="50" y="95" on="0"/>
        <pt x="50" y="141" on="1"/>
        <pt x="50" y="222" on="0"/>
        <pt x="144" y="308" on="0"/>
        <pt x="228" y="308" on="1"/>
        <pt x="307" y="308" on="1"/>
        <pt x="307" y="362" on="1"/>
        <pt x="307" y="394" on="0"/>
        <pt x="270" y="435" on="0"/>
        <pt x="232" y="435" on="1"/>
        <pt x="189" y="435" on="0"/>
        <pt x="125" y="425" on="0"/>
        <pt x="87" y="414" on="1"/>
        <pt x="87" y="487" on="1"/>
        <pt x="115" y="495" on="0"/>
        <pt x="185" y="507" on="0"/>
        <pt x="222" y="507" on="1"/>
        <pt x="271" y="507" on="0"/>
        <pt x="336" y="488" on="0"/>
        <pt x="375" y="447" on="0"/>
        <pt x="392" y="385" on="0"/>
        <pt x="392" y="342" on="1"/>
        <pt x="392" y="102" on="1"/>
        <pt x="392" y="87" on="0"/>
        <pt x="412" y="70" on="0"/>
        <pt x="436" y="70" on="1"/>
        <pt x="436" y="0" on="1"/>
      </contour>
      <contour>
        <pt x="219" y="65" on="1"/>
        <pt x="245" y="65" on="0"/>
        <pt x="279" y="81" on="0"/>
        <pt x="299" y="104" on="0"/>
        <pt x="307" y="128" on="0"/>
        <pt x="307" y="135" on="1"/>
        <pt x="307" y="240" on="1"/>
        <pt x="223" y="240" on="1"/>
        <pt x="207" y="240" on="0"/>
        <pt x="176" y="230" on="0"/>
        <pt x="152" y="207" on="0"/>
        <pt x="137" y="172" on="0"/>
        <pt x="137" y="147" on="1"/>
        <pt x="137" y="100" on="0"/>
        <pt x="179" y="65" on="0"/>
      </contour>
    </TTGlyph>
    <TTGlyph name="aacute" xMin="50" yMin="-7" xMax="436" yMax="715">
      <contour>
        <pt x="406" y="0" on="1"/>
        <pt x="399" y="0" on="0"/>
        <pt x="378" y="4" on="0"/>
        <pt x="356" y="14" on="0"/>
        <pt x="337" y="34" on="0"/>
        <pt x="331" y="49" on="1"/>
        <pt x="312" y="22" on="0"/>
        <pt x="250" y="-7" on="0"/>
        <pt x="199" y="-7" on="1"/>
        <pt x="172" y="-7" on="0"/>
        <pt x="118" y="4" on="0"/>
        <pt x="76" y="37" on="0"/>
        <pt x="50" y="95" on="0"/>
        <pt x="50" y="141" on="1"/>
        <pt x="50" y="222" on="0"/>
        <pt x="144" y="308" on="0"/>
        <pt x="228" y="308" on="1"/>
        <pt x="307" y="308" on="1"/>
        <pt x="307" y="362" on="1"/>
        <pt x="307" y="394" on="0"/>
        <pt x="270" y="435" on="0"/>
        <pt x="232" y="435" on="1"/>
        <pt x="189" y="435" on="0"/>
        <pt x="125" y="425" on="0"/>
        <pt x="87" y="414" on="1"/>
        <pt x="87" y="487" on="1"/>
        <pt x="115" y="495" on="0"/>
        <pt x="185" y="507" on="0"/>
        <pt x="222" y="507" on="1"/>
        <pt x="271" y="507" on="0"/>
        <pt x="336" y="488" on="0"/>
        <pt x="375" y="447" on="0"/>
        <pt x="392" y="385" on="0"/>
        <pt x="392" y="342" on="1"/>
        <pt x="392" y="102" on="1"/>
        <pt x="392" y="87" on="0"/>
        <pt x="412" y="70" on="0"/>
        <pt x="436" y="70" on="1"/>
        <pt x="436" y="0" on="1"/>
      </contour>
      <contour>
        <pt x="219" y="65" on="1"/>
        <pt x="245" y="65" on="0"/>
        <pt x="279" y="81" on="0"/>
        <pt x="299" y="104" on="0"/>
        <pt x="307" y="128" on="0"/>
        <pt x="307" y="135" on="1"/>
        <pt x="307" y="240" on="1"/>
        <pt x="223" y="240" on="1"/>
        <pt x="207" y="240" on="0"/>
        <pt x="176" y="230" on="0"/>
        <pt x="152" y="207" on="0"/>
        <pt x="137" y="172" on="0"/>
        <pt x="137" y="147" on="1"/>
        <pt x="137" y="100" on="0"/>
        <pt x="179" y="65" on="0"/>
      </contour>
      <contour>
        <pt x="182" y="580" on="1"/>
        <pt x="286" y="715" on="1"/>
        <pt x="395" y="715" on="1"/>
        <pt x="263" y="580" on="1"/>
      </contour>
    </TTGlyph>
    <TTGlyph name="acircumflex" xMin="50" yMin="-7" xMax="436" yMax="715">
      <contour>
        <pt x="406" y="0" on="1"/>
        <pt x="399" y="0" on="0"/>
        <pt x="378" y="4" on="0"/>
        <pt x="356" y="14" on="0"/>
        <pt x="337" y="34" on="0"/>
        <pt x="331" y="49" on="1"/>
        <pt x="312" y="22" on="0"/>
        <pt x="250" y="-7" on="0"/>
        <pt x="199" y="-7" on="1"/>
        <pt x="172" y="-7" on="0"/>
        <pt x="118" y="4" on="0"/>
        <pt x="76" y="37" on="0"/>
        <pt x="50" y="95" on="0"/>
        <pt x="50" y="141" on="1"/>
        <pt x="50" y="222" on="0"/>
        <pt x="144" y="308" on="0"/>
        <pt x="228" y="308" on="1"/>
        <pt x="307" y="308" on="1"/>
        <pt x="307" y="362" on="1"/>
        <pt x="307" y="394" on="0"/>
        <pt x="270" y="435" on="0"/>
        <pt x="232" y="435" on="1"/>
        <pt x="189" y="435" on="0"/>
        <pt x="125" y="425" on="0"/>
        <pt x="87" y="414" on="1"/>
        <pt x="87" y="487" on="1"/>
        <pt x="115" y="495" on="0"/>
        <pt x="185" y="507" on="0"/>
        <pt x="222" y="507" on="1"/>
        <pt x="271" y="507" on="0"/>
        <pt x="336" y="488" on="0"/>
        <pt x="375" y="447" on="0"/>
        <pt x="392" y="385" on="0"/>
        <pt x="392" y="342" on="1"/>
        <pt x="392" y="102" on="1"/>
        <pt x="392" y="87" on="0"/>
        <pt x="412" y="70" on="0"/>
        <pt x="436" y="70" on="1"/>
        <pt x="436" y="0" on="1"/>
      </contour>
      <contour>
        <pt x="219" y="65" on="1"/>
        <pt x="245" y="65" on="0"/>
        <pt x="279" y="81" on="0"/>
        <pt x="299" y="104" on="0"/>
        <pt x="307" y="128" on="0"/>
        <pt x="307" y="135" on="1"/>
        <pt x="307" y="240" on="1"/>
        <pt x="223" y="240" on="1"/>
        <pt x="207" y="240" on="0"/>
        <pt x="176" y="230" on="0"/>
        <pt x="152" y="207" on="0"/>
        <pt x="137" y="172" on="0"/>
        <pt x="137" y="147" on="1"/>
        <pt x="137" y="100" on="0"/>
        <pt x="179" y="65" on="0"/>
      </contour>
      <contour>
        <pt x="305" y="580" on="1"/>
        <pt x="245" y="664" on="1"/>
        <pt x="185" y="580" on="1"/>
        <pt x="89" y="580" on="1"/>
        <pt x="201" y="715" on="1"/>
        <pt x="289" y="715" on="1"/>
        <pt x="402" y="580" on="1"/>
      </contour>
    </TTGlyph>
    <TTGlyph name="acute" xMin="45" yMin="580" xMax="258" yMax="715">
      <contour>
        <pt x="45" y="580" on="1"/>
        <pt x="149" y="715" on="1"/>
        <pt x="258" y="715" on="1"/>
        <pt x="126" y="580" on="1"/>
      </contour>
    </TTGlyph>
    <TTGlyph name="adieresis" xMin="50" yMin="-7" xMax="436" yMax="675">
      <contour>
        <pt x="406" y="0" on="1"/>
        <pt x="399" y="0" on="0"/>
        <pt x="378" y="4" on="0"/>
        <pt x="356" y="14" on="0"/>
        <pt x="337" y="34" on="0"/>
        <pt x="331" y="49" on="1"/>
        <pt x="312" y="22" on="0"/>
        <pt x="250" y="-7" on="0"/>
        <pt x="199" y="-7" on="1"/>
        <pt x="172" y="-7" on="0"/>
        <pt x="118" y="4" on="0"/>
        <pt x="76" y="37" on="0"/>
        <pt x="50" y="95" on="0"/>
        <pt x="50" y="141" on="1"/>
        <pt x="50" y="222" on="0"/>
        <pt x="144" y="308" on="0"/>
        <pt x="228" y="308" on="1"/>
        <pt x="307" y="308" on="1"/>
        <pt x="307" y="362" on="1"/>
        <pt x="307" y="394" on="0"/>
        <pt x="270" y="435" on="0"/>
        <pt x="232" y="435" on="1"/>
        <pt x="189" y="435" on="0"/>
        <pt x="125" y="425" on="0"/>
        <pt x="87" y="414" on="1"/>
        <pt x="87" y="487" on="1"/>
        <pt x="115" y="495" on="0"/>
        <pt x="185" y="507" on="0"/>
        <pt x="222" y="507" on="1"/>
        <pt x="271" y="507" on="0"/>
        <pt x="336" y="488" on="0"/>
        <pt x="375" y="447" on="0"/>
        <pt x="392" y="385" on="0"/>
        <pt x="392" y="342" on="1"/>
        <pt x="392" y="102" on="1"/>
        <pt x="392" y="87" on="0"/>
        <pt x="412" y="70" on="0"/>
        <pt x="436" y="70" on="1"/>
        <pt x="436" y="0" on="1"/>
      </contour>
      <contour>
        <pt x="219" y="65" on="1"/>
        <pt x="245" y="65" on="0"/>
        <pt x="279" y="81" on="0"/>
        <pt x="299" y="104" on="0"/>
        <pt x="307" y="128" on="0"/>
        <pt x="307" y="135" on="1"/>
        <pt x="307" y="240" on="1"/>
        <pt x="223" y="240" on="1"/>
        <pt x="207" y="240" on="0"/>
        <pt x="176" y="230" on="0"/>
        <pt x="152" y="207" on="0"/>
        <pt x="137" y="172" on="0"/>
        <pt x="137" y="147" on="1"/>
        <pt x="137" y="100" on="0"/>
        <pt x="179" y="65" on="0"/>
      </contour>
      <contour>
        <pt x="297" y="595" on="1"/>
        <pt x="297" y="675" on="1"/>
        <pt x="382" y="675" on="1"/>
        <pt x="382" y="595" on="1"/>
      </contour>
      <contour>
        <pt x="97" y="595" on="1"/>
        <pt x="97" y="675" on="1"/>
        <pt x="182" y="675" on="1"/>
        <pt x="182" y="595" on="1"/>
      </contour>
    </TTGlyph>
    <TTGlyph name="ae" xMin="50" yMin="-7" xMax="650" yMax="507">
      <contour>
        <pt x="389" y="230" on="1"/>
        <pt x="389" y="177" on="0"/>
        <pt x="403" y="112" on="0"/>
        <pt x="426" y="77" on="0"/>
        <pt x="458" y="65" on="0"/>
        <pt x="477" y="65" on="1"/>
        <pt x="519" y="65" on="0"/>
        <pt x="589" y="78" on="0"/>
        <pt x="611" y="83" on="1"/>
        <pt x="611" y="10" on="1"/>
        <pt x="587" y="3" on="0"/>
        <pt x="514" y="-7" on="0"/>
        <pt x="487" y="-7" on="1"/>
        <pt x="435" y="-7" on="0"/>
        <pt x="361" y="22" on="0"/>
        <pt x="339" y="65" on="1"/>
        <pt x="321" y="31" on="0"/>
        <pt x="256" y="-7" on="0"/>
        <pt x="199" y="-7" on="1"/>
        <pt x="172" y="-7" on="0"/>
        <pt x="118" y="4" on="0"/>
        <pt x="76" y="37" on="0"/>
        <pt x="50" y="95" on="0"/>
        <pt x="50" y="141" on="1"/>
        <pt x="50" y="219" on="0"/>
        <pt x="144" y="298" on="0"/>
        <pt x="228" y="298" on="1"/>
        <pt x="307" y="298" on="1"/>
        <pt x="307" y="362" on="1"/>
        <pt x="307" y="392" on="0"/>
        <pt x="270" y="435" on="0"/>
        <pt x="232" y="435" on="1"/>
        <pt x="189" y="435" on="0"/>
        <pt x="125" y="423" on="0"/>
        <pt x="87" y="412" on="1"/>
        <pt x="87" y="485" on="1"/>
        <pt x="115" y="493" on="0"/>
        <pt x="185" y="507" on="0"/>
        <pt x="222" y="507" on="1"/>
        <pt x="276" y="507" on="0"/>
        <pt x="344" y="480" on="0"/>
        <pt x="361" y="454" on="1"/>
        <pt x="406" y="507" on="0"/>
        <pt x="489" y="507" on="1"/>
        <pt x="575" y="507" on="0"/>
        <pt x="650" y="394" on="0"/>
        <pt x="650" y="295" on="1"/>
        <pt x="650" y="230" on="1"/>
      </contour>
      <contour>
        <pt x="219" y="65" on="1"/>
        <pt x="243" y="65" on="0"/>
        <pt x="276" y="80" on="0"/>
        <pt x="297" y="101" on="0"/>
        <pt x="306" y="124" on="0"/>
        <pt x="307" y="132" on="1"/>
        <pt x="307" y="230" on="1"/>
        <pt x="223" y="230" on="1"/>
        <pt x="207" y="230" on="0"/>
        <pt x="176" y="222" on="0"/>
        <pt x="152" y="202" on="0"/>
        <pt x="137" y="171" on="0"/>
        <pt x="137" y="147" on="1"/>
        <pt x="137" y="100" on="0"/>
        <pt x="179" y="65" on="0"/>
      </contour>
      <contour>
        <pt x="487" y="436" on="1"/>
        <pt x="464" y="436" on="0"/>
        <pt x="430" y="423" on="0"/>
        <pt x="406" y="391" on="0"/>
        <pt x="393" y="338" on="0"/>
        <pt x="391" y="298" on="1"/>
        <pt x="567" y="298" on="1"/>
        <pt x="567" y="315" on="1"/>
        <pt x="567" y="372" on="0"/>
        <pt x="532" y="436" on="0"/>
      </contour>
    </TTGlyph>
    <TTGlyph name="agrave" xMin="50" yMin="-7" xMax="436" yMax="715">
      <contour>
        <pt x="406" y="0" on="1"/>
        <pt x="399" y="0" on="0"/>
        <pt x="378" y="4" on="0"/>
        <pt x="356" y="14" on="0"/>
        <pt x="337" y="34" on="0"/>
        <pt x="331" y="49" on="1"/>
        <pt x="312" y="22" on="0"/>
        <pt x="250" y="-7" on="0"/>
        <pt x="199" y="-7" on="1"/>
        <pt x="172" y="-7" on="0"/>
        <pt x="118" y="4" on="0"/>
        <pt x="76" y="37" on="0"/>
        <pt x="50" y="95" on="0"/>
        <pt x="50" y="141" on="1"/>
        <pt x="50" y="222" on="0"/>
        <pt x="144" y="308" on="0"/>
        <pt x="228" y="308" on="1"/>
        <pt x="307" y="308" on="1"/>
        <pt x="307" y="362" on="1"/>
        <pt x="307" y="394" on="0"/>
        <pt x="270" y="435" on="0"/>
        <pt x="232" y="435" on="1"/>
        <pt x="189" y="435" on="0"/>
        <pt x="125" y="425" on="0"/>
        <pt x="87" y="414" on="1"/>
        <pt x="87" y="487" on="1"/>
        <pt x="115" y="495" on="0"/>
        <pt x="185" y="507" on="0"/>
        <pt x="222" y="507" on="1"/>
        <pt x="271" y="507" on="0"/>
        <pt x="336" y="488" on="0"/>
        <pt x="375" y="447" on="0"/>
        <pt x="392" y="385" on="0"/>
        <pt x="392" y="342" on="1"/>
        <pt x="392" y="102" on="1"/>
        <pt x="392" y="87" on="0"/>
        <pt x="412" y="70" on="0"/>
        <pt x="436" y="70" on="1"/>
        <pt x="436" y="0" on="1"/>
      </contour>
      <contour>
        <pt x="219" y="65" on="1"/>
        <pt x="245" y="65" on="0"/>
        <pt x="279" y="81" on="0"/>
        <pt x="299" y="104" on="0"/>
        <pt x="307" y="128" on="0"/>
        <pt x="307" y="135" on="1"/>
        <pt x="307" y="240" on="1"/>
        <pt x="223" y="240" on="1"/>
        <pt x="207" y="240" on="0"/>
        <pt x="176" y="230" on="0"/>
        <pt x="152" y="207" on="0"/>
        <pt x="137" y="172" on="0"/>
        <pt x="137" y="147" on="1"/>
        <pt x="137" y="100" on="0"/>
        <pt x="179" y="65" on="0"/>
      </contour>
      <contour>
        <pt x="240" y="580" on="1"/>
        <pt x="108" y="715" on="1"/>
        <pt x="217" y="715" on="1"/>
        <pt x="321" y="580" on="1"/>
      </contour>
    </TTGlyph>
    <TTGlyph name="ampersand" xMin="65" yMin="-7" xMax="482" yMax="707">
      <contour>
        <pt x="65" y="198" on="1"/>
        <pt x="65" y="235" on="0"/>
        <pt x="72" y="303" on="0"/>
        <pt x="90" y="359" on="0"/>
        <pt x="121" y="399" on="0"/>
        <pt x="145" y="408" on="1"/>
        <pt x="110" y="429" on="0"/>
        <pt x="78" y="487" on="0"/>
        <pt x="78" y="535" on="1"/>
        <pt x="78" y="591" on="0"/>
        <pt x="106" y="659" on="0"/>
        <pt x="155" y="695" on="0"/>
        <pt x="221" y="707" on="0"/>
        <pt x="260" y="707" on="1"/>
        <pt x="298" y="707" on="0"/>
        <pt x="351" y="695" on="0"/>
        <pt x="360" y="692" on="1"/>
        <pt x="360" y="619" on="1"/>
        <pt x="356" y="620" on="0"/>
        <pt x="331" y="625" on="0"/>
        <pt x="301" y="630" on="0"/>
        <pt x="269" y="634" on="0"/>
        <pt x="258" y="634" on="1"/>
        <pt x="239" y="634" on="0"/>
        <pt x="205" y="628" on="0"/>
        <pt x="179" y="609" on="0"/>
        <pt x="163" y="574" on="0"/>
        <pt x="163" y="544" on="1"/>
        <pt x="163" y="500" on="0"/>
        <pt x="199" y="440" on="0"/>
        <pt x="247" y="440" on="1"/>
        <pt x="482" y="440" on="1"/>
        <pt x="482" y="367" on="1"/>
        <pt x="399" y="367" on="1"/>
        <pt x="399" y="5" on="1"/>
        <pt x="361" y="-1" on="0"/>
        <pt x="283" y="-7" on="0"/>
        <pt x="236" y="-7" on="1"/>
        <pt x="153" y="-7" on="0"/>
        <pt x="65" y="86" on="0"/>
      </contour>
      <contour>
        <pt x="237" y="66" on="1"/>
        <pt x="268" y="66" on="0"/>
        <pt x="309" y="72" on="0"/>
        <pt x="320" y="74" on="1"/>
        <pt x="320" y="367" on="1"/>
        <pt x="232" y="367" on="1"/>
        <pt x="205" y="367" on="0"/>
        <pt x="173" y="337" on="0"/>
        <pt x="156" y="287" on="0"/>
        <pt x="151" y="222" on="0"/>
        <pt x="151" y="188" on="1"/>
        <pt x="151" y="130" on="0"/>
        <pt x="199" y="66" on="0"/>
      </contour>
    </TTGlyph>
    <TTGlyph name="approxequal" xMin="85" yMin="169" xMax="425" yMax="453">
      <contour>
        <pt x="85" y="250" on="1"/>
        <pt x="120" y="271" on="0"/>
        <pt x="165" y="283" on="0"/>
        <pt x="187" y="283" on="1"/>
        <pt x="207" y="283" on="0"/>
        <pt x="243" y="271" on="0"/>
        <pt x="278" y="256" on="0"/>
        <pt x="313" y="244" on="0"/>
        <pt x="332" y="244" on="1"/>
        <pt x="358" y="244" on="0"/>
        <pt x="404" y="266" on="0"/>
        <pt x="425" y="280" on="1"/>
        <pt x="425" y="202" on="1"/>
        <pt x="402" y="187" on="0"/>
        <pt x="351" y="169" on="0"/>
        <pt x="323" y="169" on="1"/>
        <pt x="302" y="169" on="0"/>
        <pt x="267" y="181" on="0"/>
        <pt x="234" y="196" on="0"/>
        <pt x="199" y="208" on="0"/>
        <pt x="178" y="208" on="1"/>
        <pt x="152" y="208" on="0"/>
        <pt x="106" y="186" on="0"/>
        <pt x="85" y="172" on="1"/>
      </contour>
      <contour>
        <pt x="85" y="420" on="1"/>
        <pt x="120" y="441" on="0"/>
        <pt x="165" y="453" on="0"/>
        <pt x="187" y="453" on="1"/>
        <pt x="207" y="453" on="0"/>
        <pt x="243" y="441" on="0"/>
        <pt x="278" y="426" on="0"/>
        <pt x="313" y="414" on="0"/>
        <pt x="332" y="414" on="1"/>
        <pt x="358" y="414" on="0"/>
        <pt x="404" y="436" on="0"/>
        <pt x="425" y="450" on="1"/>
        <pt x="425" y="372" on="1"/>
        <pt x="402" y="357" on="0"/>
        <pt x="351" y="339" on="0"/>
        <pt x="323" y="339" on="1"/>
        <pt x="302" y="339" on="0"/>
        <pt x="267" y="351" on="0"/>
        <pt x="234" y="366" on="0"/>
        <pt x="199" y="378" on="0"/>
        <pt x="178" y="378" on="1"/>
        <pt x="152" y="378" on="0"/>
        <pt x="106" y="356" on="0"/>
        <pt x="85" y="342" on="1"/>
      </contour>
    </TTGlyph>
    <TTGlyph name="aring" xMin="50" yMin="-7" xMax="436" yMax="747">
      <contour>
        <pt x="267" y="646" on="1"/>
        <pt x="267" y="666" on="0"/>
        <pt x="252" y="695" on="0"/>
        <pt x="229" y="695" on="1"/>
        <pt x="207" y="695" on="0"/>
        <pt x="192" y="664" on="0"/>
        <pt x="192" y="646" on="1"/>
        <pt x="192" y="629" on="0"/>
        <pt x="207" y="597" on="0"/>
        <pt x="229" y="597" on="1"/>
        <pt x="254" y="597" on="0"/>
        <pt x="267" y="627" on="0"/>
      </contour>
      <contour>
        <pt x="325" y="645" on="1"/>
        <pt x="325" y="601" on="0"/>
        <pt x="273" y="543" on="0"/>
        <pt x="229" y="543" on="1"/>
        <pt x="185" y="543" on="0"/>
        <pt x="135" y="602" on="0"/>
        <pt x="135" y="645" on="1"/>
        <pt x="135" y="689" on="0"/>
        <pt x="185" y="747" on="0"/>
        <pt x="229" y="747" on="1"/>
        <pt x="274" y="747" on="0"/>
        <pt x="325" y="690" on="0"/>
      </contour>
      <contour>
        <pt x="406" y="0" on="1"/>
        <pt x="399" y="0" on="0"/>
        <pt x="378" y="4" on="0"/>
        <pt x="356" y="14" on="0"/>
        <pt x="337" y="34" on="0"/>
        <pt x="331" y="49" on="1"/>
        <pt x="312" y="22" on="0"/>
        <pt x="250" y="-7" on="0"/>
        <pt x="199" y="-7" on="1"/>
        <pt x="172" y="-7" on="0"/>
        <pt x="118" y="4" on="0"/>
        <pt x="76" y="37" on="0"/>
        <pt x="50" y="95" on="0"/>
        <pt x="50" y="141" on="1"/>
        <pt x="50" y="222" on="0"/>
        <pt x="144" y="308" on="0"/>
        <pt x="228" y="308" on="1"/>
        <pt x="307" y="308" on="1"/>
        <pt x="307" y="362" on="1"/>
        <pt x="307" y="394" on="0"/>
        <pt x="270" y="435" on="0"/>
        <pt x="232" y="435" on="1"/>
        <pt x="189" y="435" on="0"/>
        <pt x="125" y="425" on="0"/>
        <pt x="87" y="414" on="1"/>
        <pt x="87" y="487" on="1"/>
        <pt x="115" y="495" on="0"/>
        <pt x="185" y="507" on="0"/>
        <pt x="222" y="507" on="1"/>
        <pt x="271" y="507" on="0"/>
        <pt x="336" y="488" on="0"/>
        <pt x="375" y="447" on="0"/>
        <pt x="392" y="385" on="0"/>
        <pt x="392" y="342" on="1"/>
        <pt x="392" y="102" on="1"/>
        <pt x="392" y="87" on="0"/>
        <pt x="412" y="70" on="0"/>
        <pt x="436" y="70" on="1"/>
        <pt x="436" y="0" on="1"/>
      </contour>
      <contour>
        <pt x="219" y="65" on="1"/>
        <pt x="245" y="65" on="0"/>
        <pt x="279" y="81" on="0"/>
        <pt x="299" y="104" on="0"/>
        <pt x="307" y="128" on="0"/>
        <pt x="307" y="135" on="1"/>
        <pt x="307" y="240" on="1"/>
        <pt x="223" y="240" on="1"/>
        <pt x="207" y="240" on="0"/>
        <pt x="176" y="230" on="0"/>
        <pt x="152" y="207" on="0"/>
        <pt x="137" y="172" on="0"/>
        <pt x="137" y="147" on="1"/>
        <pt x="137" y="100" on="0"/>
        <pt x="179" y="65" on="0"/>
      </contour>
    </TTGlyph>
    <TTGlyph name="asciicircum" xMin="45" yMin="420" xMax="442" yMax="760">
      <contour>
        <pt x="351" y="420" on="1"/>
        <pt x="247" y="700" on="1"/>
        <pt x="133" y="420" on="1"/>
        <pt x="45" y="420" on="1"/>
        <pt x="189" y="760" on="1"/>
        <pt x="303" y="760" on="1"/>
        <pt x="442" y="420" on="1"/>
      </contour>
    </TTGlyph>
    <TTGlyph name="asciitilde" xMin="85" yMin="263" xMax="425" yMax="377">
      <contour>
        <pt x="85" y="344" on="1"/>
        <pt x="120" y="365" on="0"/>
        <pt x="165" y="377" on="0"/>
        <pt x="187" y="377" on="1"/>
        <pt x="207" y="377" on="0"/>
        <pt x="243" y="365" on="0"/>
        <pt x="278" y="350" on="0"/>
        <pt x="313" y="338" on="0"/>
        <pt x="332" y="338" on="1"/>
        <pt x="358" y="338" on="0"/>
        <pt x="404" y="360" on="0"/>
        <pt x="425" y="374" on="1"/>
        <pt x="425" y="296" on="1"/>
        <pt x="402" y="281" on="0"/>
        <pt x="351" y="263" on="0"/>
        <pt x="323" y="263" on="1"/>
        <pt x="302" y="263" on="0"/>
        <pt x="267" y="275" on="0"/>
        <pt x="234" y="290" on="0"/>
        <pt x="199" y="302" on="0"/>
        <pt x="178" y="302" on="1"/>
        <pt x="152" y="302" on="0"/>
        <pt x="106" y="280" on="0"/>
        <pt x="85" y="266" on="1"/>
      </contour>
    </TTGlyph>
    <TTGlyph name="asterisk" xMin="40" yMin="340" xMax="440" yMax="722">
      <contour>
        <pt x="293" y="515" on="1"/>
        <pt x="399" y="392" on="1"/>
        <pt x="327" y="340" on="1"/>
        <pt x="239" y="482" on="1"/>
        <pt x="148" y="340" on="1"/>
        <pt x="78" y="393" on="1"/>
        <pt x="185" y="515" on="1"/>
        <pt x="40" y="547" on="1"/>
        <pt x="67" y="627" on="1"/>
        <pt x="208" y="570" on="1"/>
        <pt x="195" y="722" on="1"/>
        <pt x="285" y="722" on="1"/>
        <pt x="272" y="570" on="1"/>
        <pt x="415" y="625" on="1"/>
        <pt x="440" y="546" on="1"/>
      </contour>
    </TTGlyph>
    <TTGlyph name="at" xMin="85" yMin="-7" xMax="730" yMax="707">
      <contour>
        <pt x="472" y="472" on="1"/>
        <pt x="466" y="474" on="0"/>
        <pt x="446" y="477" on="0"/>
        <pt x="435" y="477" on="1"/>
        <pt x="412" y="477" on="0"/>
        <pt x="370" y="467" on="0"/>
        <pt x="338" y="437" on="0"/>
        <pt x="319" y="383" on="0"/>
        <pt x="319" y="339" on="1"/>
        <pt x="319" y="299" on="0"/>
        <pt x="330" y="249" on="0"/>
        <pt x="349" y="223" on="0"/>
        <pt x="377" y="214" on="0"/>
        <pt x="394" y="214" on="1"/>
        <pt x="416" y="214" on="0"/>
        <pt x="446" y="227" on="0"/>
        <pt x="464" y="246" on="0"/>
        <pt x="472" y="270" on="0"/>
        <pt x="472" y="281" on="1"/>
      </contour>
      <contour>
        <pt x="730" y="401" on="1"/>
        <pt x="730" y="344" on="0"/>
        <pt x="720" y="241" on="0"/>
        <pt x="690" y="162" on="0"/>
        <pt x="633" y="116" on="0"/>
        <pt x="585" y="116" on="1"/>
        <pt x="573" y="116" on="0"/>
        <pt x="543" y="124" on="0"/>
        <pt x="516" y="141" on="0"/>
        <pt x="495" y="170" on="0"/>
        <pt x="491" y="191" on="1"/>
        <pt x="477" y="171" on="0"/>
        <pt x="415" y="144" on="0"/>
        <pt x="373" y="144" on="1"/>
        <pt x="349" y="144" on="0"/>
        <pt x="302" y="158" on="0"/>
        <pt x="263" y="199" on="0"/>
        <pt x="239" y="274" on="0"/>
        <pt x="239" y="335" on="1"/>
        <pt x="239" y="400" on="0"/>
        <pt x="272" y="481" on="0"/>
        <pt x="328" y="527" on="0"/>
        <pt x="405" y="544" on="0"/>
        <pt x="448" y="544" on="1"/>
        <pt x="471" y="544" on="0"/>
        <pt x="527" y="535" on="0"/>
        <pt x="550" y="530" on="1"/>
        <pt x="550" y="221" on="1"/>
        <pt x="550" y="206" on="0"/>
        <pt x="569" y="181" on="0"/>
        <pt x="587" y="181" on="1"/>
        <pt x="607" y="181" on="0"/>
        <pt x="630" y="212" on="0"/>
        <pt x="643" y="269" on="0"/>
        <pt x="647" y="350" on="0"/>
        <pt x="647" y="401" on="1"/>
        <pt x="647" y="475" on="0"/>
        <pt x="630" y="567" on="0"/>
        <pt x="579" y="618" on="0"/>
        <pt x="485" y="636" on="0"/>
        <pt x="408" y="636" on="1"/>
        <pt x="333" y="636" on="0"/>
        <pt x="239" y="609" on="0"/>
        <pt x="187" y="543" on="0"/>
        <pt x="168" y="431" on="0"/>
        <pt x="168" y="345" on="1"/>
        <pt x="168" y="268" on="0"/>
        <pt x="184" y="161" on="0"/>
        <pt x="234" y="94" on="0"/>
        <pt x="327" y="64" on="0"/>
        <pt x="404" y="64" on="1"/>
        <pt x="422" y="64" on="0"/>
        <pt x="468" y="67" on="0"/>
        <pt x="513" y="71" on="0"/>
        <pt x="551" y="75" on="0"/>
        <pt x="561" y="76" on="1"/>
        <pt x="561" y="5" on="1"/>
        <pt x="548" y="3" on="0"/>
        <pt x="509" y="-1" on="0"/>
        <pt x="466" y="-5" on="0"/>
        <pt x="422" y="-7" on="0"/>
        <pt x="404" y="-7" on="1"/>
        <pt x="308" y="-7" on="0"/>
        <pt x="184" y="31" on="0"/>
        <pt x="112" y="115" on="0"/>
        <pt x="85" y="249" on="0"/>
        <pt x="85" y="345" on="1"/>
        <pt x="85" y="451" on="0"/>
        <pt x="119" y="590" on="0"/>
        <pt x="196" y="673" on="0"/>
        <pt x="319" y="707" on="0"/>
        <pt x="408" y="707" on="1"/>
        <pt x="496" y="707" on="0"/>
        <pt x="619" y="683" on="0"/>
        <pt x="695" y="616" on="0"/>
        <pt x="730" y="497" on="0"/>
      </contour>
    </TTGlyph>
    <TTGlyph name="atilde" xMin="50" yMin="-7" xMax="436" yMax="700">
      <contour>
        <pt x="406" y="0" on="1"/>
        <pt x="399" y="0" on="0"/>
        <pt x="378" y="4" on="0"/>
        <pt x="356" y="14" on="0"/>
        <pt x="337" y="34" on="0"/>
        <pt x="331" y="49" on="1"/>
        <pt x="312" y="22" on="0"/>
        <pt x="250" y="-7" on="0"/>
        <pt x="199" y="-7" on="1"/>
        <pt x="172" y="-7" on="0"/>
        <pt x="118" y="4" on="0"/>
        <pt x="76" y="37" on="0"/>
        <pt x="50" y="95" on="0"/>
        <pt x="50" y="141" on="1"/>
        <pt x="50" y="222" on="0"/>
        <pt x="144" y="308" on="0"/>
        <pt x="228" y="308" on="1"/>
        <pt x="307" y="308" on="1"/>
        <pt x="307" y="362" on="1"/>
        <pt x="307" y="394" on="0"/>
        <pt x="270" y="435" on="0"/>
        <pt x="232" y="435" on="1"/>
        <pt x="189" y="435" on="0"/>
        <pt x="125" y="425" on="0"/>
        <pt x="87" y="414" on="1"/>
        <pt x="87" y="487" on="1"/>
        <pt x="115" y="495" on="0"/>
        <pt x="185" y="507" on="0"/>
        <pt x="222" y="507" on="1"/>
        <pt x="271" y="507" on="0"/>
        <pt x="336" y="488" on="0"/>
        <pt x="375" y="447" on="0"/>
        <pt x="392" y="385" on="0"/>
        <pt x="392" y="342" on="1"/>
        <pt x="392" y="102" on="1"/>
        <pt x="392" y="87" on="0"/>
        <pt x="412" y="70" on="0"/>
        <pt x="436" y="70" on="1"/>
        <pt x="436" y="0" on="1"/>
      </contour>
      <contour>
        <pt x="219" y="65" on="1"/>
        <pt x="245" y="65" on="0"/>
        <pt x="279" y="81" on="0"/>
        <pt x="299" y="104" on="0"/>
        <pt x="307" y="128" on="0"/>
        <pt x="307" y="135" on="1"/>
        <pt x="307" y="240" on="1"/>
        <pt x="223" y="240" on="1"/>
        <pt x="207" y="240" on="0"/>
        <pt x="176" y="230" on="0"/>
        <pt x="152" y="207" on="0"/>
        <pt x="137" y="172" on="0"/>
        <pt x="137" y="147" on="1"/>
        <pt x="137" y="100" on="0"/>
        <pt x="179" y="65" on="0"/>
      </contour>
      <contour>
        <pt x="101" y="667" on="1"/>
        <pt x="124" y="686" on="0"/>
        <pt x="167" y="700" on="0"/>
        <pt x="187" y="700" on="1"/>
        <pt x="205" y="700" on="0"/>
        <pt x="234" y="688" on="0"/>
        <pt x="260" y="673" on="0"/>
        <pt x="286" y="661" on="0"/>
        <pt x="301" y="661" on="1"/>
        <pt x="327" y="661" on="0"/>
        <pt x="361" y="680" on="0"/>
        <pt x="381" y="697" on="1"/>
        <pt x="381" y="624" on="1"/>
        <pt x="361" y="605" on="0"/>
        <pt x="321" y="591" on="0"/>
        <pt x="295" y="591" on="1"/>
        <pt x="276" y="591" on="0"/>
        <pt x="248" y="603" on="0"/>
        <pt x="223" y="618" on="0"/>
        <pt x="197" y="630" on="0"/>
        <pt x="181" y="630" on="1"/>
        <pt x="155" y="630" on="0"/>
        <pt x="117" y="608" on="0"/>
        <pt x="101" y="594" on="1"/>
      </contour>
    </TTGlyph>
    <TTGlyph name="b" xMin="80" yMin="-7" xMax="434" yMax="700">
      <contour>
        <pt x="434" y="282" on="1"/>
        <pt x="434" y="200" on="0"/>
        <pt x="412" y="89" on="0"/>
        <pt x="362" y="22" on="0"/>
        <pt x="281" y="-7" on="0"/>
        <pt x="221" y="-7" on="1"/>
        <pt x="194" y="-7" on="0"/>
        <pt x="154" y="-5" on="0"/>
        <pt x="121" y="-1" on="0"/>
        <pt x="94" y="3" on="0"/>
        <pt x="80" y="5" on="1"/>
        <pt x="80" y="700" on="1"/>
        <pt x="165" y="700" on="1"/>
        <pt x="165" y="463" on="1"/>
        <pt x="212" y="507" on="0"/>
        <pt x="276" y="507" on="1"/>
        <pt x="364" y="507" on="0"/>
        <pt x="434" y="394" on="0"/>
      </contour>
      <contour>
        <pt x="260" y="435" on="1"/>
        <pt x="239" y="435" on="0"/>
        <pt x="204" y="419" on="0"/>
        <pt x="179" y="393" on="0"/>
        <pt x="165" y="364" on="0"/>
        <pt x="165" y="350" on="1"/>
        <pt x="165" y="69" on="1"/>
        <pt x="176" y="67" on="0"/>
        <pt x="208" y="65" on="0"/>
        <pt x="231" y="65" on="1"/>
        <pt x="267" y="65" on="0"/>
        <pt x="312" y="91" on="0"/>
        <pt x="337" y="143" on="0"/>
        <pt x="347" y="220" on="0"/>
        <pt x="347" y="272" on="1"/>
        <pt x="347" y="320" on="0"/>
        <pt x="338" y="382" on="0"/>
        <pt x="317" y="420" on="0"/>
        <pt x="284" y="435" on="0"/>
      </contour>
    </TTGlyph>
    <TTGlyph name="backslash" xMin="5" yMin="-110" xMax="320" yMax="810">
      <contour>
        <pt x="5" y="810" on="1"/>
        <pt x="84" y="810" on="1"/>
        <pt x="320" y="-110" on="1"/>
        <pt x="241" y="-110" on="1"/>
      </contour>
    </TTGlyph>
    <TTGlyph name="bar" xMin="105" yMin="-110" xMax="185" yMax="810">
      <contour>
        <pt x="105" y="-110" on="1"/>
        <pt x="105" y="810" on="1"/>
        <pt x="185" y="810" on="1"/>
        <pt x="185" y="-110" on="1"/>
      </contour>
    </TTGlyph>
    <TTGlyph name="braceleft" xMin="35" yMin="-125" xMax="270" yMax="825">
      <contour>
        <pt x="35" y="405" on="1"/>
        <pt x="49" y="405" on="0"/>
        <pt x="78" y="411" on="0"/>
        <pt x="101" y="431" on="0"/>
        <pt x="116" y="468" on="0"/>
        <pt x="116" y="499" on="1"/>
        <pt x="116" y="698" on="1"/>
        <pt x="116" y="765" on="0"/>
        <pt x="165" y="825" on="0"/>
        <pt x="225" y="825" on="1"/>
        <pt x="235" y="825" on="0"/>
        <pt x="262" y="822" on="0"/>
        <pt x="270" y="820" on="1"/>
        <pt x="270" y="752" on="1"/>
        <pt x="265" y="753" on="0"/>
        <pt x="249" y="755" on="0"/>
        <pt x="239" y="755" on="1"/>
        <pt x="216" y="755" on="0"/>
        <pt x="194" y="736" on="0"/>
        <pt x="194" y="713" on="1"/>
        <pt x="194" y="469" on="1"/>
        <pt x="194" y="440" on="0"/>
        <pt x="174" y="397" on="0"/>
        <pt x="143" y="368" on="0"/>
        <pt x="106" y="352" on="0"/>
        <pt x="89" y="349" on="1"/>
        <pt x="106" y="347" on="0"/>
        <pt x="143" y="332" on="0"/>
        <pt x="174" y="303" on="0"/>
        <pt x="194" y="260" on="0"/>
        <pt x="194" y="231" on="1"/>
        <pt x="194" y="-13" on="1"/>
        <pt x="194" y="-36" on="0"/>
        <pt x="216" y="-55" on="0"/>
        <pt x="239" y="-55" on="1"/>
        <pt x="249" y="-55" on="0"/>
        <pt x="265" y="-53" on="0"/>
        <pt x="270" y="-52" on="1"/>
        <pt x="270" y="-120" on="1"/>
        <pt x="262" y="-122" on="0"/>
        <pt x="235" y="-125" on="0"/>
        <pt x="225" y="-125" on="1"/>
        <pt x="165" y="-125" on="0"/>
        <pt x="116" y="-65" on="0"/>
        <pt x="116" y="2" on="1"/>
        <pt x="116" y="201" on="1"/>
        <pt x="116" y="232" on="0"/>
        <pt x="101" y="269" on="0"/>
        <pt x="78" y="289" on="0"/>
        <pt x="49" y="295" on="0"/>
        <pt x="35" y="295" on="1"/>
      </contour>
    </TTGlyph>
    <TTGlyph name="braceright" xMin="55" yMin="-125" xMax="290" yMax="825">
      <contour>
        <pt x="290" y="295" on="1"/>
        <pt x="276" y="295" on="0"/>
        <pt x="247" y="289" on="0"/>
        <pt x="224" y="269" on="0"/>
        <pt x="209" y="232" on="0"/>
        <pt x="209" y="201" on="1"/>
        <pt x="209" y="2" on="1"/>
        <pt x="209" y="-65" on="0"/>
        <pt x="160" y="-125" on="0"/>
        <pt x="100" y="-125" on="1"/>
        <pt x="90" y="-125" on="0"/>
        <pt x="63" y="-122" on="0"/>
        <pt x="55" y="-120" on="1"/>
        <pt x="55" y="-52" on="1"/>
        <pt x="60" y="-53" on="0"/>
        <pt x="76" y="-55" on="0"/>
        <pt x="86" y="-55" on="1"/>
        <pt x="109" y="-55" on="0"/>
        <pt x="131" y="-36" on="0"/>
        <pt x="131" y="-13" on="1"/>
        <pt x="131" y="231" on="1"/>
        <pt x="131" y="260" on="0"/>
        <pt x="151" y="303" on="0"/>
        <pt x="182" y="332" on="0"/>
        <pt x="219" y="347" on="0"/>
        <pt x="236" y="349" on="1"/>
        <pt x="219" y="352" on="0"/>
        <pt x="182" y="368" on="0"/>
        <pt x="151" y="397" on="0"/>
        <pt x="131" y="440" on="0"/>
        <pt x="131" y="469" on="1"/>
        <pt x="131" y="713" on="1"/>
        <pt x="131" y="736" on="0"/>
        <pt x="109" y="755" on="0"/>
        <pt x="86" y="755" on="1"/>
        <pt x="76" y="755" on="0"/>
        <pt x="60" y="753" on="0"/>
        <pt x="55" y="752" on="1"/>
        <pt x="55" y="820" on="1"/>
        <pt x="63" y="822" on="0"/>
        <pt x="90" y="825" on="0"/>
        <pt x="100" y="825" on="1"/>
        <pt x="160" y="825" on="0"/>
        <pt x="209" y="765" on="0"/>
        <pt x="209" y="698" on="1"/>
        <pt x="209" y="499" on="1"/>
        <pt x="209" y="468" on="0"/>
        <pt x="224" y="431" on="0"/>
        <pt x="247" y="411" on="0"/>
        <pt x="276" y="405" on="0"/>
        <pt x="290" y="405" on="1"/>
      </contour>
    </TTGlyph>
    <TTGlyph name="bracketleft" xMin="85" yMin="-120" xMax="275" yMax="820">
      <contour>
        <pt x="85" y="-120" on="1"/>
        <pt x="85" y="820" on="1"/>
        <pt x="275" y="820" on="1"/>
        <pt x="275" y="745" on="1"/>
        <pt x="165" y="745" on="1"/>
        <pt x="165" y="-45" on="1"/>
        <pt x="275" y="-45" on="1"/>
        <pt x="275" y="-120" on="1"/>
      </contour>
    </TTGlyph>
    <TTGlyph name="bracketright" xMin="50" yMin="-120" xMax="240" yMax="820">
      <contour>
        <pt x="50" y="-120" on="1"/>
        <pt x="50" y="-45" on="1"/>
        <pt x="160" y="-45" on="1"/>
        <pt x="160" y="745" on="1"/>
        <pt x="50" y="745" on="1"/>
        <pt x="50" y="820" on="1"/>
        <pt x="240" y="820" on="1"/>
        <pt x="240" y="-120" on="1"/>
      </contour>
    </TTGlyph>
    <TTGlyph name="breve" xMin="35" yMin="585" xMax="319" yMax="715">
      <contour>
        <pt x="319" y="715" on="1"/>
        <pt x="316" y="694" on="0"/>
        <pt x="300" y="649" on="0"/>
        <pt x="268" y="610" on="0"/>
        <pt x="216" y="585" on="0"/>
        <pt x="177" y="585" on="1"/>
        <pt x="138" y="585" on="0"/>
        <pt x="86" y="610" on="0"/>
        <pt x="54" y="649" on="0"/>
        <pt x="38" y="694" on="0"/>
        <pt x="35" y="715" on="1"/>
        <pt x="117" y="715" on="1"/>
        <pt x="119" y="688" on="0"/>
        <pt x="144" y="646" on="0"/>
        <pt x="177" y="646" on="1"/>
        <pt x="210" y="646" on="0"/>
        <pt x="235" y="688" on="0"/>
        <pt x="238" y="715" on="1"/>
      </contour>
    </TTGlyph>
    <TTGlyph name="brokenbar" xMin="105" yMin="-110" xMax="185" yMax="810">
      <contour>
        <pt x="105" y="-110" on="1"/>
        <pt x="105" y="250" on="1"/>
        <pt x="185" y="250" on="1"/>
        <pt x="185" y="-110" on="1"/>
      </contour>
      <contour>
        <pt x="105" y="450" on="1"/>
        <pt x="105" y="810" on="1"/>
        <pt x="185" y="810" on="1"/>
        <pt x="185" y="450" on="1"/>
      </contour>
    </TTGlyph>
    <TTGlyph name="bullet" xMin="70" yMin="235" xMax="220" yMax="390">
      <contour>
        <pt x="70" y="235" on="1"/>
        <pt x="70" y="390" on="1"/>
        <pt x="220" y="390" on="1"/>
        <pt x="220" y="235" on="1"/>
      </contour>
    </TTGlyph>
    <TTGlyph name="c" xMin="65" yMin="-7" xMax="349" yMax="507">
      <contour>
        <pt x="349" y="9" on="1"/>
        <pt x="325" y="2" on="0"/>
        <pt x="267" y="-7" on="0"/>
        <pt x="240" y="-7" on="1"/>
        <pt x="197" y="-7" on="0"/>
        <pt x="131" y="12" on="0"/>
        <pt x="87" y="69" on="0"/>
        <pt x="65" y="174" on="0"/>
        <pt x="65" y="260" on="1"/>
        <pt x="65" y="327" on="0"/>
        <pt x="86" y="421" on="0"/>
        <pt x="128" y="480" on="0"/>
        <pt x="194" y="507" on="0"/>
        <pt x="239" y="507" on="1"/>
        <pt x="264" y="507" on="0"/>
        <pt x="327" y="497" on="0"/>
        <pt x="349" y="492" on="1"/>
        <pt x="349" y="418" on="1"/>
        <pt x="321" y="424" on="0"/>
        <pt x="271" y="432" on="0"/>
        <pt x="233" y="432" on="1"/>
        <pt x="211" y="432" on="0"/>
        <pt x="181" y="414" on="0"/>
        <pt x="161" y="369" on="0"/>
        <pt x="152" y="296" on="0"/>
        <pt x="152" y="240" on="1"/>
        <pt x="152" y="184" on="0"/>
        <pt x="163" y="116" on="0"/>
        <pt x="184" y="80" on="0"/>
        <pt x="214" y="68" on="0"/>
        <pt x="233" y="68" on="1"/>
        <pt x="274" y="68" on="0"/>
        <pt x="327" y="78" on="0"/>
        <pt x="349" y="83" on="1"/>
      </contour>
    </TTGlyph>
    <TTGlyph name="caron" xMin="35" yMin="579" xMax="348" yMax="714">
      <contour>
        <pt x="132" y="714" on="1"/>
        <pt x="192" y="630" on="1"/>
        <pt x="252" y="714" on="1"/>
        <pt x="348" y="714" on="1"/>
        <pt x="236" y="579" on="1"/>
        <pt x="148" y="579" on="1"/>
        <pt x="35" y="714" on="1"/>
      </contour>
    </TTGlyph>
    <TTGlyph name="ccedilla" xMin="65" yMin="-200" xMax="349" yMax="507">
      <contour>
        <pt x="164" y="-131" on="1"/>
        <pt x="178" y="-134" on="0"/>
        <pt x="207" y="-137" on="0"/>
        <pt x="218" y="-137" on="1"/>
        <pt x="238" y="-137" on="0"/>
        <pt x="259" y="-125" on="0"/>
        <pt x="259" y="-106" on="1"/>
        <pt x="259" y="-99" on="0"/>
        <pt x="252" y="-87" on="0"/>
        <pt x="234" y="-80" on="0"/>
        <pt x="203" y="-76" on="0"/>
        <pt x="178" y="-76" on="1"/>
        <pt x="189" y="-3" on="1"/>
        <pt x="158" y="2" on="0"/>
        <pt x="112" y="31" on="0"/>
        <pt x="81" y="91" on="0"/>
        <pt x="65" y="188" on="0"/>
        <pt x="65" y="260" on="1"/>
        <pt x="65" y="327" on="0"/>
        <pt x="86" y="421" on="0"/>
        <pt x="128" y="480" on="0"/>
        <pt x="194" y="507" on="0"/>
        <pt x="239" y="507" on="1"/>
        <pt x="264" y="507" on="0"/>
        <pt x="327" y="497" on="0"/>
        <pt x="349" y="492" on="1"/>
        <pt x="349" y="418" on="1"/>
        <pt x="321" y="424" on="0"/>
        <pt x="271" y="432" on="0"/>
        <pt x="233" y="432" on="1"/>
        <pt x="211" y="432" on="0"/>
        <pt x="181" y="414" on="0"/>
        <pt x="161" y="369" on="0"/>
        <pt x="152" y="296" on="0"/>
        <pt x="152" y="240" on="1"/>
        <pt x="152" y="184" on="0"/>
        <pt x="163" y="116" on="0"/>
        <pt x="184" y="80" on="0"/>
        <pt x="214" y="68" on="0"/>
        <pt x="233" y="68" on="1"/>
        <pt x="274" y="68" on="0"/>
        <pt x="327" y="78" on="0"/>
        <pt x="349" y="83" on="1"/>
        <pt x="349" y="9" on="1"/>
        <pt x="328" y="3" on="0"/>
        <pt x="279" y="-5" on="0"/>
        <pt x="255" y="-7" on="1"/>
        <pt x="252" y="-27" on="1"/>
        <pt x="297" y="-32" on="0"/>
        <pt x="335" y="-71" on="0"/>
        <pt x="335" y="-109" on="1"/>
        <pt x="335" y="-157" on="0"/>
        <pt x="276" y="-200" on="0"/>
        <pt x="227" y="-200" on="1"/>
        <pt x="209" y="-200" on="0"/>
        <pt x="180" y="-196" on="0"/>
        <pt x="164" y="-193" on="1"/>
      </contour>
    </TTGlyph>
    <TTGlyph name="cedilla" xMin="66" yMin="-200" xMax="237" yMax="50">
      <contour>
        <pt x="66" y="-131" on="1"/>
        <pt x="80" y="-134" on="0"/>
        <pt x="109" y="-137" on="0"/>
        <pt x="120" y="-137" on="1"/>
        <pt x="140" y="-137" on="0"/>
        <pt x="161" y="-125" on="0"/>
        <pt x="161" y="-106" on="1"/>
        <pt x="161" y="-99" on="0"/>
        <pt x="154" y="-87" on="0"/>
        <pt x="136" y="-80" on="0"/>
        <pt x="105" y="-76" on="0"/>
        <pt x="80" y="-76" on="1"/>
        <pt x="100" y="50" on="1"/>
        <pt x="165" y="50" on="1"/>
        <pt x="154" y="-27" on="1"/>
        <pt x="199" y="-32" on="0"/>
        <pt x="237" y="-71" on="0"/>
        <pt x="237" y="-109" on="1"/>
        <pt x="237" y="-157" on="0"/>
        <pt x="178" y="-200" on="0"/>
        <pt x="129" y="-200" on="1"/>
        <pt x="111" y="-200" on="0"/>
        <pt x="82" y="-196" on="0"/>
        <pt x="66" y="-193" on="1"/>
      </contour>
    </TTGlyph>
    <TTGlyph name="cent" xMin="99" yMin="-110" xMax="383" yMax="600">
      <contour>
        <pt x="237" y="-110" on="1"/>
        <pt x="237" y="-6" on="1"/>
        <pt x="203" y="-3" on="0"/>
        <pt x="151" y="24" on="0"/>
        <pt x="117" y="84" on="0"/>
        <pt x="99" y="183" on="0"/>
        <pt x="99" y="259" on="1"/>
        <pt x="99" y="379" on="0"/>
        <pt x="166" y="493" on="0"/>
        <pt x="237" y="503" on="1"/>
        <pt x="237" y="600" on="1"/>
        <pt x="317" y="600" on="1"/>
        <pt x="317" y="503" on="1"/>
        <pt x="335" y="501" on="0"/>
        <pt x="369" y="494" on="0"/>
        <pt x="383" y="491" on="1"/>
        <pt x="383" y="417" on="1"/>
        <pt x="355" y="423" on="0"/>
        <pt x="305" y="431" on="0"/>
        <pt x="267" y="431" on="1"/>
        <pt x="245" y="431" on="0"/>
        <pt x="215" y="413" on="0"/>
        <pt x="195" y="368" on="0"/>
        <pt x="186" y="295" on="0"/>
        <pt x="186" y="239" on="1"/>
        <pt x="186" y="183" on="0"/>
        <pt x="197" y="115" on="0"/>
        <pt x="218" y="79" on="0"/>
        <pt x="248" y="67" on="0"/>
        <pt x="267" y="67" on="1"/>
        <pt x="308" y="67" on="0"/>
        <pt x="361" y="77" on="0"/>
        <pt x="383" y="82" on="1"/>
        <pt x="383" y="8" on="1"/>
        <pt x="368" y="3" on="0"/>
        <pt x="334" y="-3" on="0"/>
        <pt x="317" y="-5" on="1"/>
        <pt x="317" y="-110" on="1"/>
      </contour>
    </TTGlyph>
    <TTGlyph name="circumflex" xMin="35" yMin="580" xMax="348" yMax="715">
      <contour>
        <pt x="251" y="580" on="1"/>
        <pt x="191" y="664" on="1"/>
        <pt x="131" y="580" on="1"/>
        <pt x="35" y="580" on="1"/>
        <pt x="147" y="715" on="1"/>
        <pt x="235" y="715" on="1"/>
        <pt x="348" y="580" on="1"/>
      </contour>
    </TTGlyph>
    <TTGlyph name="colon" xMin="65" yMin="0" xMax="165" yMax="500">
      <contour>
        <pt x="65" y="0" on="1"/>
        <pt x="65" y="100" on="1"/>
        <pt x="165" y="100" on="1"/>
        <pt x="165" y="0" on="1"/>
      </contour>
      <contour>
        <pt x="65" y="400" on="1"/>
        <pt x="65" y="500" on="1"/>
        <pt x="165" y="500" on="1"/>
        <pt x="165" y="400" on="1"/>
      </contour>
    </TTGlyph>
    <TTGlyph name="comma" xMin="25" yMin="-140" xMax="165" yMax="100">
      <contour>
        <pt x="93" y="-140" on="1"/>
        <pt x="25" y="-140" on="1"/>
        <pt x="65" y="0" on="1"/>
        <pt x="65" y="100" on="1"/>
        <pt x="165" y="100" on="1"/>
        <pt x="165" y="0" on="1"/>
      </contour>
    </TTGlyph>
    <TTGlyph name="copyright" xMin="85" yMin="-7" xMax="715" yMax="707">
      <contour>
        <pt x="471" y="163" on="1"/>
        <pt x="462" y="161" on="0"/>
        <pt x="424" y="155" on="0"/>
        <pt x="410" y="155" on="1"/>
        <pt x="380" y="155" on="0"/>
        <pt x="336" y="172" on="0"/>
        <pt x="307" y="216" on="0"/>
        <pt x="292" y="295" on="0"/>
        <pt x="292" y="356" on="1"/>
        <pt x="292" y="417" on="0"/>
        <pt x="308" y="491" on="0"/>
        <pt x="340" y="532" on="0"/>
        <pt x="386" y="545" on="0"/>
        <pt x="416" y="545" on="1"/>
        <pt x="422" y="545" on="0"/>
        <pt x="438" y="543" on="0"/>
        <pt x="454" y="541" on="0"/>
        <pt x="468" y="538" on="0"/>
        <pt x="471" y="537" on="1"/>
        <pt x="471" y="489" on="1"/>
        <pt x="457" y="492" on="0"/>
        <pt x="423" y="495" on="0"/>
        <pt x="408" y="495" on="1"/>
        <pt x="393" y="495" on="0"/>
        <pt x="371" y="488" on="0"/>
        <pt x="356" y="459" on="0"/>
        <pt x="349" y="402" on="0"/>
        <pt x="349" y="352" on="1"/>
        <pt x="349" y="300" on="0"/>
        <pt x="357" y="241" on="0"/>
        <pt x="372" y="212" on="0"/>
        <pt x="394" y="205" on="0"/>
        <pt x="409" y="205" on="1"/>
        <pt x="426" y="205" on="0"/>
        <pt x="460" y="209" on="0"/>
        <pt x="471" y="211" on="1"/>
      </contour>
      <contour>
        <pt x="715" y="350" on="1"/>
        <pt x="715" y="267" on="0"/>
        <pt x="682" y="134" on="0"/>
        <pt x="609" y="42" on="0"/>
        <pt x="491" y="-7" on="0"/>
        <pt x="405" y="-7" on="1"/>
        <pt x="320" y="-7" on="0"/>
        <pt x="198" y="41" on="0"/>
        <pt x="121" y="133" on="0"/>
        <pt x="85" y="265" on="0"/>
        <pt x="85" y="350" on="1"/>
        <pt x="85" y="433" on="0"/>
        <pt x="121" y="565" on="0"/>
        <pt x="198" y="658" on="0"/>
        <pt x="319" y="707" on="0"/>
        <pt x="405" y="707" on="1"/>
        <pt x="491" y="707" on="0"/>
        <pt x="609" y="657" on="0"/>
        <pt x="683" y="565" on="0"/>
        <pt x="715" y="433" on="0"/>
      </contour>
      <contour>
        <pt x="638" y="350" on="1"/>
        <pt x="638" y="416" on="0"/>
        <pt x="619" y="523" on="0"/>
        <pt x="567" y="598" on="0"/>
        <pt x="476" y="639" on="0"/>
        <pt x="405" y="639" on="1"/>
        <pt x="334" y="639" on="0"/>
        <pt x="240" y="599" on="0"/>
        <pt x="185" y="524" on="0"/>
        <pt x="162" y="417" on="0"/>
        <pt x="162" y="350" on="1"/>
        <pt x="162" y="284" on="0"/>
        <pt x="185" y="177" on="0"/>
        <pt x="240" y="102" on="0"/>
        <pt x="334" y="61" on="0"/>
        <pt x="405" y="61" on="1"/>
        <pt x="476" y="61" on="0"/>
        <pt x="567" y="102" on="0"/>
        <pt x="619" y="177" on="0"/>
        <pt x="638" y="284" on="0"/>
      </contour>
    </TTGlyph>
    <TTGlyph name="currency" xMin="32" yMin="47" xMax="537" yMax="553">
      <contour>
        <pt x="421" y="106" on="1"/>
        <pt x="393" y="85" on="0"/>
        <pt x="324" y="65" on="0"/>
        <pt x="285" y="65" on="1"/>
        <pt x="203" y="65" on="0"/>
        <pt x="147" y="106" on="1"/>
        <pt x="88" y="47" on="1"/>
        <pt x="32" y="103" on="1"/>
        <pt x="95" y="166" on="1"/>
        <pt x="81" y="192" on="0"/>
        <pt x="65" y="259" on="0"/>
        <pt x="65" y="300" on="1"/>
        <pt x="65" y="341" on="0"/>
        <pt x="81" y="407" on="0"/>
        <pt x="95" y="433" on="1"/>
        <pt x="32" y="497" on="1"/>
        <pt x="88" y="553" on="1"/>
        <pt x="147" y="494" on="1"/>
        <pt x="205" y="535" on="0"/>
        <pt x="285" y="535" on="1"/>
        <pt x="365" y="535" on="0"/>
        <pt x="421" y="494" on="1"/>
        <pt x="481" y="553" on="1"/>
        <pt x="537" y="497" on="1"/>
        <pt x="474" y="433" on="1"/>
        <pt x="488" y="407" on="0"/>
        <pt x="504" y="341" on="0"/>
        <pt x="504" y="300" on="1"/>
        <pt x="504" y="259" on="0"/>
        <pt x="488" y="192" on="0"/>
        <pt x="474" y="166" on="1"/>
        <pt x="537" y="103" on="1"/>
        <pt x="481" y="47" on="1"/>
      </contour>
      <contour>
        <pt x="417" y="300" on="1"/>
        <pt x="417" y="341" on="0"/>
        <pt x="397" y="402" on="0"/>
        <pt x="361" y="444" on="0"/>
        <pt x="313" y="465" on="0"/>
        <pt x="285" y="465" on="1"/>
        <pt x="257" y="465" on="0"/>
        <pt x="208" y="444" on="0"/>
        <pt x="172" y="402" on="0"/>
        <pt x="152" y="341" on="0"/>
        <pt x="152" y="300" on="1"/>
        <pt x="152" y="260" on="0"/>
        <pt x="172" y="198" on="0"/>
        <pt x="208" y="156" on="0"/>
        <pt x="257" y="135" on="0"/>
        <pt x="285" y="135" on="1"/>
        <pt x="313" y="135" on="0"/>
        <pt x="361" y="156" on="0"/>
        <pt x="397" y="198" on="0"/>
        <pt x="417" y="260" on="0"/>
      </contour>
    </TTGlyph>
    <TTGlyph name="d" xMin="65" yMin="-7" xMax="424" yMax="700">
      <contour>
        <pt x="354" y="0" on="1"/>
        <pt x="347" y="42" on="1"/>
        <pt x="324" y="19" on="0"/>
        <pt x="266" y="-7" on="0"/>
        <pt x="228" y="-7" on="1"/>
        <pt x="180" y="-7" on="0"/>
        <pt x="118" y="23" on="0"/>
        <pt x="80" y="81" on="0"/>
        <pt x="65" y="170" on="0"/>
        <pt x="65" y="228" on="1"/>
        <pt x="65" y="376" on="0"/>
        <pt x="168" y="507" on="0"/>
        <pt x="283" y="507" on="1"/>
        <pt x="300" y="507" on="0"/>
        <pt x="328" y="505" on="0"/>
        <pt x="339" y="503" on="1"/>
        <pt x="339" y="700" on="1"/>
        <pt x="424" y="700" on="1"/>
        <pt x="424" y="0" on="1"/>
      </contour>
      <contour>
        <pt x="244" y="65" on="1"/>
        <pt x="267" y="65" on="0"/>
        <pt x="303" y="81" on="0"/>
        <pt x="327" y="107" on="0"/>
        <pt x="339" y="137" on="0"/>
        <pt x="339" y="150" on="1"/>
        <pt x="339" y="431" on="1"/>
        <pt x="328" y="433" on="0"/>
        <pt x="296" y="435" on="0"/>
        <pt x="273" y="435" on="1"/>
        <pt x="237" y="435" on="0"/>
        <pt x="191" y="406" on="0"/>
        <pt x="163" y="351" on="0"/>
        <pt x="152" y="270" on="0"/>
        <pt x="152" y="218" on="1"/>
        <pt x="152" y="173" on="0"/>
        <pt x="163" y="114" on="0"/>
        <pt x="185" y="79" on="0"/>
        <pt x="220" y="65" on="0"/>
      </contour>
    </TTGlyph>
    <TTGlyph name="dagger" xMin="55" yMin="0" xMax="416" yMax="700">
      <contour>
        <pt x="196" y="0" on="1"/>
        <pt x="196" y="425" on="1"/>
        <pt x="55" y="425" on="1"/>
        <pt x="55" y="500" on="1"/>
        <pt x="196" y="500" on="1"/>
        <pt x="196" y="700" on="1"/>
        <pt x="276" y="700" on="1"/>
        <pt x="276" y="500" on="1"/>
        <pt x="416" y="500" on="1"/>
        <pt x="416" y="425" on="1"/>
        <pt x="276" y="425" on="1"/>
        <pt x="276" y="0" on="1"/>
      </contour>
    </TTGlyph>
    <TTGlyph name="daggerdbl" xMin="55" yMin="0" xMax="416" yMax="700">
      <contour>
        <pt x="196" y="0" on="1"/>
        <pt x="196" y="210" on="1"/>
        <pt x="55" y="210" on="1"/>
        <pt x="55" y="285" on="1"/>
        <pt x="196" y="285" on="1"/>
        <pt x="196" y="425" on="1"/>
        <pt x="55" y="425" on="1"/>
        <pt x="55" y="500" on="1"/>
        <pt x="196" y="500" on="1"/>
        <pt x="196" y="700" on="1"/>
        <pt x="276" y="700" on="1"/>
        <pt x="276" y="500" on="1"/>
        <pt x="416" y="500" on="1"/>
        <pt x="416" y="425" on="1"/>
        <pt x="276" y="425" on="1"/>
        <pt x="276" y="285" on="1"/>
        <pt x="416" y="285" on="1"/>
        <pt x="416" y="210" on="1"/>
        <pt x="276" y="210" on="1"/>
        <pt x="276" y="0" on="1"/>
      </contour>
    </TTGlyph>
    <TTGlyph name="degree" xMin="30" yMin="392" xMax="333" yMax="705">
      <contour>
        <pt x="259" y="552" on="1"/>
        <pt x="259" y="569" on="0"/>
        <pt x="252" y="602" on="0"/>
        <pt x="234" y="627" on="0"/>
        <pt x="204" y="643" on="0"/>
        <pt x="181" y="643" on="1"/>
        <pt x="158" y="643" on="0"/>
        <pt x="128" y="627" on="0"/>
        <pt x="110" y="602" on="0"/>
        <pt x="103" y="569" on="0"/>
        <pt x="103" y="552" on="1"/>
        <pt x="103" y="535" on="0"/>
        <pt x="110" y="501" on="0"/>
        <pt x="128" y="473" on="0"/>
        <pt x="158" y="456" on="0"/>
        <pt x="181" y="456" on="1"/>
        <pt x="204" y="456" on="0"/>
        <pt x="234" y="473" on="0"/>
        <pt x="252" y="501" on="0"/>
        <pt x="259" y="535" on="0"/>
      </contour>
      <contour>
        <pt x="333" y="551" on="1"/>
        <pt x="333" y="518" on="0"/>
        <pt x="316" y="461" on="0"/>
        <pt x="280" y="417" on="0"/>
        <pt x="222" y="392" on="0"/>
        <pt x="181" y="392" on="1"/>
        <pt x="140" y="392" on="0"/>
        <pt x="83" y="418" on="0"/>
        <pt x="47" y="461" on="0"/>
        <pt x="30" y="519" on="0"/>
        <pt x="30" y="551" on="1"/>
        <pt x="30" y="583" on="0"/>
        <pt x="47" y="639" on="0"/>
        <pt x="83" y="681" on="0"/>
        <pt x="140" y="705" on="0"/>
        <pt x="181" y="705" on="1"/>
        <pt x="222" y="705" on="0"/>
        <pt x="280" y="681" on="0"/>
        <pt x="316" y="640" on="0"/>
        <pt x="333" y="584" on="0"/>
      </contour>
    </TTGlyph>
    <TTGlyph name="dieresis" xMin="35" yMin="595" xMax="320" yMax="675">
      <contour>
        <pt x="235" y="595" on="1"/>
        <pt x="235" y="675" on="1"/>
        <pt x="320" y="675" on="1"/>
        <pt x="320" y="595" on="1"/>
      </contour>
      <contour>
        <pt x="35" y="595" on="1"/>
        <pt x="35" y="675" on="1"/>
        <pt x="120" y="675" on="1"/>
        <pt x="120" y="595" on="1"/>
      </contour>
    </TTGlyph>
    <TTGlyph name="divide" xMin="85" yMin="65" xMax="465" yMax="560">
      <contour>
        <pt x="85" y="275" on="1"/>
        <pt x="85" y="350" on="1"/>
        <pt x="465" y="350" on="1"/>
        <pt x="465" y="275" on="1"/>
      </contour>
      <contour>
        <pt x="225" y="65" on="1"/>
        <pt x="225" y="165" on="1"/>
        <pt x="325" y="165" on="1"/>
        <pt x="325" y="65" on="1"/>
      </contour>
      <contour>
        <pt x="225" y="460" on="1"/>
        <pt x="225" y="560" on="1"/>
        <pt x="325" y="560" on="1"/>
        <pt x="325" y="460" on="1"/>
      </contour>
    </TTGlyph>
    <TTGlyph name="dollar" xMin="82" yMin="-110" xMax="388" yMax="780">
      <contour>
        <pt x="192" y="-110" on="1"/>
        <pt x="192" y="-5" on="1"/>
        <pt x="140" y="-3" on="0"/>
        <pt x="94" y="10" on="1"/>
        <pt x="94" y="83" on="1"/>
        <pt x="117" y="77" on="0"/>
        <pt x="175" y="68" on="0"/>
        <pt x="210" y="68" on="1"/>
        <pt x="262" y="68" on="0"/>
        <pt x="299" y="127" on="0"/>
        <pt x="299" y="184" on="1"/>
        <pt x="299" y="249" on="0"/>
        <pt x="263" y="303" on="0"/>
        <pt x="228" y="310" on="1"/>
        <pt x="151" y="326" on="0"/>
        <pt x="82" y="421" on="0"/>
        <pt x="82" y="494" on="1"/>
        <pt x="82" y="571" on="0"/>
        <pt x="140" y="652" on="0"/>
        <pt x="192" y="666" on="1"/>
        <pt x="192" y="780" on="1"/>
        <pt x="277" y="780" on="1"/>
        <pt x="277" y="675" on="1"/>
        <pt x="303" y="674" on="0"/>
        <pt x="345" y="665" on="0"/>
        <pt x="365" y="660" on="1"/>
        <pt x="365" y="587" on="1"/>
        <pt x="339" y="593" on="0"/>
        <pt x="285" y="602" on="0"/>
        <pt x="259" y="602" on="1"/>
        <pt x="240" y="602" on="0"/>
        <pt x="208" y="593" on="0"/>
        <pt x="184" y="570" on="0"/>
        <pt x="171" y="533" on="0"/>
        <pt x="171" y="505" on="1"/>
        <pt x="171" y="455" on="0"/>
        <pt x="200" y="401" on="0"/>
        <pt x="241" y="393" on="1"/>
        <pt x="277" y="386" on="0"/>
        <pt x="332" y="358" on="0"/>
        <pt x="369" y="311" on="0"/>
        <pt x="388" y="242" on="0"/>
        <pt x="388" y="194" on="1"/>
        <pt x="388" y="148" on="0"/>
        <pt x="373" y="82" on="0"/>
        <pt x="345" y="37" on="0"/>
        <pt x="304" y="10" on="0"/>
        <pt x="277" y="3" on="1"/>
        <pt x="277" y="-110" on="1"/>
      </contour>
    </TTGlyph>
    <TTGlyph name="dotaccent" xMin="35" yMin="615" xMax="120" yMax="700">
      <contour>
        <pt x="35" y="615" on="1"/>
        <pt x="35" y="700" on="1"/>
        <pt x="120" y="700" on="1"/>
        <pt x="120" y="615" on="1"/>
      </contour>
    </TTGlyph>
    <TTGlyph name="dotlessi" xMin="80" yMin="0" xMax="165" yMax="500">
      <contour>
        <pt x="80" y="0" on="1"/>
        <pt x="80" y="500" on="1"/>
        <pt x="165" y="500" on="1"/>
        <pt x="165" y="0" on="1"/>
      </contour>
    </TTGlyph>
    <TTGlyph name="dotmath" xMin="65" yMin="260" xMax="165" yMax="360">
      <contour>
        <pt x="65" y="260" on="1"/>
        <pt x="65" y="360" on="1"/>
        <pt x="165" y="360" on="1"/>
        <pt x="165" y="260" on="1"/>
      </contour>
    </TTGlyph>
    <TTGlyph name="e" xMin="65" yMin="-7" xMax="408" yMax="507">
      <contour>
        <pt x="150" y="220" on="1"/>
        <pt x="151" y="171" on="0"/>
        <pt x="164" y="110" on="0"/>
        <pt x="186" y="76" on="0"/>
        <pt x="216" y="65" on="0"/>
        <pt x="235" y="65" on="1"/>
        <pt x="277" y="65" on="0"/>
        <pt x="346" y="76" on="0"/>
        <pt x="369" y="81" on="1"/>
        <pt x="369" y="9" on="1"/>
        <pt x="345" y="2" on="0"/>
        <pt x="272" y="-7" on="0"/>
        <pt x="245" y="-7" on="1"/>
        <pt x="202" y="-7" on="0"/>
        <pt x="135" y="11" on="0"/>
        <pt x="89" y="65" on="0"/>
        <pt x="65" y="166" on="0"/>
        <pt x="65" y="250" on="1"/>
        <pt x="65" y="319" on="0"/>
        <pt x="88" y="417" on="0"/>
        <pt x="134" y="479" on="0"/>
        <pt x="202" y="507" on="0"/>
        <pt x="247" y="507" on="1"/>
        <pt x="333" y="507" on="0"/>
        <pt x="408" y="394" on="0"/>
        <pt x="408" y="295" on="1"/>
        <pt x="408" y="220" on="1"/>
      </contour>
      <contour>
        <pt x="245" y="436" on="1"/>
        <pt x="221" y="436" on="0"/>
        <pt x="187" y="422" on="0"/>
        <pt x="165" y="388" on="0"/>
        <pt x="153" y="331" on="0"/>
        <pt x="151" y="288" on="1"/>
        <pt x="325" y="288" on="1"/>
        <pt x="325" y="315" on="1"/>
        <pt x="325" y="372" on="0"/>
        <pt x="290" y="436" on="0"/>
      </contour>
    </TTGlyph>
    <TTGlyph name="eacute" xMin="65" yMin="-7" xMax="408" yMax="715">
      <contour>
        <pt x="150" y="220" on="1"/>
        <pt x="151" y="171" on="0"/>
        <pt x="164" y="110" on="0"/>
        <pt x="186" y="76" on="0"/>
        <pt x="216" y="65" on="0"/>
        <pt x="235" y="65" on="1"/>
        <pt x="277" y="65" on="0"/>
        <pt x="346" y="76" on="0"/>
        <pt x="369" y="81" on="1"/>
        <pt x="369" y="9" on="1"/>
        <pt x="345" y="2" on="0"/>
        <pt x="272" y="-7" on="0"/>
        <pt x="245" y="-7" on="1"/>
        <pt x="202" y="-7" on="0"/>
        <pt x="135" y="11" on="0"/>
        <pt x="89" y="65" on="0"/>
        <pt x="65" y="166" on="0"/>
        <pt x="65" y="250" on="1"/>
        <pt x="65" y="319" on="0"/>
        <pt x="88" y="417" on="0"/>
        <pt x="134" y="479" on="0"/>
        <pt x="202" y="507" on="0"/>
        <pt x="247" y="507" on="1"/>
        <pt x="333" y="507" on="0"/>
        <pt x="408" y="394" on="0"/>
        <pt x="408" y="295" on="1"/>
        <pt x="408" y="220" on="1"/>
      </contour>
      <contour>
        <pt x="245" y="436" on="1"/>
        <pt x="221" y="436" on="0"/>
        <pt x="187" y="422" on="0"/>
        <pt x="165" y="388" on="0"/>
        <pt x="153" y="331" on="0"/>
        <pt x="151" y="288" on="1"/>
        <pt x="325" y="288" on="1"/>
        <pt x="325" y="315" on="1"/>
        <pt x="325" y="372" on="0"/>
        <pt x="290" y="436" on="0"/>
      </contour>
      <contour>
        <pt x="182" y="580" on="1"/>
        <pt x="286" y="715" on="1"/>
        <pt x="395" y="715" on="1"/>
        <pt x="263" y="580" on="1"/>
      </contour>
    </TTGlyph>
    <TTGlyph name="ecircumflex" xMin="65" yMin="-7" xMax="408" yMax="715">
      <contour>
        <pt x="150" y="220" on="1"/>
        <pt x="151" y="171" on="0"/>
        <pt x="164" y="110" on="0"/>
        <pt x="186" y="76" on="0"/>
        <pt x="216" y="65" on="0"/>
        <pt x="235" y="65" on="1"/>
        <pt x="277" y="65" on="0"/>
        <pt x="346" y="76" on="0"/>
        <pt x="369" y="81" on="1"/>
        <pt x="369" y="9" on="1"/>
        <pt x="345" y="2" on="0"/>
        <pt x="272" y="-7" on="0"/>
        <pt x="245" y="-7" on="1"/>
        <pt x="202" y="-7" on="0"/>
        <pt x="135" y="11" on="0"/>
        <pt x="89" y="65" on="0"/>
        <pt x="65" y="166" on="0"/>
        <pt x="65" y="250" on="1"/>
        <pt x="65" y="319" on="0"/>
        <pt x="88" y="417" on="0"/>
        <pt x="134" y="479" on="0"/>
        <pt x="202" y="507" on="0"/>
        <pt x="247" y="507" on="1"/>
        <pt x="333" y="507" on="0"/>
        <pt x="408" y="394" on="0"/>
        <pt x="408" y="295" on="1"/>
        <pt x="408" y="220" on="1"/>
      </contour>
      <contour>
        <pt x="245" y="436" on="1"/>
        <pt x="221" y="436" on="0"/>
        <pt x="187" y="422" on="0"/>
        <pt x="165" y="388" on="0"/>
        <pt x="153" y="331" on="0"/>
        <pt x="151" y="288" on="1"/>
        <pt x="325" y="288" on="1"/>
        <pt x="325" y="315" on="1"/>
        <pt x="325" y="372" on="0"/>
        <pt x="290" y="436" on="0"/>
      </contour>
      <contour>
        <pt x="307" y="580" on="1"/>
        <pt x="247" y="664" on="1"/>
        <pt x="187" y="580" on="1"/>
        <pt x="91" y="580" on="1"/>
        <pt x="203" y="715" on="1"/>
        <pt x="291" y="715" on="1"/>
        <pt x="404" y="580" on="1"/>
      </contour>
    </TTGlyph>
    <TTGlyph name="edieresis" xMin="65" yMin="-7" xMax="408" yMax="675">
      <contour>
        <pt x="150" y="220" on="1"/>
        <pt x="151" y="171" on="0"/>
        <pt x="164" y="110" on="0"/>
        <pt x="186" y="76" on="0"/>
        <pt x="216" y="65" on="0"/>
        <pt x="235" y="65" on="1"/>
        <pt x="277" y="65" on="0"/>
        <pt x="346" y="76" on="0"/>
        <pt x="369" y="81" on="1"/>
        <pt x="369" y="9" on="1"/>
        <pt x="345" y="2" on="0"/>
        <pt x="272" y="-7" on="0"/>
        <pt x="245" y="-7" on="1"/>
        <pt x="202" y="-7" on="0"/>
        <pt x="135" y="11" on="0"/>
        <pt x="89" y="65" on="0"/>
        <pt x="65" y="166" on="0"/>
        <pt x="65" y="250" on="1"/>
        <pt x="65" y="319" on="0"/>
        <pt x="88" y="417" on="0"/>
        <pt x="134" y="479" on="0"/>
        <pt x="202" y="507" on="0"/>
        <pt x="247" y="507" on="1"/>
        <pt x="333" y="507" on="0"/>
        <pt x="408" y="394" on="0"/>
        <pt x="408" y="295" on="1"/>
        <pt x="408" y="220" on="1"/>
      </contour>
      <contour>
        <pt x="245" y="436" on="1"/>
        <pt x="221" y="436" on="0"/>
        <pt x="187" y="422" on="0"/>
        <pt x="165" y="388" on="0"/>
        <pt x="153" y="331" on="0"/>
        <pt x="151" y="288" on="1"/>
        <pt x="325" y="288" on="1"/>
        <pt x="325" y="315" on="1"/>
        <pt x="325" y="372" on="0"/>
        <pt x="290" y="436" on="0"/>
      </contour>
      <contour>
        <pt x="307" y="595" on="1"/>
        <pt x="307" y="675" on="1"/>
        <pt x="392" y="675" on="1"/>
        <pt x="392" y="595" on="1"/>
      </contour>
      <contour>
        <pt x="107" y="595" on="1"/>
        <pt x="107" y="675" on="1"/>
        <pt x="192" y="675" on="1"/>
        <pt x="192" y="595" on="1"/>
      </contour>
    </TTGlyph>
    <TTGlyph name="egrave" xMin="65" yMin="-7" xMax="408" yMax="715">
      <contour>
        <pt x="150" y="220" on="1"/>
        <pt x="151" y="171" on="0"/>
        <pt x="164" y="110" on="0"/>
        <pt x="186" y="76" on="0"/>
        <pt x="216" y="65" on="0"/>
        <pt x="235" y="65" on="1"/>
        <pt x="277" y="65" on="0"/>
        <pt x="346" y="76" on="0"/>
        <pt x="369" y="81" on="1"/>
        <pt x="369" y="9" on="1"/>
        <pt x="345" y="2" on="0"/>
        <pt x="272" y="-7" on="0"/>
        <pt x="245" y="-7" on="1"/>
        <pt x="202" y="-7" on="0"/>
        <pt x="135" y="11" on="0"/>
        <pt x="89" y="65" on="0"/>
        <pt x="65" y="166" on="0"/>
        <pt x="65" y="250" on="1"/>
        <pt x="65" y="319" on="0"/>
        <pt x="88" y="417" on="0"/>
        <pt x="134" y="479" on="0"/>
        <pt x="202" y="507" on="0"/>
        <pt x="247" y="507" on="1"/>
        <pt x="333" y="507" on="0"/>
        <pt x="408" y="394" on="0"/>
        <pt x="408" y="295" on="1"/>
        <pt x="408" y="220" on="1"/>
      </contour>
      <contour>
        <pt x="245" y="436" on="1"/>
        <pt x="221" y="436" on="0"/>
        <pt x="187" y="422" on="0"/>
        <pt x="165" y="388" on="0"/>
        <pt x="153" y="331" on="0"/>
        <pt x="151" y="288" on="1"/>
        <pt x="325" y="288" on="1"/>
        <pt x="325" y="315" on="1"/>
        <pt x="325" y="372" on="0"/>
        <pt x="290" y="436" on="0"/>
      </contour>
      <contour>
        <pt x="238" y="580" on="1"/>
        <pt x="106" y="715" on="1"/>
        <pt x="215" y="715" on="1"/>
        <pt x="319" y="580" on="1"/>
      </contour>
    </TTGlyph>
    <TTGlyph name="eight" xMin="55" yMin="-7" xMax="431" yMax="707">
      <contour>
        <pt x="345" y="188" on="1"/>
        <pt x="345" y="228" on="0"/>
        <pt x="336" y="284" on="0"/>
        <pt x="308" y="319" on="0"/>
        <pt x="254" y="335" on="0"/>
        <pt x="209" y="335" on="1"/>
        <pt x="189" y="324" on="0"/>
        <pt x="162" y="301" on="0"/>
        <pt x="147" y="268" on="0"/>
        <pt x="141" y="222" on="0"/>
        <pt x="141" y="188" on="1"/>
        <pt x="141" y="117" on="0"/>
        <pt x="191" y="64" on="0"/>
        <pt x="243" y="64" on="1"/>
        <pt x="295" y="64" on="0"/>
        <pt x="345" y="117" on="0"/>
      </contour>
      <contour>
        <pt x="333" y="523" on="1"/>
        <pt x="333" y="579" on="0"/>
        <pt x="294" y="636" on="0"/>
        <pt x="243" y="636" on="1"/>
        <pt x="192" y="636" on="0"/>
        <pt x="153" y="579" on="0"/>
        <pt x="153" y="523" on="1"/>
        <pt x="153" y="489" on="0"/>
        <pt x="163" y="440" on="0"/>
        <pt x="189" y="410" on="0"/>
        <pt x="236" y="396" on="0"/>
        <pt x="272" y="396" on="1"/>
        <pt x="308" y="411" on="0"/>
        <pt x="333" y="480" on="0"/>
      </contour>
      <contour>
        <pt x="431" y="198" on="1"/>
        <pt x="431" y="93" on="0"/>
        <pt x="344" y="-7" on="0"/>
        <pt x="243" y="-7" on="1"/>
        <pt x="142" y="-7" on="0"/>
        <pt x="55" y="93" on="0"/>
        <pt x="55" y="198" on="1"/>
        <pt x="55" y="239" on="0"/>
        <pt x="70" y="292" on="0"/>
        <pt x="95" y="327" on="0"/>
        <pt x="126" y="350" on="0"/>
        <pt x="142" y="360" on="1"/>
        <pt x="106" y="377" on="0"/>
        <pt x="68" y="463" on="0"/>
        <pt x="68" y="514" on="1"/>
        <pt x="68" y="570" on="0"/>
        <pt x="94" y="644" on="0"/>
        <pt x="140" y="689" on="0"/>
        <pt x="204" y="707" on="0"/>
        <pt x="243" y="707" on="1"/>
        <pt x="282" y="707" on="0"/>
        <pt x="346" y="689" on="0"/>
        <pt x="392" y="644" on="0"/>
        <pt x="418" y="570" on="0"/>
        <pt x="418" y="514" on="1"/>
        <pt x="418" y="464" on="0"/>
        <pt x="386" y="398" on="0"/>
        <pt x="339" y="372" on="1"/>
        <pt x="388" y="361" on="0"/>
        <pt x="431" y="272" on="0"/>
      </contour>
    </TTGlyph>
    <TTGlyph name="ellipsis" xMin="65" yMin="0" xMax="605" yMax="100">
      <contour>
        <pt x="65" y="0" on="1"/>
        <pt x="65" y="100" on="1"/>
        <pt x="165" y="100" on="1"/>
        <pt x="165" y="0" on="1"/>
      </contour>
      <contour>
        <pt x="285" y="0" on="1"/>
        <pt x="285" y="100" on="1"/>
        <pt x="385" y="100" on="1"/>
        <pt x="385" y="0" on="1"/>
      </contour>
      <contour>
        <pt x="505" y="0" on="1"/>
        <pt x="505" y="100" on="1"/>
        <pt x="605" y="100" on="1"/>
        <pt x="605" y="0" on="1"/>
      </contour>
    </TTGlyph>
    <TTGlyph name="emdash" xMin="65" yMin="275" xMax="540" yMax="350">
      <contour>
        <pt x="65" y="275" on="1"/>
        <pt x="65" y="350" on="1"/>
        <pt x="540" y="350" on="1"/>
        <pt x="540" y="275" on="1"/>
      </contour>
    </TTGlyph>
    <TTGlyph name="endash" xMin="85" yMin="275" xMax="465" yMax="350">
      <contour>
        <pt x="85" y="275" on="1"/>
        <pt x="85" y="350" on="1"/>
        <pt x="465" y="350" on="1"/>
        <pt x="465" y="275" on="1"/>
      </contour>
    </TTGlyph>
    <TTGlyph name="equal" xMin="85" yMin="175" xMax="465" yMax="450">
      <contour>
        <pt x="85" y="175" on="1"/>
        <pt x="85" y="250" on="1"/>
        <pt x="465" y="250" on="1"/>
        <pt x="465" y="175" on="1"/>
      </contour>
      <contour>
        <pt x="85" y="375" on="1"/>
        <pt x="85" y="450" on="1"/>
        <pt x="465" y="450" on="1"/>
        <pt x="465" y="375" on="1"/>
      </contour>
    </TTGlyph>
    <TTGlyph name="eth" xMin="70" yMin="-7" xMax="428" yMax="750">
      <contour>
        <pt x="239" y="556" on="1"/>
        <pt x="157" y="556" on="1"/>
        <pt x="201" y="632" on="1"/>
        <pt x="182" y="634" on="0"/>
        <pt x="139" y="635" on="0"/>
        <pt x="114" y="637" on="1"/>
        <pt x="114" y="707" on="1"/>
        <pt x="149" y="705" on="0"/>
        <pt x="211" y="702" on="0"/>
        <pt x="239" y="697" on="1"/>
        <pt x="270" y="750" on="1"/>
        <pt x="352" y="750" on="1"/>
        <pt x="310" y="678" on="1"/>
        <pt x="339" y="666" on="0"/>
        <pt x="383" y="623" on="0"/>
        <pt x="413" y="554" on="0"/>
        <pt x="428" y="457" on="0"/>
        <pt x="428" y="389" on="1"/>
        <pt x="428" y="265" on="0"/>
        <pt x="410" y="111" on="0"/>
        <pt x="368" y="24" on="0"/>
        <pt x="298" y="-7" on="0"/>
        <pt x="246" y="-7" on="1"/>
        <pt x="209" y="-7" on="0"/>
        <pt x="144" y="16" on="0"/>
        <pt x="97" y="69" on="0"/>
        <pt x="70" y="156" on="0"/>
        <pt x="70" y="220" on="1"/>
        <pt x="70" y="274" on="0"/>
        <pt x="81" y="364" on="0"/>
        <pt x="116" y="428" on="0"/>
        <pt x="180" y="464" on="0"/>
        <pt x="232" y="464" on="1"/>
        <pt x="269" y="464" on="0"/>
        <pt x="324" y="444" on="0"/>
        <pt x="341" y="433" on="1"/>
        <pt x="337" y="515" on="0"/>
        <pt x="305" y="597" on="0"/>
        <pt x="272" y="614" on="1"/>
      </contour>
      <contour>
        <pt x="239" y="392" on="1"/>
        <pt x="212" y="392" on="0"/>
        <pt x="179" y="367" on="0"/>
        <pt x="161" y="320" on="0"/>
        <pt x="155" y="253" on="0"/>
        <pt x="155" y="211" on="1"/>
        <pt x="155" y="140" on="0"/>
        <pt x="194" y="65" on="0"/>
        <pt x="252" y="65" on="1"/>
        <pt x="275" y="65" on="0"/>
        <pt x="308" y="85" on="0"/>
        <pt x="331" y="148" on="0"/>
        <pt x="343" y="266" on="0"/>
        <pt x="343" y="364" on="1"/>
        <pt x="332" y="369" on="0"/>
        <pt x="277" y="392" on="0"/>
      </contour>
    </TTGlyph>
    <TTGlyph name="exclam" xMin="75" yMin="0" xMax="175" yMax="700">
      <contour>
        <pt x="75" y="0" on="1"/>
        <pt x="75" y="100" on="1"/>
        <pt x="175" y="100" on="1"/>
        <pt x="175" y="0" on="1"/>
      </contour>
      <contour>
        <pt x="82" y="208" on="1"/>
        <pt x="82" y="700" on="1"/>
        <pt x="167" y="700" on="1"/>
        <pt x="167" y="208" on="1"/>
      </contour>
    </TTGlyph>
    <TTGlyph name="exclamdown" xMin="75" yMin="-200" xMax="175" yMax="500">
      <contour>
        <pt x="175" y="500" on="1"/>
        <pt x="175" y="400" on="1"/>
        <pt x="75" y="400" on="1"/>
        <pt x="75" y="500" on="1"/>
      </contour>
      <contour>
        <pt x="168" y="292" on="1"/>
        <pt x="168" y="-200" on="1"/>
        <pt x="83" y="-200" on="1"/>
        <pt x="83" y="292" on="1"/>
      </contour>
    </TTGlyph>
    <TTGlyph name="f" xMin="30" yMin="0" xMax="316" yMax="707">
      <contour>
        <pt x="180" y="427" on="1"/>
        <pt x="180" y="0" on="1"/>
        <pt x="95" y="0" on="1"/>
        <pt x="95" y="427" on="1"/>
        <pt x="30" y="427" on="1"/>
        <pt x="30" y="500" on="1"/>
        <pt x="95" y="500" on="1"/>
        <pt x="95" y="578" on="1"/>
        <pt x="95" y="643" on="0"/>
        <pt x="165" y="707" on="0"/>
        <pt x="222" y="707" on="1"/>
        <pt x="254" y="707" on="0"/>
        <pt x="301" y="698" on="0"/>
        <pt x="316" y="695" on="1"/>
        <pt x="316" y="624" on="1"/>
        <pt x="300" y="628" on="0"/>
        <pt x="262" y="635" on="0"/>
        <pt x="235" y="635" on="1"/>
        <pt x="208" y="635" on="0"/>
        <pt x="180" y="607" on="0"/>
        <pt x="180" y="585" on="1"/>
        <pt x="180" y="500" on="1"/>
        <pt x="301" y="500" on="1"/>
        <pt x="301" y="427" on="1"/>
      </contour>
    </TTGlyph>
    <TTGlyph name="fi" xMin="30" yMin="0" xMax="435" yMax="707">
      <contour>
        <pt x="414" y="617" on="1"/>
        <pt x="377" y="628" on="0"/>
        <pt x="302" y="637" on="0"/>
        <pt x="275" y="637" on="1"/>
        <pt x="244" y="637" on="0"/>
        <pt x="207" y="627" on="0"/>
        <pt x="187" y="609" on="0"/>
        <pt x="180" y="582" on="0"/>
        <pt x="180" y="565" on="1"/>
        <pt x="180" y="500" on="1"/>
        <pt x="435" y="500" on="1"/>
        <pt x="435" y="0" on="1"/>
        <pt x="350" y="0" on="1"/>
        <pt x="350" y="427" on="1"/>
        <pt x="180" y="427" on="1"/>
        <pt x="180" y="0" on="1"/>
        <pt x="95" y="0" on="1"/>
        <pt x="95" y="427" on="1"/>
        <pt x="30" y="427" on="1"/>
        <pt x="30" y="500" on="1"/>
        <pt x="95" y="500" on="1"/>
        <pt x="95" y="558" on="1"/>
        <pt x="95" y="593" on="0"/>
        <pt x="112" y="649" on="0"/>
        <pt x="151" y="687" on="0"/>
        <pt x="215" y="707" on="0"/>
        <pt x="262" y="707" on="1"/>
        <pt x="294" y="707" on="0"/>
        <pt x="374" y="696" on="0"/>
        <pt x="414" y="687" on="1"/>
      </contour>
    </TTGlyph>
    <TTGlyph name="five" xMin="55" yMin="-177" xMax="350" yMax="515">
      <contour>
        <pt x="150" y="442" on="1"/>
        <pt x="150" y="247" on="1"/>
        <pt x="170" y="247" on="1"/>
        <pt x="224" y="247" on="0"/>
        <pt x="294" y="223" on="0"/>
        <pt x="334" y="172" on="0"/>
        <pt x="350" y="94" on="0"/>
        <pt x="350" y="40" on="1"/>
        <pt x="350" y="-23" on="0"/>
        <pt x="328" y="-106" on="0"/>
        <pt x="285" y="-156" on="0"/>
        <pt x="221" y="-177" on="0"/>
        <pt x="180" y="-177" on="1"/>
        <pt x="142" y="-177" on="0"/>
        <pt x="78" y="-165" on="0"/>
        <pt x="55" y="-160" on="1"/>
        <pt x="55" y="-87" on="1"/>
        <pt x="69" y="-90" on="0"/>
        <pt x="142" y="-104" on="0"/>
        <pt x="184" y="-104" on="1"/>
        <pt x="229" y="-104" on="0"/>
        <pt x="264" y="-34" on="0"/>
        <pt x="264" y="30" on="1"/>
        <pt x="264" y="73" on="0"/>
        <pt x="255" y="129" on="0"/>
        <pt x="234" y="161" on="0"/>
        <pt x="200" y="174" on="0"/>
        <pt x="175" y="174" on="1"/>
        <pt x="65" y="174" on="1"/>
        <pt x="65" y="515" on="1"/>
        <pt x="330" y="515" on="1"/>
        <pt x="330" y="442" on="1"/>
      </contour>
    </TTGlyph>
    <TTGlyph name="fl" xMin="30" yMin="-2" xMax="495" yMax="707">
      <contour>
        <pt x="180" y="427" on="1"/>
        <pt x="180" y="0" on="1"/>
        <pt x="95" y="0" on="1"/>
        <pt x="95" y="427" on="1"/>
        <pt x="30" y="427" on="1"/>
        <pt x="30" y="500" on="1"/>
        <pt x="95" y="500" on="1"/>
        <pt x="95" y="558" on="1"/>
        <pt x="95" y="593" on="0"/>
        <pt x="112" y="649" on="0"/>
        <pt x="151" y="687" on="0"/>
        <pt x="215" y="707" on="0"/>
        <pt x="262" y="707" on="1"/>
        <pt x="294" y="707" on="0"/>
        <pt x="341" y="702" on="0"/>
        <pt x="350" y="700" on="1"/>
        <pt x="435" y="700" on="1"/>
        <pt x="435" y="117" on="1"/>
        <pt x="435" y="91" on="0"/>
        <pt x="448" y="70" on="0"/>
        <pt x="468" y="70" on="1"/>
        <pt x="476" y="70" on="0"/>
        <pt x="491" y="74" on="0"/>
        <pt x="495" y="75" on="1"/>
        <pt x="495" y="5" on="1"/>
        <pt x="484" y="3" on="0"/>
        <pt x="455" y="-2" on="0"/>
        <pt x="435" y="-2" on="1"/>
        <pt x="420" y="-2" on="0"/>
        <pt x="390" y="8" on="0"/>
        <pt x="366" y="34" on="0"/>
        <pt x="350" y="78" on="0"/>
        <pt x="350" y="112" on="1"/>
        <pt x="350" y="632" on="1"/>
        <pt x="329" y="634" on="0"/>
        <pt x="290" y="637" on="0"/>
        <pt x="275" y="637" on="1"/>
        <pt x="244" y="637" on="0"/>
        <pt x="207" y="627" on="0"/>
        <pt x="187" y="609" on="0"/>
        <pt x="180" y="582" on="0"/>
        <pt x="180" y="565" on="1"/>
        <pt x="180" y="500" on="1"/>
        <pt x="276" y="500" on="1"/>
        <pt x="276" y="427" on="1"/>
      </contour>
    </TTGlyph>
    <TTGlyph name="florin" xMin="-31" yMin="-175" xMax="316" yMax="707">
      <contour>
        <pt x="180" y="427" on="1"/>
        <pt x="180" y="-43" on="1"/>
        <pt x="180" y="-71" on="0"/>
        <pt x="164" y="-119" on="0"/>
        <pt x="133" y="-155" on="0"/>
        <pt x="87" y="-175" on="0"/>
        <pt x="56" y="-175" on="1"/>
        <pt x="32" y="-175" on="0"/>
        <pt x="-11" y="-172" on="0"/>
        <pt x="-31" y="-170" on="1"/>
        <pt x="-31" y="-99" on="1"/>
        <pt x="-15" y="-101" on="0"/>
        <pt x="31" y="-103" on="0"/>
        <pt x="43" y="-103" on="1"/>
        <pt x="95" y="-103" on="0"/>
        <pt x="95" y="-48" on="1"/>
        <pt x="95" y="427" on="1"/>
        <pt x="30" y="427" on="1"/>
        <pt x="30" y="500" on="1"/>
        <pt x="95" y="500" on="1"/>
        <pt x="95" y="578" on="1"/>
        <pt x="95" y="643" on="0"/>
        <pt x="165" y="707" on="0"/>
        <pt x="222" y="707" on="1"/>
        <pt x="254" y="707" on="0"/>
        <pt x="301" y="698" on="0"/>
        <pt x="316" y="695" on="1"/>
        <pt x="316" y="624" on="1"/>
        <pt x="300" y="628" on="0"/>
        <pt x="262" y="635" on="0"/>
        <pt x="235" y="635" on="1"/>
        <pt x="208" y="635" on="0"/>
        <pt x="180" y="607" on="0"/>
        <pt x="180" y="585" on="1"/>
        <pt x="180" y="500" on="1"/>
        <pt x="301" y="500" on="1"/>
        <pt x="301" y="427" on="1"/>
      </contour>
    </TTGlyph>
    <TTGlyph name="four" xMin="50" yMin="-170" xMax="403" yMax="515">
      <contour>
        <pt x="333" y="0" on="1"/>
        <pt x="333" y="-170" on="1"/>
        <pt x="250" y="-170" on="1"/>
        <pt x="250" y="0" on="1"/>
        <pt x="50" y="0" on="1"/>
        <pt x="50" y="84" on="1"/>
        <pt x="149" y="515" on="1"/>
        <pt x="230" y="515" on="1"/>
        <pt x="133" y="73" on="1"/>
        <pt x="250" y="73" on="1"/>
        <pt x="258" y="272" on="1"/>
        <pt x="333" y="272" on="1"/>
        <pt x="333" y="73" on="1"/>
        <pt x="403" y="73" on="1"/>
        <pt x="403" y="0" on="1"/>
      </contour>
    </TTGlyph>
    <TTGlyph name="fraction" xMin="-85" yMin="-100" xMax="315" yMax="810">
      <contour>
        <pt x="-5" y="-100" on="1"/>
        <pt x="-85" y="-100" on="1"/>
        <pt x="235" y="810" on="1"/>
        <pt x="315" y="810" on="1"/>
      </contour>
    </TTGlyph>
    <TTGlyph name="g" xMin="60" yMin="-190" xMax="491" yMax="507">
      <contour>
        <pt x="445" y="325" on="1"/>
        <pt x="445" y="240" on="0"/>
        <pt x="346" y="157" on="0"/>
        <pt x="243" y="157" on="1"/>
        <pt x="206" y="157" on="0"/>
        <pt x="177" y="163" on="1"/>
        <pt x="167" y="141" on="0"/>
        <pt x="167" y="120" on="1"/>
        <pt x="167" y="107" on="0"/>
        <pt x="172" y="92" on="1"/>
        <pt x="206" y="95" on="0"/>
        <pt x="272" y="100" on="0"/>
        <pt x="297" y="100" on="1"/>
        <pt x="333" y="100" on="0"/>
        <pt x="394" y="88" on="0"/>
        <pt x="438" y="55" on="0"/>
        <pt x="463" y="-3" on="0"/>
        <pt x="463" y="-49" on="1"/>
        <pt x="463" y="-87" on="0"/>
        <pt x="434" y="-140" on="0"/>
        <pt x="383" y="-174" on="0"/>
        <pt x="314" y="-190" on="0"/>
        <pt x="274" y="-190" on="1"/>
        <pt x="255" y="-190" on="0"/>
        <pt x="201" y="-186" on="0"/>
        <pt x="146" y="-181" on="0"/>
        <pt x="97" y="-175" on="0"/>
        <pt x="83" y="-172" on="1"/>
        <pt x="83" y="-100" on="1"/>
        <pt x="102" y="-103" on="0"/>
        <pt x="151" y="-110" on="0"/>
        <pt x="204" y="-114" on="0"/>
        <pt x="258" y="-117" on="0"/>
        <pt x="282" y="-117" on="1"/>
        <pt x="333" y="-117" on="0"/>
        <pt x="376" y="-78" on="0"/>
        <pt x="376" y="-49" on="1"/>
        <pt x="376" y="-11" on="0"/>
        <pt x="341" y="25" on="0"/>
        <pt x="292" y="25" on="1"/>
        <pt x="278" y="25" on="0"/>
        <pt x="234" y="23" on="0"/>
        <pt x="187" y="20" on="0"/>
        <pt x="142" y="16" on="0"/>
        <pt x="127" y="14" on="1"/>
        <pt x="110" y="30" on="0"/>
        <pt x="85" y="85" on="0"/>
        <pt x="85" y="108" on="1"/>
        <pt x="85" y="138" on="0"/>
        <pt x="99" y="178" on="0"/>
        <pt x="112" y="192" on="1"/>
        <pt x="83" y="214" on="0"/>
        <pt x="60" y="284" on="0"/>
        <pt x="60" y="333" on="1"/>
        <pt x="60" y="387" on="0"/>
        <pt x="94" y="455" on="0"/>
        <pt x="151" y="493" on="0"/>
        <pt x="226" y="507" on="0"/>
        <pt x="268" y="507" on="1"/>
        <pt x="312" y="507" on="0"/>
        <pt x="346" y="493" on="1"/>
        <pt x="491" y="500" on="1"/>
        <pt x="491" y="425" on="1"/>
        <pt x="422" y="428" on="1"/>
        <pt x="445" y="385" on="0"/>
      </contour>
      <contour>
        <pt x="360" y="333" on="1"/>
        <pt x="360" y="354" on="0"/>
        <pt x="351" y="391" on="0"/>
        <pt x="327" y="419" on="0"/>
        <pt x="288" y="436" on="0"/>
        <pt x="258" y="436" on="1"/>
        <pt x="193" y="436" on="0"/>
        <pt x="145" y="383" on="0"/>
        <pt x="145" y="325" on="1"/>
        <pt x="145" y="304" on="0"/>
        <pt x="154" y="267" on="0"/>
        <pt x="176" y="241" on="0"/>
        <pt x="214" y="226" on="0"/>
        <pt x="243" y="226" on="1"/>
        <pt x="268" y="226" on="0"/>
        <pt x="311" y="234" on="0"/>
        <pt x="342" y="257" on="0"/>
        <pt x="360" y="299" on="0"/>
      </contour>
    </TTGlyph>
    <TTGlyph name="germandbls" xMin="80" yMin="-7" xMax="459" yMax="707">
      <contour>
        <pt x="459" y="156" on="1"/>
        <pt x="459" y="66" on="0"/>
        <pt x="370" y="-7" on="0"/>
        <pt x="290" y="-7" on="1"/>
        <pt x="285" y="-7" on="0"/>
        <pt x="267" y="-6" on="0"/>
        <pt x="246" y="-3" on="0"/>
        <pt x="225" y="0" on="0"/>
        <pt x="218" y="2" on="1"/>
        <pt x="218" y="76" on="1"/>
        <pt x="235" y="71" on="0"/>
        <pt x="276" y="65" on="0"/>
        <pt x="293" y="65" on="1"/>
        <pt x="334" y="65" on="0"/>
        <pt x="370" y="117" on="0"/>
        <pt x="370" y="151" on="1"/>
        <pt x="370" y="171" on="0"/>
        <pt x="363" y="202" on="0"/>
        <pt x="345" y="226" on="0"/>
        <pt x="316" y="246" on="0"/>
        <pt x="295" y="256" on="1"/>
        <pt x="252" y="276" on="0"/>
        <pt x="214" y="329" on="0"/>
        <pt x="214" y="377" on="1"/>
        <pt x="214" y="429" on="0"/>
        <pt x="278" y="487" on="0"/>
        <pt x="332" y="496" on="1"/>
        <pt x="337" y="510" on="0"/>
        <pt x="341" y="542" on="0"/>
        <pt x="341" y="562" on="1"/>
        <pt x="341" y="589" on="0"/>
        <pt x="298" y="635" on="0"/>
        <pt x="249" y="635" on="1"/>
        <pt x="211" y="635" on="0"/>
        <pt x="165" y="589" on="0"/>
        <pt x="165" y="540" on="1"/>
        <pt x="165" y="0" on="1"/>
        <pt x="80" y="0" on="1"/>
        <pt x="80" y="533" on="1"/>
        <pt x="80" y="617" on="0"/>
        <pt x="172" y="707" on="0"/>
        <pt x="251" y="707" on="1"/>
        <pt x="293" y="707" on="0"/>
        <pt x="354" y="684" on="0"/>
        <pt x="395" y="644" on="0"/>
        <pt x="415" y="589" on="0"/>
        <pt x="415" y="557" on="1"/>
        <pt x="415" y="539" on="0"/>
        <pt x="413" y="510" on="0"/>
        <pt x="409" y="482" on="0"/>
        <pt x="403" y="452" on="0"/>
        <pt x="399" y="433" on="1"/>
        <pt x="339" y="433" on="0"/>
        <pt x="294" y="401" on="0"/>
        <pt x="294" y="372" on="1"/>
        <pt x="294" y="358" on="0"/>
        <pt x="309" y="334" on="0"/>
        <pt x="328" y="326" on="1"/>
        <pt x="353" y="316" on="0"/>
        <pt x="400" y="288" on="0"/>
        <pt x="437" y="248" on="0"/>
        <pt x="459" y="194" on="0"/>
      </contour>
    </TTGlyph>
    <TTGlyph name="grave" xMin="47" yMin="580" xMax="260" yMax="715">
      <contour>
        <pt x="179" y="580" on="1"/>
        <pt x="47" y="715" on="1"/>
        <pt x="156" y="715" on="1"/>
        <pt x="260" y="580" on="1"/>
      </contour>
    </TTGlyph>
    <TTGlyph name="greater" xMin="85" yMin="105" xMax="465" yMax="564">
      <contour>
        <pt x="85" y="105" on="1"/>
        <pt x="85" y="199" on="1"/>
        <pt x="401" y="336" on="1"/>
        <pt x="85" y="472" on="1"/>
        <pt x="85" y="564" on="1"/>
        <pt x="465" y="385" on="1"/>
        <pt x="465" y="280" on="1"/>
      </contour>
    </TTGlyph>
    <TTGlyph name="greaterequal" xMin="85" yMin="0" xMax="465" yMax="564">
      <contour>
        <pt x="85" y="125" on="1"/>
        <pt x="85" y="219" on="1"/>
        <pt x="393" y="336" on="1"/>
        <pt x="85" y="472" on="1"/>
        <pt x="85" y="564" on="1"/>
        <pt x="465" y="385" on="1"/>
        <pt x="465" y="280" on="1"/>
      </contour>
      <contour>
        <pt x="85" y="0" on="1"/>
        <pt x="85" y="75" on="1"/>
        <pt x="465" y="75" on="1"/>
        <pt x="465" y="0" on="1"/>
      </contour>
    </TTGlyph>
    <TTGlyph name="guillemotleft" xMin="75" yMin="92" xMax="390" yMax="506">
      <contour>
        <pt x="164" y="92" on="1"/>
        <pt x="75" y="299" on="1"/>
        <pt x="164" y="506" on="1"/>
        <pt x="230" y="506" on="1"/>
        <pt x="167" y="299" on="1"/>
        <pt x="230" y="92" on="1"/>
      </contour>
      <contour>
        <pt x="324" y="92" on="1"/>
        <pt x="235" y="299" on="1"/>
        <pt x="324" y="506" on="1"/>
        <pt x="390" y="506" on="1"/>
        <pt x="327" y="299" on="1"/>
        <pt x="390" y="92" on="1"/>
      </contour>
    </TTGlyph>
    <TTGlyph name="guillemotright" xMin="75" yMin="92" xMax="390" yMax="506">
      <contour>
        <pt x="235" y="92" on="1"/>
        <pt x="298" y="299" on="1"/>
        <pt x="235" y="506" on="1"/>
        <pt x="301" y="506" on="1"/>
        <pt x="390" y="299" on="1"/>
        <pt x="301" y="92" on="1"/>
      </contour>
      <contour>
        <pt x="75" y="92" on="1"/>
        <pt x="138" y="299" on="1"/>
        <pt x="75" y="506" on="1"/>
        <pt x="141" y="506" on="1"/>
        <pt x="230" y="299" on="1"/>
        <pt x="141" y="92" on="1"/>
      </contour>
    </TTGlyph>
    <TTGlyph name="guilsinglleft" xMin="75" yMin="92" xMax="230" yMax="506">
      <contour>
        <pt x="164" y="92" on="1"/>
        <pt x="75" y="299" on="1"/>
        <pt x="164" y="506" on="1"/>
        <pt x="230" y="506" on="1"/>
        <pt x="167" y="299" on="1"/>
        <pt x="230" y="92" on="1"/>
      </contour>
    </TTGlyph>
    <TTGlyph name="guilsinglright" xMin="75" yMin="92" xMax="230" yMax="506">
      <contour>
        <pt x="75" y="92" on="1"/>
        <pt x="138" y="299" on="1"/>
        <pt x="75" y="506" on="1"/>
        <pt x="141" y="506" on="1"/>
        <pt x="230" y="299" on="1"/>
        <pt x="141" y="92" on="1"/>
      </contour>
    </TTGlyph>
    <TTGlyph name="h" xMin="80" yMin="0" xMax="431" yMax="700">
      <contour>
        <pt x="80" y="0" on="1"/>
        <pt x="80" y="700" on="1"/>
        <pt x="165" y="700" on="1"/>
        <pt x="165" y="463" on="1"/>
        <pt x="188" y="484" on="0"/>
        <pt x="245" y="507" on="0"/>
        <pt x="280" y="507" on="1"/>
        <pt x="323" y="507" on="0"/>
        <pt x="381" y="486" on="0"/>
        <pt x="416" y="443" on="0"/>
        <pt x="431" y="376" on="0"/>
        <pt x="431" y="330" on="1"/>
        <pt x="431" y="0" on="1"/>
        <pt x="346" y="0" on="1"/>
        <pt x="346" y="340" on="1"/>
        <pt x="346" y="387" on="0"/>
        <pt x="315" y="435" on="0"/>
        <pt x="265" y="435" on="1"/>
        <pt x="244" y="435" on="0"/>
        <pt x="207" y="419" on="0"/>
        <pt x="180" y="393" on="0"/>
        <pt x="165" y="364" on="0"/>
        <pt x="165" y="350" on="1"/>
        <pt x="165" y="0" on="1"/>
      </contour>
    </TTGlyph>
    <TTGlyph name="hungarumlaut" xMin="35" yMin="598" xMax="428" yMax="745">
      <contour>
        <pt x="111" y="598" on="1"/>
        <pt x="35" y="598" on="1"/>
        <pt x="138" y="745" on="1"/>
        <pt x="258" y="745" on="1"/>
      </contour>
      <contour>
        <pt x="281" y="598" on="1"/>
        <pt x="205" y="598" on="1"/>
        <pt x="308" y="745" on="1"/>
        <pt x="428" y="745" on="1"/>
      </contour>
    </TTGlyph>
    <TTGlyph name="hyphen" xMin="85" yMin="275" xMax="410" yMax="350">
      <contour>
        <pt x="85" y="275" on="1"/>
        <pt x="85" y="350" on="1"/>
        <pt x="410" y="350" on="1"/>
        <pt x="410" y="275" on="1"/>
      </contour>
    </TTGlyph>
    <TTGlyph name="i" xMin="75" yMin="0" xMax="170" yMax="700">
      <contour>
        <pt x="75" y="610" on="1"/>
        <pt x="75" y="700" on="1"/>
        <pt x="170" y="700" on="1"/>
        <pt x="170" y="610" on="1"/>
      </contour>
      <contour>
        <pt x="80" y="0" on="1"/>
        <pt x="80" y="500" on="1"/>
        <pt x="165" y="500" on="1"/>
        <pt x="165" y="0" on="1"/>
      </contour>
    </TTGlyph>
    <TTGlyph name="iacute" xMin="55" yMin="0" xMax="268" yMax="715">
      <contour>
        <pt x="80" y="0" on="1"/>
        <pt x="80" y="500" on="1"/>
        <pt x="165" y="500" on="1"/>
        <pt x="165" y="0" on="1"/>
      </contour>
      <contour>
        <pt x="55" y="580" on="1"/>
        <pt x="159" y="715" on="1"/>
        <pt x="268" y="715" on="1"/>
        <pt x="136" y="580" on="1"/>
      </contour>
    </TTGlyph>
    <TTGlyph name="icircumflex" xMin="-34" yMin="0" xMax="279" yMax="715">
      <contour>
        <pt x="80" y="0" on="1"/>
        <pt x="80" y="500" on="1"/>
        <pt x="165" y="500" on="1"/>
        <pt x="165" y="0" on="1"/>
      </contour>
      <contour>
        <pt x="182" y="580" on="1"/>
        <pt x="122" y="664" on="1"/>
        <pt x="62" y="580" on="1"/>
        <pt x="-34" y="580" on="1"/>
        <pt x="78" y="715" on="1"/>
        <pt x="166" y="715" on="1"/>
        <pt x="279" y="580" on="1"/>
      </contour>
    </TTGlyph>
    <TTGlyph name="idieresis" xMin="-20" yMin="0" xMax="265" yMax="675">
      <contour>
        <pt x="80" y="0" on="1"/>
        <pt x="80" y="500" on="1"/>
        <pt x="165" y="500" on="1"/>
        <pt x="165" y="0" on="1"/>
      </contour>
      <contour>
        <pt x="180" y="595" on="1"/>
        <pt x="180" y="675" on="1"/>
        <pt x="265" y="675" on="1"/>
        <pt x="265" y="595" on="1"/>
      </contour>
      <contour>
        <pt x="-20" y="595" on="1"/>
        <pt x="-20" y="675" on="1"/>
        <pt x="65" y="675" on="1"/>
        <pt x="65" y="595" on="1"/>
      </contour>
    </TTGlyph>
    <TTGlyph name="igrave" xMin="-24" yMin="0" xMax="189" yMax="715">
      <contour>
        <pt x="80" y="0" on="1"/>
        <pt x="80" y="500" on="1"/>
        <pt x="165" y="500" on="1"/>
        <pt x="165" y="0" on="1"/>
      </contour>
      <contour>
        <pt x="108" y="580" on="1"/>
        <pt x="-24" y="715" on="1"/>
        <pt x="80" y="715" on="1"/>
        <pt x="189" y="580" on="1"/>
      </contour>
    </TTGlyph>
    <TTGlyph name="infinity" xMin="45" yMin="146" xMax="685" yMax="474">
      <contour>
        <pt x="224" y="401" on="1"/>
        <pt x="178" y="401" on="0"/>
        <pt x="128" y="361" on="0"/>
        <pt x="128" y="310" on="1"/>
        <pt x="128" y="259" on="0"/>
        <pt x="177" y="219" on="0"/>
        <pt x="224" y="219" on="1"/>
        <pt x="253" y="219" on="0"/>
        <pt x="293" y="232" on="0"/>
        <pt x="317" y="261" on="0"/>
        <pt x="327" y="306" on="0"/>
        <pt x="327" y="339" on="1"/>
        <pt x="315" y="368" on="0"/>
        <pt x="259" y="401" on="0"/>
      </contour>
      <contour>
        <pt x="370" y="225" on="1"/>
        <pt x="353" y="189" on="0"/>
        <pt x="277" y="146" on="0"/>
        <pt x="226" y="146" on="1"/>
        <pt x="133" y="146" on="0"/>
        <pt x="45" y="232" on="0"/>
        <pt x="45" y="310" on="1"/>
        <pt x="45" y="388" on="0"/>
        <pt x="133" y="474" on="0"/>
        <pt x="226" y="474" on="1"/>
        <pt x="265" y="474" on="0"/>
        <pt x="335" y="442" on="0"/>
        <pt x="361" y="395" on="1"/>
        <pt x="378" y="431" on="0"/>
        <pt x="453" y="474" on="0"/>
        <pt x="504" y="474" on="1"/>
        <pt x="597" y="474" on="0"/>
        <pt x="685" y="388" on="0"/>
        <pt x="685" y="310" on="1"/>
        <pt x="685" y="232" on="0"/>
        <pt x="597" y="146" on="0"/>
        <pt x="504" y="146" on="1"/>
        <pt x="465" y="146" on="0"/>
        <pt x="396" y="178" on="0"/>
      </contour>
      <contour>
        <pt x="506" y="219" on="1"/>
        <pt x="552" y="219" on="0"/>
        <pt x="602" y="259" on="0"/>
        <pt x="602" y="310" on="1"/>
        <pt x="602" y="361" on="0"/>
        <pt x="553" y="401" on="0"/>
        <pt x="506" y="401" on="1"/>
        <pt x="448" y="401" on="0"/>
        <pt x="404" y="346" on="0"/>
        <pt x="404" y="281" on="1"/>
        <pt x="416" y="252" on="0"/>
        <pt x="471" y="219" on="0"/>
      </contour>
    </TTGlyph>
    <TTGlyph name="integral" xMin="-20" yMin="-240" xMax="340" yMax="825">
      <contour>
        <pt x="-20" y="-159" on="1"/>
        <pt x="-4" y="-163" on="0"/>
        <pt x="34" y="-168" on="0"/>
        <pt x="61" y="-168" on="1"/>
        <pt x="88" y="-168" on="0"/>
        <pt x="116" y="-142" on="0"/>
        <pt x="116" y="-120" on="1"/>
        <pt x="116" y="698" on="1"/>
        <pt x="116" y="763" on="0"/>
        <pt x="186" y="825" on="0"/>
        <pt x="243" y="825" on="1"/>
        <pt x="275" y="825" on="0"/>
        <pt x="325" y="818" on="0"/>
        <pt x="340" y="815" on="1"/>
        <pt x="340" y="744" on="1"/>
        <pt x="324" y="748" on="0"/>
        <pt x="283" y="753" on="0"/>
        <pt x="256" y="753" on="1"/>
        <pt x="229" y="753" on="0"/>
        <pt x="201" y="727" on="0"/>
        <pt x="201" y="705" on="1"/>
        <pt x="201" y="-113" on="1"/>
        <pt x="201" y="-178" on="0"/>
        <pt x="131" y="-240" on="0"/>
        <pt x="74" y="-240" on="1"/>
        <pt x="42" y="-240" on="0"/>
        <pt x="-5" y="-233" on="0"/>
        <pt x="-20" y="-230" on="1"/>
      </contour>
    </TTGlyph>
    <TTGlyph name="j" xMin="-46" yMin="-175" xMax="170" yMax="700">
      <contour>
        <pt x="165" y="-43" on="1"/>
        <pt x="165" y="-99" on="0"/>
        <pt x="103" y="-175" on="0"/>
        <pt x="41" y="-175" on="1"/>
        <pt x="17" y="-175" on="0"/>
        <pt x="-26" y="-172" on="0"/>
        <pt x="-46" y="-170" on="1"/>
        <pt x="-46" y="-99" on="1"/>
        <pt x="-30" y="-101" on="0"/>
        <pt x="16" y="-103" on="0"/>
        <pt x="28" y="-103" on="1"/>
        <pt x="80" y="-103" on="0"/>
        <pt x="80" y="-48" on="1"/>
        <pt x="80" y="500" on="1"/>
        <pt x="165" y="500" on="1"/>
      </contour>
      <contour>
        <pt x="75" y="610" on="1"/>
        <pt x="75" y="700" on="1"/>
        <pt x="170" y="700" on="1"/>
        <pt x="170" y="610" on="1"/>
      </contour>
    </TTGlyph>
    <TTGlyph name="k" xMin="80" yMin="0" xMax="429" yMax="700">
      <contour>
        <pt x="330" y="0" on="1"/>
        <pt x="195" y="249" on="1"/>
        <pt x="165" y="214" on="1"/>
        <pt x="165" y="0" on="1"/>
        <pt x="80" y="0" on="1"/>
        <pt x="80" y="700" on="1"/>
        <pt x="165" y="700" on="1"/>
        <pt x="165" y="320" on="1"/>
        <pt x="318" y="500" on="1"/>
        <pt x="422" y="500" on="1"/>
        <pt x="253" y="307" on="1"/>
        <pt x="429" y="0" on="1"/>
      </contour>
    </TTGlyph>
    <TTGlyph name="l" xMin="80" yMin="-3" xMax="225" yMax="700">
      <contour>
        <pt x="225" y="5" on="1"/>
        <pt x="214" y="3" on="0"/>
        <pt x="185" y="-3" on="0"/>
        <pt x="165" y="-3" on="1"/>
        <pt x="150" y="-3" on="0"/>
        <pt x="120" y="7" on="0"/>
        <pt x="96" y="33" on="0"/>
        <pt x="80" y="78" on="0"/>
        <pt x="80" y="112" on="1"/>
        <pt x="80" y="700" on="1"/>
        <pt x="165" y="700" on="1"/>
        <pt x="165" y="117" on="1"/>
        <pt x="165" y="91" on="0"/>
        <pt x="178" y="70" on="0"/>
        <pt x="198" y="70" on="1"/>
        <pt x="206" y="70" on="0"/>
        <pt x="221" y="74" on="0"/>
        <pt x="225" y="75" on="1"/>
      </contour>
    </TTGlyph>
    <TTGlyph name="less" xMin="85" yMin="105" xMax="465" yMax="564">
      <contour>
        <pt x="85" y="280" on="1"/>
        <pt x="85" y="385" on="1"/>
        <pt x="465" y="564" on="1"/>
        <pt x="465" y="472" on="1"/>
        <pt x="155" y="336" on="1"/>
        <pt x="465" y="199" on="1"/>
        <pt x="465" y="105" on="1"/>
      </contour>
    </TTGlyph>
    <TTGlyph name="lessequal" xMin="85" yMin="0" xMax="465" yMax="564">
      <contour>
        <pt x="85" y="280" on="1"/>
        <pt x="85" y="385" on="1"/>
        <pt x="465" y="564" on="1"/>
        <pt x="465" y="472" on="1"/>
        <pt x="157" y="336" on="1"/>
        <pt x="465" y="219" on="1"/>
        <pt x="465" y="125" on="1"/>
      </contour>
      <contour>
        <pt x="85" y="0" on="1"/>
        <pt x="85" y="75" on="1"/>
        <pt x="465" y="75" on="1"/>
        <pt x="465" y="0" on="1"/>
      </contour>
    </TTGlyph>
    <TTGlyph name="logicaland" xMin="65" yMin="260" xMax="165" yMax="360">
      <contour>
        <pt x="65" y="260" on="1"/>
        <pt x="65" y="360" on="1"/>
        <pt x="165" y="360" on="1"/>
        <pt x="165" y="260" on="1"/>
      </contour>
    </TTGlyph>
    <TTGlyph name="logicalnot" xMin="70" yMin="106" xMax="505" yMax="350">
      <contour>
        <pt x="420" y="106" on="1"/>
        <pt x="420" y="275" on="1"/>
        <pt x="70" y="275" on="1"/>
        <pt x="70" y="350" on="1"/>
        <pt x="505" y="350" on="1"/>
        <pt x="505" y="106" on="1"/>
      </contour>
    </TTGlyph>
    <TTGlyph name="lozenge" xMin="40" yMin="0" xMax="430" yMax="700">
      <contour>
        <pt x="290" y="0" on="1"/>
        <pt x="178" y="0" on="1"/>
        <pt x="40" y="350" on="1"/>
        <pt x="180" y="700" on="1"/>
        <pt x="290" y="700" on="1"/>
        <pt x="430" y="350" on="1"/>
      </contour>
      <contour>
        <pt x="235" y="630" on="1"/>
        <pt x="127" y="350" on="1"/>
        <pt x="235" y="70" on="1"/>
        <pt x="343" y="350" on="1"/>
      </contour>
    </TTGlyph>
    <TTGlyph name="lslash" xMin="35" yMin="-3" xMax="235" yMax="700">
      <contour>
        <pt x="235" y="5" on="1"/>
        <pt x="224" y="3" on="0"/>
        <pt x="195" y="-3" on="0"/>
        <pt x="175" y="-3" on="1"/>
        <pt x="160" y="-3" on="0"/>
        <pt x="130" y="7" on="0"/>
        <pt x="106" y="33" on="0"/>
        <pt x="90" y="78" on="0"/>
        <pt x="90" y="112" on="1"/>
        <pt x="90" y="335" on="1"/>
        <pt x="35" y="300" on="1"/>
        <pt x="35" y="378" on="1"/>
        <pt x="90" y="414" on="1"/>
        <pt x="90" y="700" on="1"/>
        <pt x="175" y="700" on="1"/>
        <pt x="175" y="469" on="1"/>
        <pt x="235" y="509" on="1"/>
        <pt x="235" y="429" on="1"/>
        <pt x="175" y="390" on="1"/>
        <pt x="175" y="117" on="1"/>
        <pt x="175" y="91" on="0"/>
        <pt x="188" y="70" on="0"/>
        <pt x="208" y="70" on="1"/>
        <pt x="216" y="70" on="0"/>
        <pt x="231" y="74" on="0"/>
        <pt x="235" y="75" on="1"/>
      </contour>
    </TTGlyph>
    <TTGlyph name="m" xMin="80" yMin="0" xMax="655" yMax="507">
      <contour>
        <pt x="80" y="0" on="1"/>
        <pt x="80" y="500" on="1"/>
        <pt x="150" y="500" on="1"/>
        <pt x="157" y="456" on="1"/>
        <pt x="203" y="507" on="0"/>
        <pt x="270" y="507" on="1"/>
        <pt x="317" y="507" on="0"/>
        <pt x="373" y="472" on="0"/>
        <pt x="389" y="444" on="1"/>
        <pt x="437" y="507" on="0"/>
        <pt x="515" y="507" on="1"/>
        <pt x="592" y="507" on="0"/>
        <pt x="655" y="422" on="0"/>
        <pt x="655" y="330" on="1"/>
        <pt x="655" y="0" on="1"/>
        <pt x="570" y="0" on="1"/>
        <pt x="570" y="340" on="1"/>
        <pt x="570" y="388" on="0"/>
        <pt x="543" y="435" on="0"/>
        <pt x="500" y="435" on="1"/>
        <pt x="480" y="435" on="0"/>
        <pt x="447" y="419" on="0"/>
        <pt x="423" y="393" on="0"/>
        <pt x="410" y="364" on="0"/>
        <pt x="410" y="350" on="1"/>
        <pt x="410" y="0" on="1"/>
        <pt x="325" y="0" on="1"/>
        <pt x="325" y="340" on="1"/>
        <pt x="325" y="388" on="0"/>
        <pt x="298" y="435" on="0"/>
        <pt x="255" y="435" on="1"/>
        <pt x="235" y="435" on="0"/>
        <pt x="202" y="419" on="0"/>
        <pt x="178" y="393" on="0"/>
        <pt x="165" y="364" on="0"/>
        <pt x="165" y="350" on="1"/>
        <pt x="165" y="0" on="1"/>
      </contour>
    </TTGlyph>
    <TTGlyph name="macron" xMin="35" yMin="605" xMax="290" yMax="675">
      <contour>
        <pt x="35" y="605" on="1"/>
        <pt x="35" y="675" on="1"/>
        <pt x="290" y="675" on="1"/>
        <pt x="290" y="605" on="1"/>
      </contour>
    </TTGlyph>
    <TTGlyph name="minus" xMin="85" yMin="275" xMax="465" yMax="350">
      <contour>
        <pt x="85" y="275" on="1"/>
        <pt x="85" y="350" on="1"/>
        <pt x="465" y="350" on="1"/>
        <pt x="465" y="275" on="1"/>
      </contour>
    </TTGlyph>
    <TTGlyph name="mu" xMin="80" yMin="-170" xMax="416" yMax="500">
      <contour>
        <pt x="80" y="-170" on="1"/>
        <pt x="80" y="500" on="1"/>
        <pt x="165" y="500" on="1"/>
        <pt x="165" y="150" on="1"/>
        <pt x="166" y="109" on="0"/>
        <pt x="194" y="65" on="0"/>
        <pt x="237" y="65" on="1"/>
        <pt x="258" y="65" on="0"/>
        <pt x="292" y="81" on="0"/>
        <pt x="316" y="105" on="0"/>
        <pt x="330" y="134" on="0"/>
        <pt x="331" y="147" on="1"/>
        <pt x="331" y="500" on="1"/>
        <pt x="416" y="500" on="1"/>
        <pt x="416" y="0" on="1"/>
        <pt x="346" y="0" on="1"/>
        <pt x="339" y="41" on="1"/>
        <pt x="318" y="18" on="0"/>
        <pt x="262" y="-7" on="0"/>
        <pt x="224" y="-7" on="1"/>
        <pt x="192" y="-7" on="0"/>
        <pt x="165" y="4" on="1"/>
        <pt x="165" y="-170" on="1"/>
      </contour>
    </TTGlyph>
    <TTGlyph name="multiply" xMin="102" yMin="137" xMax="448" yMax="483">
      <contour>
        <pt x="275" y="253" on="1"/>
        <pt x="158" y="137" on="1"/>
        <pt x="102" y="193" on="1"/>
        <pt x="218" y="310" on="1"/>
        <pt x="102" y="427" on="1"/>
        <pt x="158" y="483" on="1"/>
        <pt x="275" y="367" on="1"/>
        <pt x="392" y="483" on="1"/>
        <pt x="448" y="427" on="1"/>
        <pt x="332" y="310" on="1"/>
        <pt x="448" y="193" on="1"/>
        <pt x="392" y="137" on="1"/>
      </contour>
    </TTGlyph>
    <TTGlyph name="n" xMin="80" yMin="0" xMax="431" yMax="507">
      <contour>
        <pt x="80" y="0" on="1"/>
        <pt x="80" y="500" on="1"/>
        <pt x="150" y="500" on="1"/>
        <pt x="157" y="455" on="1"/>
        <pt x="206" y="507" on="0"/>
        <pt x="280" y="507" on="1"/>
        <pt x="323" y="507" on="0"/>
        <pt x="381" y="486" on="0"/>
        <pt x="416" y="443" on="0"/>
        <pt x="431" y="376" on="0"/>
        <pt x="431" y="330" on="1"/>
        <pt x="431" y="0" on="1"/>
        <pt x="346" y="0" on="1"/>
        <pt x="346" y="340" on="1"/>
        <pt x="346" y="387" on="0"/>
        <pt x="315" y="435" on="0"/>
        <pt x="265" y="435" on="1"/>
        <pt x="244" y="435" on="0"/>
        <pt x="207" y="419" on="0"/>
        <pt x="180" y="393" on="0"/>
        <pt x="165" y="364" on="0"/>
        <pt x="165" y="350" on="1"/>
        <pt x="165" y="0" on="1"/>
      </contour>
    </TTGlyph>
    <TTGlyph name="nine" xMin="50" yMin="-177" xMax="398" yMax="522">
      <contour>
        <pt x="50" y="300" on="1"/>
        <pt x="50" y="364" on="0"/>
        <pt x="78" y="450" on="0"/>
        <pt x="125" y="501" on="0"/>
        <pt x="188" y="522" on="0"/>
        <pt x="223" y="522" on="1"/>
        <pt x="274" y="522" on="0"/>
        <pt x="341" y="493" on="0"/>
        <pt x="382" y="415" on="0"/>
        <pt x="398" y="278" on="0"/>
        <pt x="398" y="170" on="1"/>
        <pt x="398" y="52" on="0"/>
        <pt x="373" y="-86" on="0"/>
        <pt x="323" y="-157" on="0"/>
        <pt x="249" y="-177" on="0"/>
        <pt x="200" y="-177" on="1"/>
        <pt x="188" y="-177" on="0"/>
        <pt x="160" y="-174" on="0"/>
        <pt x="133" y="-169" on="0"/>
        <pt x="110" y="-164" on="0"/>
        <pt x="104" y="-162" on="1"/>
        <pt x="104" y="-89" on="1"/>
        <pt x="124" y="-94" on="0"/>
        <pt x="178" y="-105" on="0"/>
        <pt x="210" y="-105" on="1"/>
        <pt x="236" y="-105" on="0"/>
        <pt x="274" y="-93" on="0"/>
        <pt x="298" y="-49" on="0"/>
        <pt x="311" y="34" on="0"/>
        <pt x="312" y="106" on="1"/>
        <pt x="296" y="96" on="0"/>
        <pt x="244" y="76" on="0"/>
        <pt x="207" y="76" on="1"/>
        <pt x="156" y="76" on="0"/>
        <pt x="94" y="107" on="0"/>
        <pt x="61" y="165" on="0"/>
        <pt x="50" y="248" on="0"/>
      </contour>
      <contour>
        <pt x="214" y="148" on="1"/>
        <pt x="252" y="148" on="0"/>
        <pt x="303" y="170" on="0"/>
        <pt x="313" y="175" on="1"/>
        <pt x="313" y="268" on="0"/>
        <pt x="302" y="377" on="0"/>
        <pt x="281" y="434" on="0"/>
        <pt x="247" y="450" on="0"/>
        <pt x="223" y="450" on="1"/>
        <pt x="177" y="450" on="0"/>
        <pt x="135" y="380" on="0"/>
        <pt x="135" y="309" on="1"/>
        <pt x="135" y="267" on="0"/>
        <pt x="139" y="206" on="0"/>
        <pt x="156" y="167" on="0"/>
        <pt x="187" y="148" on="0"/>
      </contour>
    </TTGlyph>
    <TTGlyph name="notequal" xMin="85" yMin="70" xMax="465" yMax="555">
      <contour>
        <pt x="354" y="375" on="1"/>
        <pt x="276" y="250" on="1"/>
        <pt x="465" y="250" on="1"/>
        <pt x="465" y="175" on="1"/>
        <pt x="230" y="175" on="1"/>
        <pt x="165" y="70" on="1"/>
        <pt x="85" y="70" on="1"/>
        <pt x="150" y="175" on="1"/>
        <pt x="85" y="175" on="1"/>
        <pt x="85" y="250" on="1"/>
        <pt x="196" y="250" on="1"/>
        <pt x="274" y="375" on="1"/>
        <pt x="85" y="375" on="1"/>
        <pt x="85" y="450" on="1"/>
        <pt x="320" y="450" on="1"/>
        <pt x="385" y="555" on="1"/>
        <pt x="465" y="555" on="1"/>
        <pt x="400" y="450" on="1"/>
        <pt x="465" y="450" on="1"/>
        <pt x="465" y="375" on="1"/>
      </contour>
    </TTGlyph>
    <TTGlyph name="ntilde" xMin="80" yMin="0" xMax="431" yMax="700">
      <contour>
        <pt x="80" y="0" on="1"/>
        <pt x="80" y="500" on="1"/>
        <pt x="150" y="500" on="1"/>
        <pt x="157" y="455" on="1"/>
        <pt x="206" y="507" on="0"/>
        <pt x="280" y="507" on="1"/>
        <pt x="323" y="507" on="0"/>
        <pt x="381" y="486" on="0"/>
        <pt x="416" y="443" on="0"/>
        <pt x="431" y="376" on="0"/>
        <pt x="431" y="330" on="1"/>
        <pt x="431" y="0" on="1"/>
        <pt x="346" y="0" on="1"/>
        <pt x="346" y="340" on="1"/>
        <pt x="346" y="387" on="0"/>
        <pt x="315" y="435" on="0"/>
        <pt x="265" y="435" on="1"/>
        <pt x="244" y="435" on="0"/>
        <pt x="207" y="419" on="0"/>
        <pt x="180" y="393" on="0"/>
        <pt x="165" y="364" on="0"/>
        <pt x="165" y="350" on="1"/>
        <pt x="165" y="0" on="1"/>
      </contour>
      <contour>
        <pt x="134" y="667" on="1"/>
        <pt x="157" y="686" on="0"/>
        <pt x="200" y="700" on="0"/>
        <pt x="220" y="700" on="1"/>
        <pt x="238" y="700" on="0"/>
        <pt x="267" y="688" on="0"/>
        <pt x="293" y="673" on="0"/>
        <pt x="319" y="661" on="0"/>
        <pt x="334" y="661" on="1"/>
        <pt x="360" y="661" on="0"/>
        <pt x="394" y="680" on="0"/>
        <pt x="414" y="697" on="1"/>
        <pt x="414" y="624" on="1"/>
        <pt x="394" y="605" on="0"/>
        <pt x="354" y="591" on="0"/>
        <pt x="328" y="591" on="1"/>
        <pt x="309" y="591" on="0"/>
        <pt x="281" y="603" on="0"/>
        <pt x="256" y="618" on="0"/>
        <pt x="230" y="630" on="0"/>
        <pt x="214" y="630" on="1"/>
        <pt x="188" y="630" on="0"/>
        <pt x="150" y="608" on="0"/>
        <pt x="134" y="594" on="1"/>
      </contour>
    </TTGlyph>
    <TTGlyph name="numbersign" xMin="30" yMin="0" xMax="440" yMax="700">
      <contour>
        <pt x="284" y="455" on="1"/>
        <pt x="204" y="455" on="1"/>
        <pt x="186" y="255" on="1"/>
        <pt x="266" y="255" on="1"/>
      </contour>
      <contour>
        <pt x="340" y="180" on="1"/>
        <pt x="324" y="0" on="1"/>
        <pt x="244" y="0" on="1"/>
        <pt x="260" y="180" on="1"/>
        <pt x="180" y="180" on="1"/>
        <pt x="164" y="0" on="1"/>
        <pt x="84" y="0" on="1"/>
        <pt x="100" y="180" on="1"/>
        <pt x="30" y="180" on="1"/>
        <pt x="36" y="255" on="1"/>
        <pt x="106" y="255" on="1"/>
        <pt x="124" y="455" on="1"/>
        <pt x="54" y="455" on="1"/>
        <pt x="60" y="530" on="1"/>
        <pt x="130" y="530" on="1"/>
        <pt x="145" y="700" on="1"/>
        <pt x="225" y="700" on="1"/>
        <pt x="210" y="530" on="1"/>
        <pt x="290" y="530" on="1"/>
        <pt x="305" y="700" on="1"/>
        <pt x="385" y="700" on="1"/>
        <pt x="370" y="530" on="1"/>
        <pt x="440" y="530" on="1"/>
        <pt x="434" y="455" on="1"/>
        <pt x="364" y="455" on="1"/>
        <pt x="346" y="255" on="1"/>
        <pt x="416" y="255" on="1"/>
        <pt x="410" y="180" on="1"/>
      </contour>
    </TTGlyph>
    <TTGlyph name="o" xMin="65" yMin="-7" xMax="445" yMax="507">
      <contour>
        <pt x="445" y="260" on="1"/>
        <pt x="445" y="181" on="0"/>
        <pt x="421" y="78" on="0"/>
        <pt x="373" y="17" on="0"/>
        <pt x="302" y="-7" on="0"/>
        <pt x="255" y="-7" on="1"/>
        <pt x="209" y="-7" on="0"/>
        <pt x="138" y="17" on="0"/>
        <pt x="90" y="78" on="0"/>
        <pt x="65" y="181" on="0"/>
        <pt x="65" y="260" on="1"/>
        <pt x="65" y="388" on="0"/>
        <pt x="157" y="507" on="0"/>
        <pt x="255" y="507" on="1"/>
        <pt x="353" y="507" on="0"/>
        <pt x="445" y="388" on="0"/>
      </contour>
      <contour>
        <pt x="358" y="245" on="1"/>
        <pt x="358" y="298" on="0"/>
        <pt x="348" y="372" on="0"/>
        <pt x="325" y="417" on="0"/>
        <pt x="285" y="437" on="0"/>
        <pt x="255" y="437" on="1"/>
        <pt x="225" y="437" on="0"/>
        <pt x="185" y="417" on="0"/>
        <pt x="162" y="372" on="0"/>
        <pt x="152" y="298" on="0"/>
        <pt x="152" y="245" on="1"/>
        <pt x="152" y="147" on="0"/>
        <pt x="198" y="63" on="0"/>
        <pt x="255" y="63" on="1"/>
        <pt x="312" y="63" on="0"/>
        <pt x="358" y="147" on="0"/>
      </contour>
    </TTGlyph>
    <TTGlyph name="oacute" xMin="65" yMin="-7" xMax="445" yMax="715">
      <contour>
        <pt x="445" y="260" on="1"/>
        <pt x="445" y="181" on="0"/>
        <pt x="421" y="78" on="0"/>
        <pt x="373" y="17" on="0"/>
        <pt x="302" y="-7" on="0"/>
        <pt x="255" y="-7" on="1"/>
        <pt x="209" y="-7" on="0"/>
        <pt x="138" y="17" on="0"/>
        <pt x="90" y="78" on="0"/>
        <pt x="65" y="181" on="0"/>
        <pt x="65" y="260" on="1"/>
        <pt x="65" y="388" on="0"/>
        <pt x="157" y="507" on="0"/>
        <pt x="255" y="507" on="1"/>
        <pt x="353" y="507" on="0"/>
        <pt x="445" y="388" on="0"/>
      </contour>
      <contour>
        <pt x="358" y="245" on="1"/>
        <pt x="358" y="298" on="0"/>
        <pt x="348" y="372" on="0"/>
        <pt x="325" y="417" on="0"/>
        <pt x="285" y="437" on="0"/>
        <pt x="255" y="437" on="1"/>
        <pt x="225" y="437" on="0"/>
        <pt x="185" y="417" on="0"/>
        <pt x="162" y="372" on="0"/>
        <pt x="152" y="298" on="0"/>
        <pt x="152" y="245" on="1"/>
        <pt x="152" y="147" on="0"/>
        <pt x="198" y="63" on="0"/>
        <pt x="255" y="63" on="1"/>
        <pt x="312" y="63" on="0"/>
        <pt x="358" y="147" on="0"/>
      </contour>
      <contour>
        <pt x="187" y="580" on="1"/>
        <pt x="291" y="715" on="1"/>
        <pt x="400" y="715" on="1"/>
        <pt x="268" y="580" on="1"/>
      </contour>
    </TTGlyph>
    <TTGlyph name="ocircumflex" xMin="65" yMin="-7" xMax="445" yMax="715">
      <contour>
        <pt x="445" y="260" on="1"/>
        <pt x="445" y="181" on="0"/>
        <pt x="421" y="78" on="0"/>
        <pt x="373" y="17" on="0"/>
        <pt x="302" y="-7" on="0"/>
        <pt x="255" y="-7" on="1"/>
        <pt x="209" y="-7" on="0"/>
        <pt x="138" y="17" on="0"/>
        <pt x="90" y="78" on="0"/>
        <pt x="65" y="181" on="0"/>
        <pt x="65" y="260" on="1"/>
        <pt x="65" y="388" on="0"/>
        <pt x="157" y="507" on="0"/>
        <pt x="255" y="507" on="1"/>
        <pt x="353" y="507" on="0"/>
        <pt x="445" y="388" on="0"/>
      </contour>
      <contour>
        <pt x="358" y="245" on="1"/>
        <pt x="358" y="298" on="0"/>
        <pt x="348" y="372" on="0"/>
        <pt x="325" y="417" on="0"/>
        <pt x="285" y="437" on="0"/>
        <pt x="255" y="437" on="1"/>
        <pt x="225" y="437" on="0"/>
        <pt x="185" y="417" on="0"/>
        <pt x="162" y="372" on="0"/>
        <pt x="152" y="298" on="0"/>
        <pt x="152" y="245" on="1"/>
        <pt x="152" y="147" on="0"/>
        <pt x="198" y="63" on="0"/>
        <pt x="255" y="63" on="1"/>
        <pt x="312" y="63" on="0"/>
        <pt x="358" y="147" on="0"/>
      </contour>
      <contour>
        <pt x="315" y="580" on="1"/>
        <pt x="255" y="664" on="1"/>
        <pt x="195" y="580" on="1"/>
        <pt x="99" y="580" on="1"/>
        <pt x="211" y="715" on="1"/>
        <pt x="299" y="715" on="1"/>
        <pt x="412" y="580" on="1"/>
      </contour>
    </TTGlyph>
    <TTGlyph name="odieresis" xMin="65" yMin="-7" xMax="445" yMax="675">
      <contour>
        <pt x="445" y="260" on="1"/>
        <pt x="445" y="181" on="0"/>
        <pt x="421" y="78" on="0"/>
        <pt x="373" y="17" on="0"/>
        <pt x="302" y="-7" on="0"/>
        <pt x="255" y="-7" on="1"/>
        <pt x="209" y="-7" on="0"/>
        <pt x="138" y="17" on="0"/>
        <pt x="90" y="78" on="0"/>
        <pt x="65" y="181" on="0"/>
        <pt x="65" y="260" on="1"/>
        <pt x="65" y="388" on="0"/>
        <pt x="157" y="507" on="0"/>
        <pt x="255" y="507" on="1"/>
        <pt x="353" y="507" on="0"/>
        <pt x="445" y="388" on="0"/>
      </contour>
      <contour>
        <pt x="358" y="245" on="1"/>
        <pt x="358" y="298" on="0"/>
        <pt x="348" y="372" on="0"/>
        <pt x="325" y="417" on="0"/>
        <pt x="285" y="437" on="0"/>
        <pt x="255" y="437" on="1"/>
        <pt x="225" y="437" on="0"/>
        <pt x="185" y="417" on="0"/>
        <pt x="162" y="372" on="0"/>
        <pt x="152" y="298" on="0"/>
        <pt x="152" y="245" on="1"/>
        <pt x="152" y="147" on="0"/>
        <pt x="198" y="63" on="0"/>
        <pt x="255" y="63" on="1"/>
        <pt x="312" y="63" on="0"/>
        <pt x="358" y="147" on="0"/>
      </contour>
      <contour>
        <pt x="313" y="595" on="1"/>
        <pt x="313" y="675" on="1"/>
        <pt x="398" y="675" on="1"/>
        <pt x="398" y="595" on="1"/>
      </contour>
      <contour>
        <pt x="113" y="595" on="1"/>
        <pt x="113" y="675" on="1"/>
        <pt x="198" y="675" on="1"/>
        <pt x="198" y="595" on="1"/>
      </contour>
    </TTGlyph>
    <TTGlyph name="oe" xMin="65" yMin="-7" xMax="701" yMax="507">
      <contour>
        <pt x="443" y="220" on="1"/>
        <pt x="444" y="171" on="0"/>
        <pt x="457" y="110" on="0"/>
        <pt x="479" y="76" on="0"/>
        <pt x="509" y="65" on="0"/>
        <pt x="528" y="65" on="1"/>
        <pt x="570" y="65" on="0"/>
        <pt x="640" y="78" on="0"/>
        <pt x="662" y="83" on="1"/>
        <pt x="662" y="10" on="1"/>
        <pt x="638" y="3" on="0"/>
        <pt x="565" y="-7" on="0"/>
        <pt x="538" y="-7" on="1"/>
        <pt x="490" y="-7" on="0"/>
        <pt x="419" y="17" on="0"/>
        <pt x="397" y="52" on="1"/>
        <pt x="374" y="20" on="0"/>
        <pt x="303" y="-7" on="0"/>
        <pt x="255" y="-7" on="1"/>
        <pt x="209" y="-7" on="0"/>
        <pt x="138" y="17" on="0"/>
        <pt x="90" y="78" on="0"/>
        <pt x="65" y="181" on="0"/>
        <pt x="65" y="260" on="1"/>
        <pt x="65" y="388" on="0"/>
        <pt x="157" y="507" on="0"/>
        <pt x="255" y="507" on="1"/>
        <pt x="355" y="507" on="0"/>
        <pt x="401" y="440" on="1"/>
        <pt x="444" y="507" on="0"/>
        <pt x="540" y="507" on="1"/>
        <pt x="626" y="507" on="0"/>
        <pt x="701" y="394" on="0"/>
        <pt x="701" y="295" on="1"/>
        <pt x="701" y="220" on="1"/>
      </contour>
      <contour>
        <pt x="538" y="436" on="1"/>
        <pt x="514" y="436" on="0"/>
        <pt x="480" y="422" on="0"/>
        <pt x="458" y="388" on="0"/>
        <pt x="446" y="331" on="0"/>
        <pt x="444" y="288" on="1"/>
        <pt x="618" y="288" on="1"/>
        <pt x="618" y="315" on="1"/>
        <pt x="618" y="372" on="0"/>
        <pt x="583" y="436" on="0"/>
      </contour>
      <contour>
        <pt x="358" y="245" on="1"/>
        <pt x="358" y="298" on="0"/>
        <pt x="348" y="372" on="0"/>
        <pt x="325" y="417" on="0"/>
        <pt x="285" y="437" on="0"/>
        <pt x="255" y="437" on="1"/>
        <pt x="225" y="437" on="0"/>
        <pt x="185" y="417" on="0"/>
        <pt x="162" y="372" on="0"/>
        <pt x="152" y="298" on="0"/>
        <pt x="152" y="245" on="1"/>
        <pt x="152" y="147" on="0"/>
        <pt x="198" y="63" on="0"/>
        <pt x="255" y="63" on="1"/>
        <pt x="312" y="63" on="0"/>
        <pt x="358" y="147" on="0"/>
      </contour>
    </TTGlyph>
    <TTGlyph name="ogonek" xMin="65" yMin="-180" xMax="254" yMax="60">
      <contour>
        <pt x="254" y="-170" on="1"/>
        <pt x="240" y="-174" on="0"/>
        <pt x="197" y="-180" on="0"/>
        <pt x="179" y="-180" on="1"/>
        <pt x="147" y="-180" on="0"/>
        <pt x="104" y="-169" on="0"/>
        <pt x="77" y="-143" on="0"/>
        <pt x="65" y="-101" on="0"/>
        <pt x="65" y="-70" on="1"/>
        <pt x="65" y="-33" on="0"/>
        <pt x="100" y="39" on="0"/>
        <pt x="119" y="60" on="1"/>
        <pt x="188" y="60" on="1"/>
        <pt x="168" y="30" on="0"/>
        <pt x="144" y="-45" on="0"/>
        <pt x="144" y="-69" on="1"/>
        <pt x="144" y="-95" on="0"/>
        <pt x="165" y="-112" on="0"/>
        <pt x="188" y="-112" on="1"/>
        <pt x="199" y="-112" on="0"/>
        <pt x="240" y="-107" on="0"/>
        <pt x="254" y="-105" on="1"/>
      </contour>
    </TTGlyph>
    <TTGlyph name="ograve" xMin="65" yMin="-7" xMax="445" yMax="715">
      <contour>
        <pt x="445" y="260" on="1"/>
        <pt x="445" y="181" on="0"/>
        <pt x="421" y="78" on="0"/>
        <pt x="373" y="17" on="0"/>
        <pt x="302" y="-7" on="0"/>
        <pt x="255" y="-7" on="1"/>
        <pt x="209" y="-7" on="0"/>
        <pt x="138" y="17" on="0"/>
        <pt x="90" y="78" on="0"/>
        <pt x="65" y="181" on="0"/>
        <pt x="65" y="260" on="1"/>
        <pt x="65" y="388" on="0"/>
        <pt x="157" y="507" on="0"/>
        <pt x="255" y="507" on="1"/>
        <pt x="353" y="507" on="0"/>
        <pt x="445" y="388" on="0"/>
      </contour>
      <contour>
        <pt x="358" y="245" on="1"/>
        <pt x="358" y="298" on="0"/>
        <pt x="348" y="372" on="0"/>
        <pt x="325" y="417" on="0"/>
        <pt x="285" y="437" on="0"/>
        <pt x="255" y="437" on="1"/>
        <pt x="225" y="437" on="0"/>
        <pt x="185" y="417" on="0"/>
        <pt x="162" y="372" on="0"/>
        <pt x="152" y="298" on="0"/>
        <pt x="152" y="245" on="1"/>
        <pt x="152" y="147" on="0"/>
        <pt x="198" y="63" on="0"/>
        <pt x="255" y="63" on="1"/>
        <pt x="312" y="63" on="0"/>
        <pt x="358" y="147" on="0"/>
      </contour>
      <contour>
        <pt x="253" y="580" on="1"/>
        <pt x="121" y="715" on="1"/>
        <pt x="230" y="715" on="1"/>
        <pt x="334" y="580" on="1"/>
      </contour>
    </TTGlyph>
    <TTGlyph name="one" xMin="55" yMin="0" xMax="370" yMax="515">
      <contour>
        <pt x="65" y="0" on="1"/>
        <pt x="65" y="75" on="1"/>
        <pt x="186" y="75" on="1"/>
        <pt x="186" y="437" on="1"/>
        <pt x="55" y="385" on="1"/>
        <pt x="55" y="465" on="1"/>
        <pt x="176" y="515" on="1"/>
        <pt x="271" y="515" on="1"/>
        <pt x="271" y="75" on="1"/>
        <pt x="370" y="75" on="1"/>
        <pt x="370" y="0" on="1"/>
      </contour>
    </TTGlyph>
</ttFont>
